<?xml version="1.0" encoding="UTF-8" standalone="no"?>
<svg
   version="1.1"
   width="15"
   height="15"
   x="0"
   y="0"
   viewBox="0 0 15 15"
   xml:space="preserve"
   class=""
   id="svg1"
   sodipodi:docname="circle-question.svg"
   inkscape:version="1.4 (86a8ad7, 2024-10-11)"
   xmlns:inkscape="http://www.inkscape.org/namespaces/inkscape"
   xmlns:sodipodi="http://sodipodi.sourceforge.net/DTD/sodipodi-0.dtd"
   xmlns="http://www.w3.org/2000/svg"
   xmlns:svg="http://www.w3.org/2000/svg"><defs
     id="defs1" /><sodipodi:namedview
     id="namedview1"
     pagecolor="#ffffff"
     bordercolor="#000000"
     borderopacity="0.25"
     inkscape:showpageshadow="2"
     inkscape:pageopacity="0.0"
     inkscape:pagecheckerboard="0"
     inkscape:deskcolor="#d1d1d1"
     inkscape:zoom="52.546873"
     inkscape:cx="9.0205178"
     inkscape:cy="3.2637528"
     inkscape:window-width="2560"
     inkscape:window-height="1369"
     inkscape:window-x="-8"
     inkscape:window-y="-8"
     inkscape:window-maximized="1"
     inkscape:current-layer="svg1" /><g
     id="g1"
     transform="scale(0.02929688)"><path
       d="M 256,0 C 114.509,0 0,114.496 0,256 0,397.489 114.496,512 256,512 397.491,512 512,397.504 512,256 512,114.509 397.504,0 256,0 Z m -7.575,375.819 c -14.49,0 -25.61,-12.131 -25.61,-25.948 0,-14.153 11.457,-25.946 25.61,-25.946 14.154,0 25.946,11.794 25.946,25.947 0,13.815 -11.457,25.947 -25.946,25.947 z m 38.414,-131.083 c -18.533,14.49 -18.871,24.599 -18.871,42.121 0,6.404 -3.37,13.817 -19.881,13.817 -13.817,0 -18.533,-5.055 -18.533,-22.577 0,-28.98 12.805,-42.796 22.577,-51.22 11.12,-9.436 29.991,-19.881 29.991,-38.077 0,-15.502 -13.479,-22.915 -30.328,-22.915 -34.371,0 -26.957,25.948 -45.155,25.948 -9.098,0 -20.218,-6.067 -20.218,-19.208 0,-18.196 20.892,-45.155 66.384,-45.155 43.132,0 71.775,23.926 71.775,55.601 0,31.675 -28.643,54.589 -37.741,61.665 z"
       fill="#00c7ff"
       opacity="1"
       data-original="#000000"
       data-darkreader-inline-fill=""
       class=""
       id="path1" /></g></svg>
