<?xml version="1.0" encoding="UTF-8" standalone="no"?>
<svg
   width="530"
   height="210"
   viewBox="0 0 530 210"
   fill="none"
   version="1.1"
   id="svg215"
   sodipodi:docname="Frame12.svg"
   inkscape:version="1.4 (86a8ad7, 2024-10-11)"
   xmlns:inkscape="http://www.inkscape.org/namespaces/inkscape"
   xmlns:sodipodi="http://sodipodi.sourceforge.net/DTD/sodipodi-0.dtd"
   xmlns="http://www.w3.org/2000/svg"
   xmlns:svg="http://www.w3.org/2000/svg">
  <defs
     id="defs215" />
  <sodipodi:namedview
     id="namedview215"
     pagecolor="#ffffff"
     bordercolor="#000000"
     borderopacity="0.25"
     inkscape:showpageshadow="2"
     inkscape:pageopacity="0.0"
     inkscape:pagecheckerboard="0"
     inkscape:deskcolor="#d1d1d1"
     inkscape:zoom="1.6116698"
     inkscape:cx="61.426975"
     inkscape:cy="138.67605"
     inkscape:window-width="2560"
     inkscape:window-height="1369"
     inkscape:window-x="-8"
     inkscape:window-y="-8"
     inkscape:window-maximized="1"
     inkscape:current-layer="svg215" />
  <rect
     width="530"
     height="3"
     fill="black"
     id="rect195" />
  <rect
     width="530"
     height="3"
     fill="black"
     id="rect196" />
  <rect
     x="3"
     width="210"
     height="3"
     transform="rotate(90 3 0)"
     fill="black"
     id="rect197" />
  <rect
     x="530"
     y="210"
     width="530"
     height="3"
     transform="rotate(180 530 210)"
     fill="black"
     id="rect198" />
  <rect
     x="530"
     y="210"
     width="530"
     height="3"
     transform="rotate(180 530 210)"
     fill="black"
     id="rect199" />
  <rect
     x="527"
     y="210"
     width="210"
     height="3"
     transform="rotate(-90 527 210)"
     fill="black"
     id="rect200" />
  <g
     id="table1">
    <path
       d="M46.1559 29.9231V20.0182C46.1559 19.4972 45.7335 19.0749 45.2126 19.0749C44.6916 19.0749 44.2692 19.4972 44.2692 20.0182V29.9231C44.2692 30.4441 44.6916 30.8664 45.2126 30.8664C45.7335 30.8664 46.1559 30.4441 46.1559 29.9231Z"
       fill="#29C770"
       fill-opacity="0.6"
       stroke="#29C770"
       stroke-width="0.47166"
       id="path1" />
    <path
       d="M44.2693 22.3504V27.5909C44.2693 28.408 43.6714 29.1021 42.8633 29.2234L37.2034 30.0724C36.2053 30.2221 35.3077 29.4491 35.3077 28.4398V21.5014C35.3077 20.4922 36.2053 19.7192 37.2034 19.8689L42.8633 20.7179C43.6714 20.8391 44.2693 21.5333 44.2693 22.3504Z"
       fill="#29C770"
       fill-opacity="0.4"
       stroke="#29C770"
       stroke-width="0.47166"
       id="path2" />
    <path
       d="M46.1559 44.5445V34.6397C46.1559 34.1187 45.7335 33.6964 45.2126 33.6964C44.6916 33.6964 44.2692 34.1187 44.2692 34.6397V44.5445C44.2692 45.0655 44.6916 45.4878 45.2126 45.4878C45.7335 45.4878 46.1559 45.0655 46.1559 44.5445Z"
       fill="#29C770"
       fill-opacity="0.6"
       stroke="#29C770"
       stroke-width="0.47166"
       id="path3" />
    <path
       d="M44.2693 36.9719V42.2123C44.2693 43.0294 43.6714 43.7236 42.8633 43.8448L37.2034 44.6938C36.2053 44.8435 35.3077 44.0705 35.3077 43.0613V36.1229C35.3077 35.1137 36.2053 34.3407 37.2034 34.4904L42.8633 35.3394C43.6714 35.4606 44.2693 36.1548 44.2693 36.9719Z"
       fill="#29C770"
       fill-opacity="0.4"
       stroke="#29C770"
       stroke-width="0.47166"
       id="path4" />
    <path
       d="M13.6114 34.6397L13.6114 44.5445C13.6114 45.0655 14.0337 45.4879 14.5547 45.4879C15.0757 45.4879 15.498 45.0655 15.498 44.5445L15.498 34.6397C15.498 34.1187 15.0757 33.6964 14.5547 33.6964C14.0337 33.6964 13.6114 34.1187 13.6114 34.6397Z"
       fill="#29C770"
       fill-opacity="0.6"
       stroke="#29C770"
       stroke-width="0.47166"
       id="path5" />
    <path
       d="M15.498 42.2123V36.9719C15.498 36.1548 16.0958 35.4606 16.9039 35.3394L22.5638 34.4904C23.5619 34.3407 24.4595 35.1137 24.4595 36.123V43.0613C24.4595 44.0705 23.5619 44.8435 22.5638 44.6938L16.9039 43.8448C16.0958 43.7236 15.498 43.0294 15.498 42.2123Z"
       fill="#29C770"
       fill-opacity="0.4"
       stroke="#29C770"
       stroke-width="0.47166"
       id="path6" />
    <path
       d="M13.6114 20.0182L13.6114 29.9231C13.6114 30.4441 14.0337 30.8664 14.5547 30.8664C15.0757 30.8664 15.498 30.4441 15.498 29.9231L15.498 20.0182C15.498 19.4972 15.0757 19.0749 14.5547 19.0749C14.0337 19.0749 13.6114 19.4972 13.6114 20.0182Z"
       fill="#29C770"
       fill-opacity="0.6"
       stroke="#29C770"
       stroke-width="0.47166"
       id="path7" />
    <path
       d="M15.498 27.5909V22.3504C15.498 21.5333 16.0958 20.8391 16.9039 20.7179L22.5638 19.8689C23.5619 19.7192 24.4595 20.4922 24.4595 21.5015V28.4399C24.4595 29.4491 23.5619 30.2221 22.5638 30.0724L16.9039 29.2234C16.0958 29.1022 15.498 28.408 15.498 27.5909Z"
       fill="#29C770"
       fill-opacity="0.4"
       stroke="#29C770"
       stroke-width="0.47166"
       id="path8" />
    <path
       d="M34.836 12H24.9312C24.4102 12 23.9879 12.4223 23.9879 12.9433C23.9879 13.4643 24.4102 13.8866 24.9312 13.8866H34.836C35.357 13.8866 35.7794 13.4643 35.7794 12.9433C35.7794 12.4223 35.357 12 34.836 12Z"
       fill="#29C770"
       fill-opacity="0.6"
       stroke="#29C770"
       stroke-width="0.47166"
       id="path9" />
    <path
       d="M27.2634 13.8866H32.5038C33.3209 13.8866 34.0151 14.4845 34.1363 15.2926L34.9853 20.9525C35.135 21.9506 34.362 22.8482 33.3528 22.8482H26.4144C25.4052 22.8482 24.6322 21.9506 24.7819 20.9525L25.6309 15.2926C25.7521 14.4845 26.4463 13.8866 27.2634 13.8866Z"
       fill="#29C770"
       fill-opacity="0.4"
       stroke="#29C770"
       stroke-width="0.47166"
       id="path10" />
    <path
       d="M34.8343 52.5628H24.9294C24.4085 52.5628 23.9861 52.1404 23.9861 51.6194C23.9861 51.0985 24.4085 50.6761 24.9294 50.6761H34.8343C35.3553 50.6761 35.7776 51.0985 35.7776 51.6194C35.7776 52.1404 35.3553 52.5628 34.8343 52.5628Z"
       fill="#29C770"
       fill-opacity="0.6"
       stroke="#29C770"
       stroke-width="0.47166"
       id="path11" />
    <path
       d="M27.2616 50.6761H32.5021C33.3192 50.6761 34.0134 50.0783 34.1346 49.2702L34.9836 43.6103C35.1333 42.6122 34.3603 41.7146 33.3511 41.7146H26.4127C25.4034 41.7146 24.6304 42.6122 24.7801 43.6103L25.6291 49.2702C25.7504 50.0783 26.4445 50.6761 27.2616 50.6761Z"
       fill="#29C770"
       fill-opacity="0.4"
       stroke="#29C770"
       stroke-width="0.47166"
       id="path12" />
    <path
       d="M 40.7318,15.5375 H 19.0354 c -1.0419,0 -1.8866,0.8446 -1.8866,1.8866 v 29.7146 c 0,1.0419 0.8447,1.8866 1.8866,1.8866 h 21.6964 c 1.042,0 1.8866,-0.8447 1.8866,-1.8866 V 17.4241 c 0,-1.042 -0.8446,-1.8866 -1.8866,-1.8866 z"
       fill="#29c770"
       id="path13"
       sodipodi:nodetypes="sssssssss" />
    <path
       d="M30.9716 26.2727V35H29.9148V27.3807H29.8636L27.733 28.7955V27.7216L29.9148 26.2727H30.9716Z"
       fill="white"
       class="number"
       id="path200" />
  </g>
  <g
     id="table2">
    <path
       d="M143.079 16.0091H133.174C132.653 16.0091 132.231 16.4315 132.231 16.9524C132.231 17.4734 132.653 17.8958 133.174 17.8958H143.079C143.6 17.8958 144.022 17.4734 144.022 16.9524C144.022 16.4315 143.6 16.0091 143.079 16.0091Z"
       fill="#29C770"
       fill-opacity="0.6"
       stroke="#29C770"
       stroke-width="0.47166"
       id="path14" />
    <path
       d="M135.506 17.8958H140.747C141.564 17.8958 142.258 18.4936 142.379 19.3017L143.228 24.9616C143.378 25.9597 142.605 26.8573 141.596 26.8573H134.657C133.648 26.8573 132.875 25.9597 133.025 24.9616L133.874 19.3017C133.995 18.4936 134.689 17.8958 135.506 17.8958Z"
       fill="#29C770"
       fill-opacity="0.4"
       stroke="#29C770"
       stroke-width="0.47166"
       id="path15" />
    <path
       d="M157.7 16.0091H147.796C147.275 16.0091 146.852 16.4315 146.852 16.9524C146.852 17.4734 147.275 17.8958 147.796 17.8958H157.7C158.221 17.8958 158.644 17.4734 158.644 16.9524C158.644 16.4315 158.221 16.0091 157.7 16.0091Z"
       fill="#29C770"
       fill-opacity="0.6"
       stroke="#29C770"
       stroke-width="0.47166"
       id="path16" />
    <path
       d="M150.128 17.8958H155.368C156.185 17.8958 156.88 18.4936 157.001 19.3017L157.85 24.9616C157.999 25.9597 157.226 26.8573 156.217 26.8573H149.279C148.27 26.8573 147.497 25.9597 147.646 24.9616L148.495 19.3017C148.616 18.4936 149.311 17.8958 150.128 17.8958Z"
       fill="#29C770"
       fill-opacity="0.4"
       stroke="#29C770"
       stroke-width="0.47166"
       id="path17" />
    <path
       d="M147.796 48.5536H157.7C158.221 48.5536 158.644 48.1313 158.644 47.6103C158.644 47.0893 158.221 46.667 157.7 46.667H147.796C147.275 46.667 146.852 47.0893 146.852 47.6103C146.852 48.1313 147.275 48.5536 147.796 48.5536Z"
       fill="#29C770"
       fill-opacity="0.6"
       stroke="#29C770"
       stroke-width="0.47166"
       id="path18" />
    <path
       d="M155.368 46.667H150.128C149.311 46.667 148.616 46.0692 148.495 45.2611L147.646 39.6012C147.497 38.6031 148.27 37.7055 149.279 37.7055H156.217C157.226 37.7055 157.999 38.6031 157.85 39.6012L157.001 45.2611C156.879 46.0692 156.185 46.667 155.368 46.667Z"
       fill="#29C770"
       fill-opacity="0.4"
       stroke="#29C770"
       stroke-width="0.47166"
       id="path19" />
    <path
       d="M133.174 48.5536H143.079C143.6 48.5536 144.022 48.1313 144.022 47.6103C144.022 47.0893 143.6 46.667 143.079 46.667H133.174C132.653 46.667 132.231 47.0893 132.231 47.6103C132.231 48.1313 132.653 48.5536 133.174 48.5536Z"
       fill="#29C770"
       fill-opacity="0.6"
       stroke="#29C770"
       stroke-width="0.47166"
       id="path20" />
    <path
       d="M140.747 46.667H135.506C134.689 46.667 133.995 46.0692 133.874 45.2611L133.025 39.6012C132.875 38.6031 133.648 37.7055 134.657 37.7055H141.596C142.605 37.7055 143.378 38.6031 143.228 39.6012L142.379 45.2611C142.258 46.0692 141.564 46.667 140.747 46.667Z"
       fill="#29C770"
       fill-opacity="0.4"
       stroke="#29C770"
       stroke-width="0.47166"
       id="path21" />
    <path
       d="M125.156 27.3289V37.2338C125.156 37.7548 125.578 38.1771 126.099 38.1771C126.62 38.1771 127.043 37.7548 127.043 37.2338V27.3289C127.043 26.808 126.62 26.3856 126.099 26.3856C125.578 26.3856 125.156 26.808 125.156 27.3289Z"
       fill="#29C770"
       fill-opacity="0.6"
       stroke="#29C770"
       stroke-width="0.47166"
       id="path22" />
    <path
       d="M127.043 34.9016V29.6612C127.043 28.8441 127.64 28.1499 128.448 28.0287L134.108 27.1797C135.106 27.03 136.004 27.803 136.004 28.8122V35.7505C136.004 36.7598 135.106 37.5328 134.108 37.3831L128.448 36.5341C127.64 36.4129 127.043 35.7187 127.043 34.9016Z"
       fill="#29C770"
       fill-opacity="0.4"
       stroke="#29C770"
       stroke-width="0.47166"
       id="path23" />
    <path
       d="M165.719 27.3307V37.2356C165.719 37.7565 165.296 38.1789 164.775 38.1789C164.254 38.1789 163.832 37.7565 163.832 37.2356V27.3307C163.832 26.8097 164.254 26.3874 164.775 26.3874C165.296 26.3874 165.719 26.8097 165.719 27.3307Z"
       fill="#29C770"
       fill-opacity="0.6"
       stroke="#29C770"
       stroke-width="0.47166"
       id="path24" />
    <path
       d="M163.832 34.9033V29.6629C163.832 28.8458 163.234 28.1516 162.426 28.0304L156.766 27.1814C155.768 27.0317 154.87 27.8047 154.87 28.8139V35.7523C154.87 36.7615 155.768 37.5345 156.766 37.3848L162.426 36.5359C163.234 36.4146 163.832 35.7205 163.832 34.9033Z"
       fill="#29C770"
       fill-opacity="0.4"
       stroke="#29C770"
       stroke-width="0.47166"
       id="path25" />
    <path
       d="M128.693 21.4332V43.1296C128.693 44.1715 129.538 45.0162 130.58 45.0162H160.295C161.337 45.0162 162.181 44.1715 162.181 43.1296V21.4332C162.181 20.3912 161.337 19.5466 160.295 19.5466L130.58 19.5466C129.538 19.5466 128.693 20.3912 128.693 21.4332Z"
       fill="#29C770"
       id="path26" />
    <path
       d="M142.903 36V35.233L145.784 32.0795C146.122 31.7102 146.401 31.3892 146.619 31.1165C146.838 30.8409 147 30.5824 147.105 30.3409C147.213 30.0966 147.267 29.8409 147.267 29.5739C147.267 29.267 147.193 29.0014 147.045 28.777C146.901 28.5526 146.702 28.3793 146.449 28.2571C146.196 28.1349 145.912 28.0739 145.597 28.0739C145.261 28.0739 144.969 28.1435 144.719 28.2827C144.472 28.419 144.28 28.6108 144.143 28.858C144.01 29.1051 143.943 29.3949 143.943 29.7273H142.938C142.938 29.2159 143.055 28.767 143.291 28.3807C143.527 27.9943 143.848 27.6932 144.254 27.4773C144.663 27.2614 145.122 27.1534 145.631 27.1534C146.142 27.1534 146.595 27.2614 146.99 27.4773C147.385 27.6932 147.695 27.9844 147.919 28.3509C148.143 28.7173 148.256 29.125 148.256 29.5739C148.256 29.8949 148.197 30.2088 148.081 30.5156C147.967 30.8196 147.768 31.1591 147.484 31.5341C147.203 31.9062 146.812 32.3608 146.312 32.8977L144.352 34.9943V35.0625H148.409V36H142.903Z"
       fill="white"
       class="number"
       id="path202" />
  </g>
  <g
     id="table3">
    <path
       d="M262.642 16.0091H252.737C252.216 16.0091 251.794 16.4315 251.794 16.9524C251.794 17.4734 252.216 17.8958 252.737 17.8958H262.642C263.163 17.8958 263.585 17.4734 263.585 16.9524C263.585 16.4315 263.163 16.0091 262.642 16.0091Z"
       fill="#29C770"
       fill-opacity="0.6"
       stroke="#29C770"
       stroke-width="0.47166"
       id="path27" />
    <path
       d="M255.069 17.8958H260.309C261.127 17.8958 261.821 18.4936 261.942 19.3017L262.791 24.9616C262.941 25.9597 262.168 26.8573 261.158 26.8573H254.22C253.211 26.8573 252.438 25.9597 252.588 24.9616L253.437 19.3017C253.558 18.4936 254.252 17.8958 255.069 17.8958Z"
       fill="#29C770"
       fill-opacity="0.4"
       stroke="#29C770"
       stroke-width="0.47166"
       id="path28" />
    <path
       d="M277.263 16.0091H267.358C266.837 16.0091 266.415 16.4315 266.415 16.9524C266.415 17.4734 266.837 17.8958 267.358 17.8958H277.263C277.784 17.8958 278.206 17.4734 278.206 16.9524C278.206 16.4315 277.784 16.0091 277.263 16.0091Z"
       fill="#29C770"
       fill-opacity="0.6"
       stroke="#29C770"
       stroke-width="0.47166"
       id="path29" />
    <path
       d="M269.691 17.8958H274.931C275.748 17.8958 276.442 18.4936 276.563 19.3017L277.412 24.9616C277.562 25.9597 276.789 26.8573 275.78 26.8573H268.842C267.832 26.8573 267.059 25.9597 267.209 24.9616L268.058 19.3017C268.179 18.4936 268.873 17.8958 269.691 17.8958Z"
       fill="#29C770"
       fill-opacity="0.4"
       stroke="#29C770"
       stroke-width="0.47166"
       id="path30" />
    <path
       d="M267.358 48.5536H277.263C277.784 48.5536 278.206 48.1313 278.206 47.6103C278.206 47.0893 277.784 46.667 277.263 46.667H267.358C266.837 46.667 266.415 47.0893 266.415 47.6103C266.415 48.1313 266.837 48.5536 267.358 48.5536Z"
       fill="#29C770"
       fill-opacity="0.6"
       stroke="#29C770"
       stroke-width="0.47166"
       id="path31" />
    <path
       d="M274.931 46.667H269.691C268.873 46.667 268.179 46.0692 268.058 45.2611L267.209 39.6012C267.059 38.6031 267.832 37.7055 268.842 37.7055H275.78C276.789 37.7055 277.562 38.6031 277.412 39.6012L276.563 45.2611C276.442 46.0692 275.748 46.667 274.931 46.667Z"
       fill="#29C770"
       fill-opacity="0.4"
       stroke="#29C770"
       stroke-width="0.47166"
       id="path32" />
    <path
       d="M252.737 48.5536H262.642C263.163 48.5536 263.585 48.1313 263.585 47.6103C263.585 47.0893 263.163 46.667 262.642 46.667H252.737C252.216 46.667 251.794 47.0893 251.794 47.6103C251.794 48.1313 252.216 48.5536 252.737 48.5536Z"
       fill="#29C770"
       fill-opacity="0.6"
       stroke="#29C770"
       stroke-width="0.47166"
       id="path33" />
    <path
       d="M260.309 46.667H255.069C254.252 46.667 253.558 46.0692 253.437 45.2611L252.588 39.6012C252.438 38.6031 253.211 37.7055 254.22 37.7055H261.158C262.168 37.7055 262.941 38.6031 262.791 39.6012L261.942 45.2611C261.821 46.0692 261.127 46.667 260.309 46.667Z"
       fill="#29C770"
       fill-opacity="0.4"
       stroke="#29C770"
       stroke-width="0.47166"
       id="path34" />
    <path
       d="M244.719 27.3289V37.2338C244.719 37.7548 245.141 38.1771 245.662 38.1771C246.183 38.1771 246.605 37.7548 246.605 37.2338V27.3289C246.605 26.808 246.183 26.3856 245.662 26.3856C245.141 26.3856 244.719 26.808 244.719 27.3289Z"
       fill="#29C770"
       fill-opacity="0.6"
       stroke="#29C770"
       stroke-width="0.47166"
       id="path35" />
    <path
       d="M246.605 34.9016V29.6612C246.605 28.8441 247.203 28.1499 248.011 28.0287L253.671 27.1797C254.669 27.03 255.567 27.803 255.567 28.8122V35.7505C255.567 36.7598 254.669 37.5328 253.671 37.3831L248.011 36.5341C247.203 36.4129 246.605 35.7187 246.605 34.9016Z"
       fill="#29C770"
       fill-opacity="0.4"
       stroke="#29C770"
       stroke-width="0.47166"
       id="path36" />
    <path
       d="M285.281 27.3307V37.2356C285.281 37.7565 284.859 38.1789 284.338 38.1789C283.817 38.1789 283.395 37.7565 283.395 37.2356V27.3307C283.395 26.8097 283.817 26.3874 284.338 26.3874C284.859 26.3874 285.281 26.8097 285.281 27.3307Z"
       fill="#29C770"
       fill-opacity="0.6"
       stroke="#29C770"
       stroke-width="0.47166"
       id="path37" />
    <path
       d="M283.395 34.9033V29.6629C283.395 28.8458 282.797 28.1516 281.989 28.0304L276.329 27.1814C275.331 27.0317 274.433 27.8047 274.433 28.8139V35.7523C274.433 36.7615 275.331 37.5345 276.329 37.3848L281.989 36.5359C282.797 36.4146 283.395 35.7205 283.395 34.9033Z"
       fill="#29C770"
       fill-opacity="0.4"
       stroke="#29C770"
       stroke-width="0.47166"
       id="path38" />
    <path
       d="M248.256 21.4332V43.1296C248.256 44.1715 249.101 45.0162 250.143 45.0162H279.857C280.899 45.0162 281.744 44.1715 281.744 43.1296V21.4332C281.744 20.3912 280.899 19.5466 279.857 19.5466L250.143 19.5466C249.101 19.5466 248.256 20.3912 248.256 21.4332Z"
       fill="#29C770"
       id="path39" />
    <path
       d="M264.852 36.1193C264.29 36.1193 263.788 36.0227 263.348 35.8295C262.911 35.6364 262.563 35.3679 262.304 35.0241C262.048 34.6776 261.909 34.2756 261.886 33.8182H262.96C262.983 34.0994 263.08 34.3423 263.25 34.5469C263.42 34.7486 263.643 34.9048 263.919 35.0156C264.195 35.1264 264.5 35.1818 264.835 35.1818C265.21 35.1818 265.543 35.1165 265.832 34.9858C266.122 34.8551 266.349 34.6733 266.514 34.4403C266.679 34.2074 266.761 33.9375 266.761 33.6307C266.761 33.3097 266.682 33.027 266.523 32.7827C266.364 32.5355 266.131 32.3423 265.824 32.2031C265.517 32.0639 265.142 31.9943 264.699 31.9943H264V31.0568H264.699C265.045 31.0568 265.349 30.9943 265.611 30.8693C265.875 30.7443 266.081 30.5682 266.229 30.3409C266.379 30.1136 266.455 29.8466 266.455 29.5398C266.455 29.2443 266.389 28.9872 266.259 28.7685C266.128 28.5497 265.943 28.3793 265.705 28.2571C265.469 28.1349 265.19 28.0739 264.869 28.0739C264.568 28.0739 264.284 28.1293 264.017 28.2401C263.753 28.348 263.537 28.5057 263.369 28.7131C263.202 28.9176 263.111 29.1648 263.097 29.4545H262.074C262.091 28.9972 262.229 28.5966 262.487 28.2528C262.746 27.9062 263.084 27.6364 263.501 27.4432C263.922 27.25 264.384 27.1534 264.886 27.1534C265.426 27.1534 265.889 27.2628 266.276 27.4815C266.662 27.6974 266.959 27.983 267.166 28.3381C267.374 28.6932 267.477 29.0767 267.477 29.4886C267.477 29.9801 267.348 30.3991 267.089 30.7457C266.834 31.0923 266.486 31.3324 266.045 31.4659V31.5341C266.597 31.625 267.027 31.8594 267.337 32.2372C267.646 32.6122 267.801 33.0767 267.801 33.6307C267.801 34.1051 267.672 34.5312 267.413 34.9091C267.158 35.2841 266.808 35.5795 266.365 35.7955C265.922 36.0114 265.418 36.1193 264.852 36.1193Z"
       fill="white"
       class="number"
       id="path203" />
  </g>
  <g
     id="table4">
    <path
       d="M382.204 16.0091H372.3C371.779 16.0091 371.356 16.4315 371.356 16.9524C371.356 17.4734 371.779 17.8958 372.3 17.8958H382.204C382.725 17.8958 383.148 17.4734 383.148 16.9524C383.148 16.4315 382.725 16.0091 382.204 16.0091Z"
       fill="#29C770"
       fill-opacity="0.6"
       stroke="#29C770"
       stroke-width="0.47166"
       id="path40" />
    <path
       d="M374.632 17.8958H379.872C380.689 17.8958 381.384 18.4936 381.505 19.3017L382.354 24.9616C382.503 25.9597 381.73 26.8573 380.721 26.8573H373.783C372.774 26.8573 372.001 25.9597 372.15 24.9616L372.999 19.3017C373.121 18.4936 373.815 17.8958 374.632 17.8958Z"
       fill="#29C770"
       fill-opacity="0.4"
       stroke="#29C770"
       stroke-width="0.47166"
       id="path41" />
    <path
       d="M396.826 16.0091H386.921C386.4 16.0091 385.978 16.4315 385.978 16.9524C385.978 17.4734 386.4 17.8958 386.921 17.8958H396.826C397.347 17.8958 397.769 17.4734 397.769 16.9524C397.769 16.4315 397.347 16.0091 396.826 16.0091Z"
       fill="#29C770"
       fill-opacity="0.6"
       stroke="#29C770"
       stroke-width="0.47166"
       id="path42" />
    <path
       d="M389.253 17.8958H394.494C395.311 17.8958 396.005 18.4936 396.126 19.3017L396.975 24.9616C397.125 25.9597 396.352 26.8573 395.343 26.8573H388.404C387.395 26.8573 386.622 25.9597 386.772 24.9616L387.621 19.3017C387.742 18.4936 388.436 17.8958 389.253 17.8958Z"
       fill="#29C770"
       fill-opacity="0.4"
       stroke="#29C770"
       stroke-width="0.47166"
       id="path43" />
    <path
       d="M386.921 48.5536H396.826C397.347 48.5536 397.769 48.1313 397.769 47.6103C397.769 47.0893 397.347 46.667 396.826 46.667H386.921C386.4 46.667 385.978 47.0893 385.978 47.6103C385.978 48.1313 386.4 48.5536 386.921 48.5536Z"
       fill="#29C770"
       fill-opacity="0.6"
       stroke="#29C770"
       stroke-width="0.47166"
       id="path44" />
    <path
       d="M394.494 46.667H389.253C388.436 46.667 387.742 46.0692 387.621 45.2611L386.772 39.6012C386.622 38.6031 387.395 37.7055 388.404 37.7055H395.343C396.352 37.7055 397.125 38.6031 396.975 39.6012L396.126 45.2611C396.005 46.0692 395.311 46.667 394.494 46.667Z"
       fill="#29C770"
       fill-opacity="0.4"
       stroke="#29C770"
       stroke-width="0.47166"
       id="path45" />
    <path
       d="M372.3 48.5536H382.204C382.725 48.5536 383.148 48.1313 383.148 47.6103C383.148 47.0893 382.725 46.667 382.204 46.667H372.3C371.779 46.667 371.356 47.0893 371.356 47.6103C371.356 48.1313 371.779 48.5536 372.3 48.5536Z"
       fill="#29C770"
       fill-opacity="0.6"
       stroke="#29C770"
       stroke-width="0.47166"
       id="path46" />
    <path
       d="M379.872 46.667H374.632C373.815 46.667 373.121 46.0692 372.999 45.2611L372.15 39.6012C372.001 38.6031 372.774 37.7055 373.783 37.7055H380.721C381.73 37.7055 382.503 38.6031 382.354 39.6012L381.505 45.2611C381.384 46.0692 380.689 46.667 379.872 46.667Z"
       fill="#29C770"
       fill-opacity="0.4"
       stroke="#29C770"
       stroke-width="0.47166"
       id="path47" />
    <path
       d="M364.281 27.3289V37.2338C364.281 37.7548 364.704 38.1771 365.225 38.1771C365.746 38.1771 366.168 37.7548 366.168 37.2338V27.3289C366.168 26.808 365.746 26.3856 365.225 26.3856C364.704 26.3856 364.281 26.808 364.281 27.3289Z"
       fill="#29C770"
       fill-opacity="0.6"
       stroke="#29C770"
       stroke-width="0.47166"
       id="path48" />
    <path
       d="M366.168 34.9016V29.6612C366.168 28.8441 366.766 28.1499 367.574 28.0287L373.234 27.1797C374.232 27.03 375.13 27.803 375.13 28.8122V35.7505C375.13 36.7598 374.232 37.5328 373.234 37.3831L367.574 36.5341C366.766 36.4129 366.168 35.7187 366.168 34.9016Z"
       fill="#29C770"
       fill-opacity="0.4"
       stroke="#29C770"
       stroke-width="0.47166"
       id="path49" />
    <path
       d="M404.844 27.3307V37.2356C404.844 37.7565 404.422 38.1789 403.901 38.1789C403.38 38.1789 402.957 37.7565 402.957 37.2356V27.3307C402.957 26.8097 403.38 26.3874 403.901 26.3874C404.422 26.3874 404.844 26.8097 404.844 27.3307Z"
       fill="#29C770"
       fill-opacity="0.6"
       stroke="#29C770"
       stroke-width="0.47166"
       id="path50" />
    <path
       d="M402.957 34.9033V29.6629C402.957 28.8458 402.36 28.1516 401.552 28.0304L395.892 27.1814C394.894 27.0317 393.996 27.8047 393.996 28.8139V35.7523C393.996 36.7615 394.894 37.5345 395.892 37.3848L401.552 36.5359C402.36 36.4146 402.957 35.7205 402.957 34.9033Z"
       fill="#29C770"
       fill-opacity="0.4"
       stroke="#29C770"
       stroke-width="0.47166"
       id="path51" />
    <path
       d="M367.819 21.4332V43.1296C367.819 44.1715 368.663 45.0162 369.705 45.0162H399.42C400.462 45.0162 401.307 44.1715 401.307 43.1296V21.4332C401.307 20.3912 400.462 19.5466 399.42 19.5466L369.705 19.5466C368.663 19.5466 367.819 20.3912 367.819 21.4332Z"
       fill="#29C770"
       id="path52" />
    <path
       d="M381.699 34.2102V33.3409L385.534 27.2727H386.165V28.6193H385.739L382.841 33.2045V33.2727H388.006V34.2102H381.699ZM385.807 36V33.946V33.5412V27.2727H386.812V36H385.807Z"
       fill="white"
       class="number"
       id="path204" />
  </g>
  <g
     id="table5">
    <path
       d="M516.389 29.9231V20.0182C516.389 19.4972 515.966 19.0749 515.445 19.0749C514.924 19.0749 514.502 19.4972 514.502 20.0182V29.9231C514.502 30.4441 514.924 30.8664 515.445 30.8664C515.966 30.8664 516.389 30.4441 516.389 29.9231Z"
       fill="#29C770"
       fill-opacity="0.6"
       stroke="#29C770"
       stroke-width="0.47166"
       id="path53" />
    <path
       d="M514.502 22.3504V27.5909C514.502 28.408 513.904 29.1021 513.096 29.2234L507.436 30.0724C506.438 30.2221 505.54 29.4491 505.54 28.4398V21.5014C505.54 20.4922 506.438 19.7192 507.436 19.8689L513.096 20.7179C513.904 20.8391 514.502 21.5333 514.502 22.3504Z"
       fill="#29C770"
       fill-opacity="0.4"
       stroke="#29C770"
       stroke-width="0.47166"
       id="path54" />
    <path
       d="M516.389 44.5445V34.6397C516.389 34.1187 515.966 33.6964 515.445 33.6964C514.924 33.6964 514.502 34.1187 514.502 34.6397V44.5445C514.502 45.0655 514.924 45.4878 515.445 45.4878C515.966 45.4878 516.389 45.0655 516.389 44.5445Z"
       fill="#29C770"
       fill-opacity="0.6"
       stroke="#29C770"
       stroke-width="0.47166"
       id="path55" />
    <path
       d="M514.502 36.9719V42.2123C514.502 43.0294 513.904 43.7236 513.096 43.8448L507.436 44.6938C506.438 44.8435 505.54 44.0705 505.54 43.0613V36.1229C505.54 35.1137 506.438 34.3407 507.436 34.4904L513.096 35.3394C513.904 35.4606 514.502 36.1548 514.502 36.9719Z"
       fill="#29C770"
       fill-opacity="0.4"
       stroke="#29C770"
       stroke-width="0.47166"
       id="path56" />
    <path
       d="M483.844 34.6397V44.5445C483.844 45.0655 484.266 45.4879 484.787 45.4879C485.308 45.4879 485.731 45.0655 485.731 44.5445V34.6397C485.731 34.1187 485.308 33.6964 484.787 33.6964C484.266 33.6964 483.844 34.1187 483.844 34.6397Z"
       fill="#29C770"
       fill-opacity="0.6"
       stroke="#29C770"
       stroke-width="0.47166"
       id="path57" />
    <path
       d="M485.731 42.2123V36.9719C485.731 36.1548 486.329 35.4606 487.137 35.3394L492.797 34.4904C493.795 34.3407 494.692 35.1137 494.692 36.123V43.0613C494.692 44.0705 493.795 44.8435 492.797 44.6938L487.137 43.8448C486.329 43.7236 485.731 43.0294 485.731 42.2123Z"
       fill="#29C770"
       fill-opacity="0.4"
       stroke="#29C770"
       stroke-width="0.47166"
       id="path58" />
    <path
       d="M483.844 20.0182V29.9231C483.844 30.4441 484.266 30.8664 484.787 30.8664C485.308 30.8664 485.731 30.4441 485.731 29.9231V20.0182C485.731 19.4972 485.308 19.0749 484.787 19.0749C484.266 19.0749 483.844 19.4972 483.844 20.0182Z"
       fill="#29C770"
       fill-opacity="0.6"
       stroke="#29C770"
       stroke-width="0.47166"
       id="path59" />
    <path
       d="M485.731 27.5909V22.3504C485.731 21.5333 486.329 20.8391 487.137 20.7179L492.797 19.8689C493.795 19.7192 494.692 20.4922 494.692 21.5015V28.4399C494.692 29.4491 493.795 30.2221 492.797 30.0724L487.137 29.2234C486.329 29.1022 485.731 28.408 485.731 27.5909Z"
       fill="#29C770"
       fill-opacity="0.4"
       stroke="#29C770"
       stroke-width="0.47166"
       id="path60" />
    <path
       d="M505.069 12H495.164C494.643 12 494.221 12.4223 494.221 12.9433C494.221 13.4643 494.643 13.8866 495.164 13.8866H505.069C505.59 13.8866 506.012 13.4643 506.012 12.9433C506.012 12.4223 505.59 12 505.069 12Z"
       fill="#29C770"
       fill-opacity="0.6"
       stroke="#29C770"
       stroke-width="0.47166"
       id="path61" />
    <path
       d="M497.496 13.8866H502.737C503.554 13.8866 504.248 14.4845 504.369 15.2926L505.218 20.9525C505.368 21.9506 504.595 22.8482 503.586 22.8482H496.647C495.638 22.8482 494.865 21.9506 495.015 20.9525L495.864 15.2926C495.985 14.4845 496.679 13.8866 497.496 13.8866Z"
       fill="#29C770"
       fill-opacity="0.4"
       stroke="#29C770"
       stroke-width="0.47166"
       id="path62" />
    <path
       d="M505.067 52.5628H495.162C494.641 52.5628 494.219 52.1404 494.219 51.6194C494.219 51.0985 494.641 50.6761 495.162 50.6761H505.067C505.588 50.6761 506.01 51.0985 506.01 51.6194C506.01 52.1404 505.588 52.5628 505.067 52.5628Z"
       fill="#29C770"
       fill-opacity="0.6"
       stroke="#29C770"
       stroke-width="0.47166"
       id="path63" />
    <path
       d="M497.494 50.6761H502.735C503.552 50.6761 504.246 50.0783 504.367 49.2702L505.216 43.6103C505.366 42.6122 504.593 41.7146 503.584 41.7146H496.645C495.636 41.7146 494.863 42.6122 495.013 43.6103L495.862 49.2702C495.983 50.0783 496.677 50.6761 497.494 50.6761Z"
       fill="#29C770"
       fill-opacity="0.4"
       stroke="#29C770"
       stroke-width="0.47166"
       id="path64" />
    <path
       d="M510.965 15.5375L489.268 15.5375C488.226 15.5375 487.382 16.3821 487.382 17.4241V47.1387C487.382 48.1806 488.226 49.0253 489.268 49.0253H510.965C512.007 49.0253 512.851 48.1806 512.851 47.1387V17.4241C512.851 16.3821 512.007 15.5375 510.965 15.5375Z"
       fill="#29C770"
       id="path65" />
    <path
       d="M499.631 36.1193C499.131 36.1193 498.68 36.0199 498.28 35.821C497.879 35.6222 497.558 35.3494 497.317 35.0028C497.075 34.6562 496.943 34.2614 496.92 33.8182H497.943C497.983 34.2131 498.162 34.5398 498.48 34.7983C498.801 35.054 499.185 35.1818 499.631 35.1818C499.989 35.1818 500.307 35.098 500.585 34.9304C500.866 34.7628 501.087 34.5327 501.246 34.2401C501.408 33.9446 501.489 33.6108 501.489 33.2386C501.489 32.858 501.405 32.5185 501.237 32.2202C501.072 31.919 500.845 31.6818 500.555 31.5085C500.266 31.3352 499.935 31.2472 499.562 31.2443C499.295 31.2415 499.021 31.2827 498.74 31.3679C498.459 31.4503 498.227 31.5568 498.045 31.6875L497.057 31.5682L497.585 27.2727H502.119V28.2102H498.472L498.165 30.7841H498.216C498.395 30.642 498.619 30.5241 498.889 30.4304C499.159 30.3366 499.44 30.2898 499.733 30.2898C500.267 30.2898 500.743 30.4176 501.161 30.6733C501.581 30.9261 501.911 31.2727 502.149 31.7131C502.391 32.1534 502.511 32.6562 502.511 33.2216C502.511 33.7784 502.386 34.2756 502.136 34.7131C501.889 35.1477 501.548 35.4915 501.114 35.7443C500.679 35.9943 500.185 36.1193 499.631 36.1193Z"
       fill="white"
       class="number"
       id="path205" />
  </g>
  <g
     id="table6">
    <path
       d="M46.1559 102.486V92.581C46.1559 92.06 45.7335 91.6377 45.2125 91.6377C44.6916 91.6377 44.2692 92.06 44.2692 92.581V102.486C44.2692 103.007 44.6916 103.429 45.2125 103.429C45.7335 103.429 46.1559 103.007 46.1559 102.486Z"
       fill="#29C770"
       fill-opacity="0.6"
       stroke="#29C770"
       stroke-width="0.47166"
       id="path66" />
    <path
       d="M44.2692 94.9132V100.154C44.2692 100.971 43.6714 101.665 42.8633 101.786L37.2034 102.635C36.2053 102.785 35.3077 102.012 35.3077 101.003V94.0642C35.3077 93.055 36.2053 92.282 37.2034 92.4317L42.8633 93.2807C43.6714 93.4019 44.2692 94.0961 44.2692 94.9132Z"
       fill="#29C770"
       fill-opacity="0.4"
       stroke="#29C770"
       stroke-width="0.47166"
       id="path67" />
    <path
       d="M46.1559 117.107V107.202C46.1559 106.681 45.7335 106.259 45.2125 106.259C44.6916 106.259 44.2692 106.681 44.2692 107.202V117.107C44.2692 117.628 44.6916 118.051 45.2125 118.051C45.7335 118.051 46.1559 117.628 46.1559 117.107Z"
       fill="#29C770"
       fill-opacity="0.6"
       stroke="#29C770"
       stroke-width="0.47166"
       id="path68" />
    <path
       d="M44.2692 109.535V114.775C44.2692 115.592 43.6714 116.286 42.8633 116.408L37.2034 117.257C36.2053 117.406 35.3077 116.633 35.3077 115.624V108.686C35.3077 107.676 36.2053 106.903 37.2034 107.053L42.8633 107.902C43.6714 108.023 44.2692 108.718 44.2692 109.535Z"
       fill="#29C770"
       fill-opacity="0.4"
       stroke="#29C770"
       stroke-width="0.47166"
       id="path69" />
    <path
       d="M13.6113 107.202L13.6113 117.107C13.6113 117.628 14.0337 118.051 14.5546 118.051C15.0756 118.051 15.498 117.628 15.498 117.107L15.498 107.202C15.498 106.681 15.0756 106.259 14.5546 106.259C14.0337 106.259 13.6113 106.681 13.6113 107.202Z"
       fill="#29C770"
       fill-opacity="0.6"
       stroke="#29C770"
       stroke-width="0.47166"
       id="path70" />
    <path
       d="M15.498 114.775V109.535C15.498 108.718 16.0958 108.023 16.9039 107.902L22.5638 107.053C23.5619 106.903 24.4595 107.676 24.4595 108.686V115.624C24.4595 116.633 23.5619 117.406 22.5638 117.257L16.9039 116.408C16.0958 116.286 15.498 115.592 15.498 114.775Z"
       fill="#29C770"
       fill-opacity="0.4"
       stroke="#29C770"
       stroke-width="0.47166"
       id="path71" />
    <path
       d="M13.6113 92.581L13.6113 102.486C13.6113 103.007 14.0337 103.429 14.5546 103.429C15.0756 103.429 15.498 103.007 15.498 102.486L15.498 92.581C15.498 92.06 15.0756 91.6377 14.5546 91.6377C14.0337 91.6377 13.6113 92.06 13.6113 92.581Z"
       fill="#29C770"
       fill-opacity="0.6"
       stroke="#29C770"
       stroke-width="0.47166"
       id="path72" />
    <path
       d="M15.498 100.154V94.9132C15.498 94.0961 16.0958 93.4019 16.9039 93.2807L22.5638 92.4317C23.5619 92.282 24.4595 93.055 24.4595 94.0643V101.003C24.4595 102.012 23.5619 102.785 22.5638 102.635L16.9039 101.786C16.0958 101.665 15.498 100.971 15.498 100.154Z"
       fill="#29C770"
       fill-opacity="0.4"
       stroke="#29C770"
       stroke-width="0.47166"
       id="path73" />
    <path
       d="M34.836 84.5628H24.9311C24.4102 84.5628 23.9878 84.9851 23.9878 85.5061C23.9878 86.0271 24.4102 86.4494 24.9311 86.4494H34.836C35.357 86.4494 35.7793 86.0271 35.7793 85.5061C35.7793 84.9851 35.357 84.5628 34.836 84.5628Z"
       fill="#29C770"
       fill-opacity="0.6"
       stroke="#29C770"
       stroke-width="0.47166"
       id="path74" />
    <path
       d="M27.2634 86.4494H32.5038C33.3209 86.4494 34.0151 87.0472 34.1363 87.8553L34.9853 93.5153C35.135 94.5133 34.362 95.411 33.3528 95.411H26.4144C25.4052 95.411 24.6322 94.5133 24.7819 93.5153L25.6309 87.8553C25.7521 87.0472 26.4463 86.4494 27.2634 86.4494Z"
       fill="#29C770"
       fill-opacity="0.4"
       stroke="#29C770"
       stroke-width="0.47166"
       id="path75" />
    <path
       d="M34.8343 125.126H24.9294C24.4084 125.126 23.9861 124.703 23.9861 124.182C23.9861 123.661 24.4084 123.239 24.9294 123.239H34.8343C35.3552 123.239 35.7776 123.661 35.7776 124.182C35.7776 124.703 35.3552 125.126 34.8343 125.126Z"
       fill="#29C770"
       fill-opacity="0.6"
       stroke="#29C770"
       stroke-width="0.47166"
       id="path76" />
    <path
       d="M27.2616 123.239H32.502C33.3191 123.239 34.0133 122.641 34.1345 121.833L34.9835 116.173C35.1332 115.175 34.3602 114.277 33.351 114.277H26.4127C25.4034 114.277 24.6304 115.175 24.7801 116.173L25.6291 121.833C25.7503 122.641 26.4445 123.239 27.2616 123.239Z"
       fill="#29C770"
       fill-opacity="0.4"
       stroke="#29C770"
       stroke-width="0.47166"
       id="path77" />
    <path
       d="M40.7318 88.1002H19.0354C17.9935 88.1002 17.1488 88.9449 17.1488 89.9869L17.1488 119.701C17.1488 120.743 17.9935 121.588 19.0354 121.588H40.7318C41.7737 121.588 42.6184 120.743 42.6184 119.701V89.9869C42.6184 88.9449 41.7737 88.1002 40.7318 88.1002Z"
       fill="#29C770"
       id="path78" />
    <path
       d="M29.8011 109.119C29.4432 109.114 29.0852 109.045 28.7273 108.915C28.3693 108.784 28.0426 108.564 27.7472 108.254C27.4517 107.942 27.2145 107.52 27.0355 106.989C26.8565 106.455 26.767 105.784 26.767 104.977C26.767 104.205 26.8395 103.52 26.9844 102.923C27.1293 102.324 27.3395 101.82 27.6151 101.411C27.8906 100.999 28.223 100.686 28.6122 100.473C29.0043 100.26 29.446 100.153 29.9375 100.153C30.4261 100.153 30.8608 100.251 31.2415 100.447C31.625 100.641 31.9375 100.911 32.179 101.257C32.4205 101.604 32.5767 102.003 32.6477 102.455H31.608C31.5114 102.062 31.3239 101.737 31.0455 101.479C30.767 101.22 30.3977 101.091 29.9375 101.091C29.2614 101.091 28.7287 101.385 28.3395 101.973C27.9531 102.561 27.7585 103.386 27.7557 104.449H27.8239C27.983 104.207 28.1719 104.001 28.3906 103.831C28.6122 103.658 28.8565 103.524 29.1236 103.43C29.3906 103.337 29.6733 103.29 29.9716 103.29C30.4716 103.29 30.929 103.415 31.3438 103.665C31.7585 103.912 32.0909 104.254 32.3409 104.692C32.5909 105.126 32.7159 105.625 32.7159 106.188C32.7159 106.727 32.5952 107.222 32.3537 107.67C32.1122 108.116 31.7727 108.472 31.3352 108.736C30.9006 108.997 30.3892 109.125 29.8011 109.119ZM29.8011 108.182C30.1591 108.182 30.4801 108.092 30.7642 107.913C31.0511 107.734 31.277 107.494 31.4418 107.193C31.6094 106.892 31.6932 106.557 31.6932 106.188C31.6932 105.827 31.6122 105.499 31.4503 105.203C31.2912 104.905 31.071 104.668 30.7898 104.491C30.5114 104.315 30.1932 104.227 29.8352 104.227C29.5653 104.227 29.3139 104.281 29.081 104.389C28.848 104.494 28.6435 104.639 28.4673 104.824C28.294 105.009 28.1577 105.22 28.0582 105.459C27.9588 105.695 27.9091 105.943 27.9091 106.205C27.9091 106.551 27.9901 106.875 28.152 107.176C28.3168 107.477 28.5412 107.72 28.8253 107.905C29.1122 108.089 29.4375 108.182 29.8011 108.182Z"
       fill="white"
       class="number"
       id="path206" />
  </g>
  <g
     id="table7">
    <path
       d="M143.079 88.5719H133.174C132.653 88.5719 132.231 88.9942 132.231 89.5152C132.231 90.0362 132.653 90.4585 133.174 90.4585H143.079C143.6 90.4585 144.022 90.0362 144.022 89.5152C144.022 88.9942 143.6 88.5719 143.079 88.5719Z"
       fill="#29C770"
       fill-opacity="0.6"
       stroke="#29C770"
       stroke-width="0.47166"
       id="path79" />
    <path
       d="M135.506 90.4585H140.747C141.564 90.4585 142.258 91.0564 142.379 91.8645L143.228 97.5244C143.378 98.5224 142.605 99.4201 141.596 99.4201H134.657C133.648 99.4201 132.875 98.5224 133.025 97.5244L133.874 91.8645C133.995 91.0564 134.689 90.4585 135.506 90.4585Z"
       fill="#29C770"
       fill-opacity="0.4"
       stroke="#29C770"
       stroke-width="0.47166"
       id="path80" />
    <path
       d="M157.7 88.5719H147.796C147.275 88.5719 146.852 88.9942 146.852 89.5152C146.852 90.0362 147.275 90.4585 147.796 90.4585H157.7C158.221 90.4585 158.644 90.0362 158.644 89.5152C158.644 88.9942 158.221 88.5719 157.7 88.5719Z"
       fill="#29C770"
       fill-opacity="0.6"
       stroke="#29C770"
       stroke-width="0.47166"
       id="path81" />
    <path
       d="M150.128 90.4585H155.368C156.185 90.4585 156.879 91.0564 157.001 91.8645L157.85 97.5244C157.999 98.5224 157.226 99.4201 156.217 99.4201H149.279C148.27 99.4201 147.497 98.5224 147.646 97.5244L148.495 91.8645C148.616 91.0564 149.311 90.4585 150.128 90.4585Z"
       fill="#29C770"
       fill-opacity="0.4"
       stroke="#29C770"
       stroke-width="0.47166"
       id="path82" />
    <path
       d="M147.796 121.116H157.7C158.221 121.116 158.644 120.694 158.644 120.173C158.644 119.652 158.221 119.23 157.7 119.23H147.796C147.275 119.23 146.852 119.652 146.852 120.173C146.852 120.694 147.275 121.116 147.796 121.116Z"
       fill="#29C770"
       fill-opacity="0.6"
       stroke="#29C770"
       stroke-width="0.47166"
       id="path83" />
    <path
       d="M155.368 119.23H150.128C149.311 119.23 148.616 118.632 148.495 117.824L147.646 112.164C147.497 111.166 148.27 110.268 149.279 110.268H156.217C157.226 110.268 157.999 111.166 157.85 112.164L157.001 117.824C156.879 118.632 156.185 119.23 155.368 119.23Z"
       fill="#29C770"
       fill-opacity="0.4"
       stroke="#29C770"
       stroke-width="0.47166"
       id="path84" />
    <path
       d="M133.174 121.116H143.079C143.6 121.116 144.022 120.694 144.022 120.173C144.022 119.652 143.6 119.23 143.079 119.23H133.174C132.653 119.23 132.231 119.652 132.231 120.173C132.231 120.694 132.653 121.116 133.174 121.116Z"
       fill="#29C770"
       fill-opacity="0.6"
       stroke="#29C770"
       stroke-width="0.47166"
       id="path85" />
    <path
       d="M140.747 119.23H135.506C134.689 119.23 133.995 118.632 133.874 117.824L133.025 112.164C132.875 111.166 133.648 110.268 134.657 110.268H141.596C142.605 110.268 143.378 111.166 143.228 112.164L142.379 117.824C142.258 118.632 141.564 119.23 140.747 119.23Z"
       fill="#29C770"
       fill-opacity="0.4"
       stroke="#29C770"
       stroke-width="0.47166"
       id="path86" />
    <path
       d="M125.156 99.8917V109.797C125.156 110.318 125.578 110.74 126.099 110.74C126.62 110.74 127.042 110.318 127.042 109.797V99.8917C127.042 99.3708 126.62 98.9484 126.099 98.9484C125.578 98.9484 125.156 99.3708 125.156 99.8917Z"
       fill="#29C770"
       fill-opacity="0.6"
       stroke="#29C770"
       stroke-width="0.47166"
       id="path87" />
    <path
       d="M127.042 107.464V102.224C127.042 101.407 127.64 100.713 128.448 100.591L134.108 99.7424C135.106 99.5927 136.004 100.366 136.004 101.375V108.313C136.004 109.323 135.106 110.096 134.108 109.946L128.448 109.097C127.64 108.976 127.042 108.281 127.042 107.464Z"
       fill="#29C770"
       fill-opacity="0.4"
       stroke="#29C770"
       stroke-width="0.47166"
       id="path88" />
    <path
       d="M165.719 99.8935V109.798C165.719 110.319 165.296 110.742 164.775 110.742C164.254 110.742 163.832 110.319 163.832 109.798V99.8935C163.832 99.3725 164.254 98.9502 164.775 98.9502C165.296 98.9502 165.719 99.3725 165.719 99.8935Z"
       fill="#29C770"
       fill-opacity="0.6"
       stroke="#29C770"
       stroke-width="0.47166"
       id="path89" />
    <path
       d="M163.832 107.466V102.226C163.832 101.409 163.234 100.714 162.426 100.593L156.766 99.7442C155.768 99.5945 154.87 100.368 154.87 101.377V108.315C154.87 109.324 155.768 110.097 156.766 109.948L162.426 109.099C163.234 108.977 163.832 108.283 163.832 107.466Z"
       fill="#29C770"
       fill-opacity="0.4"
       stroke="#29C770"
       stroke-width="0.47166"
       id="path90" />
    <path
       d="M128.693 93.996V115.692C128.693 116.734 129.538 117.579 130.58 117.579H160.295C161.336 117.579 162.181 116.734 162.181 115.692V93.996C162.181 92.954 161.336 92.1093 160.295 92.1093H130.58C129.538 92.1093 128.693 92.954 128.693 93.996Z"
       fill="#29C770"
       id="path91" />
    <path
       d="M143.176 109L147.08 101.278V101.21H142.58V100.273H148.17V101.261L144.284 109H143.176Z"
       fill="white"
       class="number"
       id="path207" />
  </g>
  <g
     id="table8">
    <path
       d="M262.642 88.5719H252.737C252.216 88.5719 251.794 88.9942 251.794 89.5152C251.794 90.0362 252.216 90.4585 252.737 90.4585H262.642C263.163 90.4585 263.585 90.0362 263.585 89.5152C263.585 88.9942 263.163 88.5719 262.642 88.5719Z"
       fill="#29C770"
       fill-opacity="0.6"
       stroke="#29C770"
       stroke-width="0.47166"
       id="path92" />
    <path
       d="M255.069 90.4585H260.309C261.127 90.4585 261.821 91.0564 261.942 91.8645L262.791 97.5244C262.941 98.5224 262.168 99.4201 261.158 99.4201H254.22C253.211 99.4201 252.438 98.5224 252.588 97.5244L253.437 91.8645C253.558 91.0564 254.252 90.4585 255.069 90.4585Z"
       fill="#29C770"
       fill-opacity="0.4"
       stroke="#29C770"
       stroke-width="0.47166"
       id="path93" />
    <path
       d="M277.263 88.5719H267.358C266.837 88.5719 266.415 88.9942 266.415 89.5152C266.415 90.0362 266.837 90.4585 267.358 90.4585H277.263C277.784 90.4585 278.206 90.0362 278.206 89.5152C278.206 88.9942 277.784 88.5719 277.263 88.5719Z"
       fill="#29C770"
       fill-opacity="0.6"
       stroke="#29C770"
       stroke-width="0.47166"
       id="path94" />
    <path
       d="M269.691 90.4585H274.931C275.748 90.4585 276.442 91.0564 276.563 91.8645L277.412 97.5244C277.562 98.5224 276.789 99.4201 275.78 99.4201H268.842C267.832 99.4201 267.059 98.5224 267.209 97.5244L268.058 91.8645C268.179 91.0564 268.873 90.4585 269.691 90.4585Z"
       fill="#29C770"
       fill-opacity="0.4"
       stroke="#29C770"
       stroke-width="0.47166"
       id="path95" />
    <path
       d="M267.358 121.116H277.263C277.784 121.116 278.206 120.694 278.206 120.173C278.206 119.652 277.784 119.23 277.263 119.23H267.358C266.837 119.23 266.415 119.652 266.415 120.173C266.415 120.694 266.837 121.116 267.358 121.116Z"
       fill="#29C770"
       fill-opacity="0.6"
       stroke="#29C770"
       stroke-width="0.47166"
       id="path96" />
    <path
       d="M274.931 119.23H269.691C268.873 119.23 268.179 118.632 268.058 117.824L267.209 112.164C267.059 111.166 267.832 110.268 268.842 110.268H275.78C276.789 110.268 277.562 111.166 277.412 112.164L276.563 117.824C276.442 118.632 275.748 119.23 274.931 119.23Z"
       fill="#29C770"
       fill-opacity="0.4"
       stroke="#29C770"
       stroke-width="0.47166"
       id="path97" />
    <path
       d="M252.737 121.116H262.642C263.163 121.116 263.585 120.694 263.585 120.173C263.585 119.652 263.163 119.23 262.642 119.23H252.737C252.216 119.23 251.794 119.652 251.794 120.173C251.794 120.694 252.216 121.116 252.737 121.116Z"
       fill="#29C770"
       fill-opacity="0.6"
       stroke="#29C770"
       stroke-width="0.47166"
       id="path98" />
    <path
       d="M260.309 119.23H255.069C254.252 119.23 253.558 118.632 253.437 117.824L252.588 112.164C252.438 111.166 253.211 110.268 254.22 110.268H261.158C262.168 110.268 262.941 111.166 262.791 112.164L261.942 117.824C261.821 118.632 261.127 119.23 260.309 119.23Z"
       fill="#29C770"
       fill-opacity="0.4"
       stroke="#29C770"
       stroke-width="0.47166"
       id="path99" />
    <path
       d="M244.719 99.8917V109.797C244.719 110.318 245.141 110.74 245.662 110.74C246.183 110.74 246.605 110.318 246.605 109.797V99.8917C246.605 99.3708 246.183 98.9484 245.662 98.9484C245.141 98.9484 244.719 99.3708 244.719 99.8917Z"
       fill="#29C770"
       fill-opacity="0.6"
       stroke="#29C770"
       stroke-width="0.47166"
       id="path100" />
    <path
       d="M246.605 107.464V102.224C246.605 101.407 247.203 100.713 248.011 100.591L253.671 99.7424C254.669 99.5927 255.567 100.366 255.567 101.375V108.313C255.567 109.323 254.669 110.096 253.671 109.946L248.011 109.097C247.203 108.976 246.605 108.281 246.605 107.464Z"
       fill="#29C770"
       fill-opacity="0.4"
       stroke="#29C770"
       stroke-width="0.47166"
       id="path101" />
    <path
       d="M285.281 99.8935V109.798C285.281 110.319 284.859 110.742 284.338 110.742C283.817 110.742 283.395 110.319 283.395 109.798V99.8935C283.395 99.3725 283.817 98.9502 284.338 98.9502C284.859 98.9502 285.281 99.3725 285.281 99.8935Z"
       fill="#29C770"
       fill-opacity="0.6"
       stroke="#29C770"
       stroke-width="0.47166"
       id="path102" />
    <path
       d="M283.395 107.466V102.226C283.395 101.409 282.797 100.714 281.989 100.593L276.329 99.7442C275.331 99.5945 274.433 100.368 274.433 101.377V108.315C274.433 109.324 275.331 110.097 276.329 109.948L281.989 109.099C282.797 108.977 283.395 108.283 283.395 107.466Z"
       fill="#29C770"
       fill-opacity="0.4"
       stroke="#29C770"
       stroke-width="0.47166"
       id="path103" />
    <path
       d="M248.256 93.996V115.692C248.256 116.734 249.101 117.579 250.143 117.579H279.857C280.899 117.579 281.744 116.734 281.744 115.692V93.996C281.744 92.954 280.899 92.1093 279.857 92.1093H250.143C249.101 92.1093 248.256 92.954 248.256 93.996Z"
       fill="#29C770"
       id="path104" />
    <path
       d="M264.699 109.119C264.114 109.119 263.597 109.016 263.148 108.808C262.702 108.598 262.354 108.31 262.104 107.943C261.854 107.574 261.73 107.153 261.733 106.682C261.73 106.312 261.803 105.972 261.95 105.659C262.098 105.344 262.3 105.081 262.555 104.871C262.814 104.658 263.102 104.523 263.42 104.466V104.415C263.003 104.307 262.67 104.072 262.423 103.712C262.176 103.348 262.054 102.935 262.057 102.472C262.054 102.028 262.166 101.632 262.393 101.283C262.621 100.933 262.933 100.658 263.331 100.456C263.732 100.254 264.188 100.153 264.699 100.153C265.205 100.153 265.656 100.254 266.054 100.456C266.452 100.658 266.764 100.933 266.991 101.283C267.222 101.632 267.338 102.028 267.341 102.472C267.338 102.935 267.212 103.348 266.962 103.712C266.714 104.072 266.386 104.307 265.977 104.415V104.466C266.293 104.523 266.577 104.658 266.83 104.871C267.082 105.081 267.284 105.344 267.435 105.659C267.585 105.972 267.662 106.312 267.665 106.682C267.662 107.153 267.534 107.574 267.281 107.943C267.031 108.31 266.683 108.598 266.237 108.808C265.794 109.016 265.281 109.119 264.699 109.119ZM264.699 108.182C265.094 108.182 265.435 108.118 265.722 107.99C266.009 107.862 266.23 107.682 266.386 107.449C266.543 107.216 266.622 106.943 266.625 106.631C266.622 106.301 266.537 106.01 266.369 105.757C266.202 105.504 265.973 105.305 265.683 105.161C265.396 105.016 265.068 104.943 264.699 104.943C264.327 104.943 263.994 105.016 263.702 105.161C263.412 105.305 263.183 105.504 263.016 105.757C262.851 106.01 262.77 106.301 262.773 106.631C262.77 106.943 262.845 107.216 262.999 107.449C263.155 107.682 263.378 107.862 263.668 107.99C263.957 108.118 264.301 108.182 264.699 108.182ZM264.699 104.04C265.011 104.04 265.288 103.977 265.53 103.852C265.774 103.727 265.966 103.553 266.105 103.328C266.244 103.104 266.315 102.841 266.318 102.54C266.315 102.244 266.246 101.987 266.109 101.768C265.973 101.547 265.784 101.376 265.543 101.257C265.301 101.135 265.02 101.074 264.699 101.074C264.372 101.074 264.087 101.135 263.842 101.257C263.598 101.376 263.409 101.547 263.276 101.768C263.142 101.987 263.077 102.244 263.08 102.54C263.077 102.841 263.143 103.104 263.28 103.328C263.419 103.553 263.611 103.727 263.855 103.852C264.099 103.977 264.381 104.04 264.699 104.04Z"
       fill="white"
       class="number"
       id="path208" />
  </g>
  <g
     id="table9">
    <path
       d="M382.204 88.5719H372.3C371.779 88.5719 371.356 88.9942 371.356 89.5152C371.356 90.0362 371.779 90.4585 372.3 90.4585H382.204C382.725 90.4585 383.148 90.0362 383.148 89.5152C383.148 88.9942 382.725 88.5719 382.204 88.5719Z"
       fill="#29C770"
       fill-opacity="0.6"
       stroke="#29C770"
       stroke-width="0.47166"
       id="path105" />
    <path
       d="M374.632 90.4585H379.872C380.689 90.4585 381.384 91.0564 381.505 91.8645L382.354 97.5244C382.503 98.5224 381.73 99.4201 380.721 99.4201H373.783C372.774 99.4201 372.001 98.5224 372.15 97.5244L372.999 91.8645C373.121 91.0564 373.815 90.4585 374.632 90.4585Z"
       fill="#29C770"
       fill-opacity="0.4"
       stroke="#29C770"
       stroke-width="0.47166"
       id="path106" />
    <path
       d="M396.826 88.5719H386.921C386.4 88.5719 385.978 88.9942 385.978 89.5152C385.978 90.0362 386.4 90.4585 386.921 90.4585H396.826C397.347 90.4585 397.769 90.0362 397.769 89.5152C397.769 88.9942 397.347 88.5719 396.826 88.5719Z"
       fill="#29C770"
       fill-opacity="0.6"
       stroke="#29C770"
       stroke-width="0.47166"
       id="path107" />
    <path
       d="M389.253 90.4585H394.494C395.311 90.4585 396.005 91.0564 396.126 91.8645L396.975 97.5244C397.125 98.5224 396.352 99.4201 395.343 99.4201H388.404C387.395 99.4201 386.622 98.5224 386.772 97.5244L387.621 91.8645C387.742 91.0564 388.436 90.4585 389.253 90.4585Z"
       fill="#29C770"
       fill-opacity="0.4"
       stroke="#29C770"
       stroke-width="0.47166"
       id="path108" />
    <path
       d="M386.921 121.116H396.826C397.347 121.116 397.769 120.694 397.769 120.173C397.769 119.652 397.347 119.23 396.826 119.23H386.921C386.4 119.23 385.978 119.652 385.978 120.173C385.978 120.694 386.4 121.116 386.921 121.116Z"
       fill="#29C770"
       fill-opacity="0.6"
       stroke="#29C770"
       stroke-width="0.47166"
       id="path109" />
    <path
       d="M394.494 119.23H389.253C388.436 119.23 387.742 118.632 387.621 117.824L386.772 112.164C386.622 111.166 387.395 110.268 388.404 110.268H395.343C396.352 110.268 397.125 111.166 396.975 112.164L396.126 117.824C396.005 118.632 395.311 119.23 394.494 119.23Z"
       fill="#29C770"
       fill-opacity="0.4"
       stroke="#29C770"
       stroke-width="0.47166"
       id="path110" />
    <path
       d="M372.3 121.116H382.204C382.725 121.116 383.148 120.694 383.148 120.173C383.148 119.652 382.725 119.23 382.204 119.23H372.3C371.779 119.23 371.356 119.652 371.356 120.173C371.356 120.694 371.779 121.116 372.3 121.116Z"
       fill="#29C770"
       fill-opacity="0.6"
       stroke="#29C770"
       stroke-width="0.47166"
       id="path111" />
    <path
       d="M379.872 119.23H374.632C373.815 119.23 373.121 118.632 372.999 117.824L372.15 112.164C372.001 111.166 372.774 110.268 373.783 110.268H380.721C381.73 110.268 382.503 111.166 382.354 112.164L381.505 117.824C381.384 118.632 380.689 119.23 379.872 119.23Z"
       fill="#29C770"
       fill-opacity="0.4"
       stroke="#29C770"
       stroke-width="0.47166"
       id="path112" />
    <path
       d="M364.281 99.8917V109.797C364.281 110.318 364.704 110.74 365.225 110.74C365.746 110.74 366.168 110.318 366.168 109.797V99.8917C366.168 99.3708 365.746 98.9484 365.225 98.9484C364.704 98.9484 364.281 99.3708 364.281 99.8917Z"
       fill="#29C770"
       fill-opacity="0.6"
       stroke="#29C770"
       stroke-width="0.47166"
       id="path113" />
    <path
       d="M366.168 107.464V102.224C366.168 101.407 366.766 100.713 367.574 100.591L373.234 99.7424C374.232 99.5927 375.13 100.366 375.13 101.375V108.313C375.13 109.323 374.232 110.096 373.234 109.946L367.574 109.097C366.766 108.976 366.168 108.281 366.168 107.464Z"
       fill="#29C770"
       fill-opacity="0.4"
       stroke="#29C770"
       stroke-width="0.47166"
       id="path114" />
    <path
       d="M404.844 99.8935V109.798C404.844 110.319 404.422 110.742 403.901 110.742C403.38 110.742 402.958 110.319 402.958 109.798V99.8935C402.958 99.3725 403.38 98.9502 403.901 98.9502C404.422 98.9502 404.844 99.3725 404.844 99.8935Z"
       fill="#29C770"
       fill-opacity="0.6"
       stroke="#29C770"
       stroke-width="0.47166"
       id="path115" />
    <path
       d="M402.958 107.466V102.226C402.958 101.409 402.36 100.714 401.552 100.593L395.892 99.7442C394.894 99.5945 393.996 100.368 393.996 101.377V108.315C393.996 109.324 394.894 110.097 395.892 109.948L401.552 109.099C402.36 108.977 402.958 108.283 402.958 107.466Z"
       fill="#29C770"
       fill-opacity="0.4"
       stroke="#29C770"
       stroke-width="0.47166"
       id="path116" />
    <path
       d="M367.819 93.996V115.692C367.819 116.734 368.664 117.579 369.705 117.579H399.42C400.462 117.579 401.307 116.734 401.307 115.692V93.996C401.307 92.954 400.462 92.1093 399.42 92.1093H369.705C368.664 92.1093 367.819 92.954 367.819 93.996Z"
       fill="#29C770"
       id="path117" />
    <path
       d="M384.682 100.153C385.04 100.156 385.398 100.224 385.756 100.358C386.114 100.491 386.44 100.713 386.736 101.023C387.031 101.33 387.268 101.749 387.447 102.28C387.626 102.811 387.716 103.477 387.716 104.278C387.716 105.054 387.642 105.743 387.494 106.345C387.349 106.945 387.139 107.45 386.864 107.862C386.591 108.274 386.259 108.587 385.866 108.8C385.477 109.013 385.037 109.119 384.545 109.119C384.057 109.119 383.621 109.023 383.237 108.83C382.857 108.634 382.544 108.362 382.3 108.016C382.058 107.666 381.903 107.261 381.835 106.801H382.875C382.969 107.202 383.155 107.533 383.433 107.794C383.714 108.053 384.085 108.182 384.545 108.182C385.219 108.182 385.75 107.888 386.139 107.3C386.531 106.712 386.727 105.881 386.727 104.807H386.659C386.5 105.045 386.311 105.251 386.092 105.425C385.874 105.598 385.631 105.732 385.364 105.825C385.097 105.919 384.813 105.966 384.511 105.966C384.011 105.966 383.553 105.842 383.135 105.595C382.72 105.345 382.388 105.003 382.138 104.568C381.891 104.131 381.767 103.631 381.767 103.068C381.767 102.534 381.886 102.045 382.125 101.602C382.366 101.156 382.705 100.801 383.139 100.537C383.577 100.273 384.091 100.145 384.682 100.153ZM384.682 101.091C384.324 101.091 384.001 101.18 383.714 101.359C383.43 101.536 383.205 101.774 383.037 102.075C382.872 102.374 382.79 102.705 382.79 103.068C382.79 103.432 382.869 103.763 383.028 104.061C383.19 104.357 383.411 104.592 383.689 104.768C383.97 104.942 384.29 105.028 384.648 105.028C384.918 105.028 385.169 104.976 385.402 104.871C385.635 104.763 385.838 104.616 386.011 104.432C386.188 104.244 386.325 104.033 386.425 103.797C386.524 103.558 386.574 103.31 386.574 103.051C386.574 102.71 386.491 102.391 386.327 102.092C386.165 101.794 385.94 101.553 385.653 101.368C385.369 101.183 385.045 101.091 384.682 101.091Z"
       fill="white"
       class="number"
       id="path209" />
  </g>
  <g
     id="table10">
    <path
       d="M516.389 102.486V92.581C516.389 92.06 515.966 91.6377 515.445 91.6377C514.924 91.6377 514.502 92.06 514.502 92.581V102.486C514.502 103.007 514.924 103.429 515.445 103.429C515.966 103.429 516.389 103.007 516.389 102.486Z"
       fill="#29C770"
       fill-opacity="0.6"
       stroke="#29C770"
       stroke-width="0.47166"
       id="path118" />
    <path
       d="M514.502 94.9132V100.154C514.502 100.971 513.904 101.665 513.096 101.786L507.436 102.635C506.438 102.785 505.541 102.012 505.541 101.003V94.0642C505.541 93.055 506.438 92.282 507.436 92.4317L513.096 93.2807C513.904 93.4019 514.502 94.0961 514.502 94.9132Z"
       fill="#29C770"
       fill-opacity="0.4"
       stroke="#29C770"
       stroke-width="0.47166"
       id="path119" />
    <path
       d="M516.389 117.107V107.202C516.389 106.681 515.966 106.259 515.445 106.259C514.924 106.259 514.502 106.681 514.502 107.202V117.107C514.502 117.628 514.924 118.051 515.445 118.051C515.966 118.051 516.389 117.628 516.389 117.107Z"
       fill="#29C770"
       fill-opacity="0.6"
       stroke="#29C770"
       stroke-width="0.47166"
       id="path120" />
    <path
       d="M514.502 109.535V114.775C514.502 115.592 513.904 116.286 513.096 116.408L507.436 117.257C506.438 117.406 505.541 116.633 505.541 115.624V108.686C505.541 107.676 506.438 106.903 507.436 107.053L513.096 107.902C513.904 108.023 514.502 108.718 514.502 109.535Z"
       fill="#29C770"
       fill-opacity="0.4"
       stroke="#29C770"
       stroke-width="0.47166"
       id="path121" />
    <path
       d="M483.844 107.202V117.107C483.844 117.628 484.267 118.051 484.787 118.051C485.308 118.051 485.731 117.628 485.731 117.107V107.202C485.731 106.681 485.308 106.259 484.787 106.259C484.267 106.259 483.844 106.681 483.844 107.202Z"
       fill="#29C770"
       fill-opacity="0.6"
       stroke="#29C770"
       stroke-width="0.47166"
       id="path122" />
    <path
       d="M485.731 114.775V109.535C485.731 108.718 486.329 108.023 487.137 107.902L492.797 107.053C493.795 106.903 494.692 107.676 494.692 108.686V115.624C494.692 116.633 493.795 117.406 492.797 117.257L487.137 116.408C486.329 116.286 485.731 115.592 485.731 114.775Z"
       fill="#29C770"
       fill-opacity="0.4"
       stroke="#29C770"
       stroke-width="0.47166"
       id="path123" />
    <path
       d="M483.844 92.581V102.486C483.844 103.007 484.267 103.429 484.787 103.429C485.308 103.429 485.731 103.007 485.731 102.486V92.581C485.731 92.06 485.308 91.6377 484.787 91.6377C484.267 91.6377 483.844 92.06 483.844 92.581Z"
       fill="#29C770"
       fill-opacity="0.6"
       stroke="#29C770"
       stroke-width="0.47166"
       id="path124" />
    <path
       d="M485.731 100.154V94.9132C485.731 94.0961 486.329 93.4019 487.137 93.2807L492.797 92.4317C493.795 92.282 494.692 93.055 494.692 94.0643V101.003C494.692 102.012 493.795 102.785 492.797 102.635L487.137 101.786C486.329 101.665 485.731 100.971 485.731 100.154Z"
       fill="#29C770"
       fill-opacity="0.4"
       stroke="#29C770"
       stroke-width="0.47166"
       id="path125" />
    <path
       d="M505.069 84.5628H495.164C494.643 84.5628 494.221 84.9851 494.221 85.5061C494.221 86.0271 494.643 86.4494 495.164 86.4494H505.069C505.59 86.4494 506.012 86.0271 506.012 85.5061C506.012 84.9851 505.59 84.5628 505.069 84.5628Z"
       fill="#29C770"
       fill-opacity="0.6"
       stroke="#29C770"
       stroke-width="0.47166"
       id="path126" />
    <path
       d="M497.496 86.4494H502.737C503.554 86.4494 504.248 87.0472 504.369 87.8553L505.218 93.5153C505.368 94.5133 504.595 95.411 503.586 95.411H496.647C495.638 95.411 494.865 94.5133 495.015 93.5153L495.864 87.8553C495.985 87.0472 496.679 86.4494 497.496 86.4494Z"
       fill="#29C770"
       fill-opacity="0.4"
       stroke="#29C770"
       stroke-width="0.47166"
       id="path127" />
    <path
       d="M505.067 125.126H495.162C494.641 125.126 494.219 124.703 494.219 124.182C494.219 123.661 494.641 123.239 495.162 123.239H505.067C505.588 123.239 506.01 123.661 506.01 124.182C506.01 124.703 505.588 125.126 505.067 125.126Z"
       fill="#29C770"
       fill-opacity="0.6"
       stroke="#29C770"
       stroke-width="0.47166"
       id="path128" />
    <path
       d="M497.494 123.239H502.735C503.552 123.239 504.246 122.641 504.367 121.833L505.216 116.173C505.366 115.175 504.593 114.277 503.584 114.277H496.646C495.636 114.277 494.863 115.175 495.013 116.173L495.862 121.833C495.983 122.641 496.677 123.239 497.494 123.239Z"
       fill="#29C770"
       fill-opacity="0.4"
       stroke="#29C770"
       stroke-width="0.47166"
       id="path129" />
    <path
       d="M510.965 88.1002H489.268C488.226 88.1002 487.382 88.9449 487.382 89.9869V119.701C487.382 120.743 488.226 121.588 489.268 121.588H510.965C512.007 121.588 512.851 120.743 512.851 119.701V89.9869C512.851 88.9449 512.007 88.1002 510.965 88.1002Z"
       fill="#29C770"
       id="path130" />
    <path
       d="M496.972 100.273V109H495.915V101.381H495.864L493.733 102.795V101.722L495.915 100.273H496.972ZM502.328 109.119C501.686 109.119 501.139 108.945 500.688 108.595C500.236 108.243 499.891 107.733 499.652 107.065C499.413 106.395 499.294 105.585 499.294 104.636C499.294 103.693 499.413 102.888 499.652 102.22C499.893 101.55 500.24 101.038 500.692 100.686C501.146 100.331 501.692 100.153 502.328 100.153C502.964 100.153 503.509 100.331 503.96 100.686C504.415 101.038 504.761 101.55 505 102.22C505.241 102.888 505.362 103.693 505.362 104.636C505.362 105.585 505.243 106.395 505.004 107.065C504.766 107.733 504.42 108.243 503.969 108.595C503.517 108.945 502.97 109.119 502.328 109.119ZM502.328 108.182C502.964 108.182 503.459 107.875 503.811 107.261C504.163 106.648 504.339 105.773 504.339 104.636C504.339 103.881 504.259 103.237 504.097 102.706C503.938 102.175 503.707 101.77 503.406 101.491C503.108 101.213 502.749 101.074 502.328 101.074C501.697 101.074 501.205 101.385 500.849 102.007C500.494 102.626 500.317 103.503 500.317 104.636C500.317 105.392 500.396 106.034 500.555 106.562C500.714 107.091 500.943 107.493 501.241 107.768C501.543 108.044 501.905 108.182 502.328 108.182Z"
       fill="white"
       class="number"
       id="path210" />
  </g>
  <g
     id="table11">
    <path
       d="M46.1558 175.049V165.144C46.1558 164.623 45.7335 164.2 45.2125 164.2C44.6915 164.2 44.2692 164.623 44.2692 165.144V175.049C44.2692 175.57 44.6915 175.992 45.2125 175.992C45.7335 175.992 46.1558 175.57 46.1558 175.049Z"
       fill="#29C770"
       fill-opacity="0.6"
       stroke="#29C770"
       stroke-width="0.47166"
       id="path131" />
    <path
       d="M44.2692 167.476V172.716C44.2692 173.534 43.6714 174.228 42.8633 174.349L37.2034 175.198C36.2053 175.348 35.3077 174.575 35.3077 173.565V166.627C35.3077 165.618 36.2053 164.845 37.2034 164.994L42.8633 165.843C43.6714 165.965 44.2692 166.659 44.2692 167.476Z"
       fill="#29C770"
       fill-opacity="0.4"
       stroke="#29C770"
       stroke-width="0.47166"
       id="path132" />
    <path
       d="M46.1558 189.67V179.765C46.1558 179.244 45.7335 178.822 45.2125 178.822C44.6915 178.822 44.2692 179.244 44.2692 179.765V189.67C44.2692 190.191 44.6915 190.613 45.2125 190.613C45.7335 190.613 46.1558 190.191 46.1558 189.67Z"
       fill="#29C770"
       fill-opacity="0.6"
       stroke="#29C770"
       stroke-width="0.47166"
       id="path133" />
    <path
       d="M44.2692 182.097V187.338C44.2692 188.155 43.6714 188.849 42.8633 188.97L37.2034 189.819C36.2053 189.969 35.3077 189.196 35.3077 188.187V181.248C35.3077 180.239 36.2053 179.466 37.2034 179.616L42.8633 180.465C43.6714 180.586 44.2692 181.28 44.2692 182.097Z"
       fill="#29C770"
       fill-opacity="0.4"
       stroke="#29C770"
       stroke-width="0.47166"
       id="path134" />
    <path
       d="M13.6113 179.765L13.6113 189.67C13.6113 190.191 14.0336 190.613 14.5546 190.613C15.0756 190.613 15.4979 190.191 15.4979 189.67L15.4979 179.765C15.4979 179.244 15.0756 178.822 14.5546 178.822C14.0336 178.822 13.6113 179.244 13.6113 179.765Z"
       fill="#29C770"
       fill-opacity="0.6"
       stroke="#29C770"
       stroke-width="0.47166"
       id="path135" />
    <path
       d="M15.4979 187.338V182.097C15.4979 181.28 16.0958 180.586 16.9039 180.465L22.5638 179.616C23.5619 179.466 24.4595 180.239 24.4595 181.248V188.187C24.4595 189.196 23.5619 189.969 22.5638 189.819L16.9039 188.97C16.0958 188.849 15.4979 188.155 15.4979 187.338Z"
       fill="#29C770"
       fill-opacity="0.4"
       stroke="#29C770"
       stroke-width="0.47166"
       id="path136" />
    <path
       d="M13.6113 165.144L13.6113 175.049C13.6113 175.57 14.0336 175.992 14.5546 175.992C15.0756 175.992 15.4979 175.57 15.4979 175.049L15.4979 165.144C15.4979 164.623 15.0756 164.2 14.5546 164.2C14.0336 164.2 13.6113 164.623 13.6113 165.144Z"
       fill="#29C770"
       fill-opacity="0.6"
       stroke="#29C770"
       stroke-width="0.47166"
       id="path137" />
    <path
       d="M15.4979 172.716V167.476C15.4979 166.659 16.0958 165.965 16.9039 165.843L22.5638 164.994C23.5619 164.845 24.4595 165.618 24.4595 166.627V173.565C24.4595 174.575 23.5619 175.348 22.5638 175.198L16.9039 174.349C16.0958 174.228 15.4979 173.534 15.4979 172.716Z"
       fill="#29C770"
       fill-opacity="0.4"
       stroke="#29C770"
       stroke-width="0.47166"
       id="path138" />
    <path
       d="M34.836 157.126H24.9311C24.4101 157.126 23.9878 157.548 23.9878 158.069C23.9878 158.59 24.4101 159.012 24.9311 159.012H34.836C35.357 159.012 35.7793 158.59 35.7793 158.069C35.7793 157.548 35.357 157.126 34.836 157.126Z"
       fill="#29C770"
       fill-opacity="0.6"
       stroke="#29C770"
       stroke-width="0.47166"
       id="path139" />
    <path
       d="M27.2633 159.012H32.5037C33.3209 159.012 34.015 159.61 34.1363 160.418L34.9852 166.078C35.1349 167.076 34.3619 167.974 33.3527 167.974H26.4144C25.4051 167.974 24.6321 167.076 24.7818 166.078L25.6308 160.418C25.752 159.61 26.4462 159.012 27.2633 159.012Z"
       fill="#29C770"
       fill-opacity="0.4"
       stroke="#29C770"
       stroke-width="0.47166"
       id="path140" />
    <path
       d="M34.8342 197.688H24.9294C24.4084 197.688 23.9861 197.266 23.9861 196.745C23.9861 196.224 24.4084 195.802 24.9294 195.802H34.8342C35.3552 195.802 35.7776 196.224 35.7776 196.745C35.7776 197.266 35.3552 197.688 34.8342 197.688Z"
       fill="#29C770"
       fill-opacity="0.6"
       stroke="#29C770"
       stroke-width="0.47166"
       id="path141" />
    <path
       d="M27.2616 195.802H32.502C33.3191 195.802 34.0133 195.204 34.1345 194.396L34.9835 188.736C35.1332 187.738 34.3602 186.84 33.351 186.84H26.4126C25.4034 186.84 24.6304 187.738 24.7801 188.736L25.6291 194.396C25.7503 195.204 26.4445 195.802 27.2616 195.802Z"
       fill="#29C770"
       fill-opacity="0.4"
       stroke="#29C770"
       stroke-width="0.47166"
       id="path142" />
    <path
       d="M40.7317 160.663H19.0354C17.9934 160.663 17.1487 161.508 17.1487 162.55L17.1487 192.264C17.1487 193.306 17.9934 194.151 19.0354 194.151H40.7317C41.7737 194.151 42.6184 193.306 42.6184 192.264V162.55C42.6184 161.508 41.7737 160.663 40.7317 160.663Z"
       fill="#29C770"
       id="path143" />
    <path
       d="M27.9716 172.273V181H26.9148V173.381H26.8636L24.733 174.795V173.722L26.9148 172.273H27.9716ZM33.5497 172.273V181H32.4929V173.381H32.4418L30.3111 174.795V173.722L32.4929 172.273H33.5497Z"
       fill="white"
       class="number"
       id="path211" />
  </g>
  <g
     id="table12">
    <path
       d="M143.079 161.135H133.174C132.653 161.135 132.231 161.557 132.231 162.078C132.231 162.599 132.653 163.021 133.174 163.021H143.079C143.6 163.021 144.022 162.599 144.022 162.078C144.022 161.557 143.6 161.135 143.079 161.135Z"
       fill="#29C770"
       fill-opacity="0.6"
       stroke="#29C770"
       stroke-width="0.47166"
       id="path144" />
    <path
       d="M135.506 163.021H140.747C141.564 163.021 142.258 163.619 142.379 164.427L143.228 170.087C143.378 171.085 142.605 171.983 141.596 171.983H134.657C133.648 171.983 132.875 171.085 133.025 170.087L133.874 164.427C133.995 163.619 134.689 163.021 135.506 163.021Z"
       fill="#29C770"
       fill-opacity="0.4"
       stroke="#29C770"
       stroke-width="0.47166"
       id="path145" />
    <path
       d="M157.7 161.135H147.795C147.275 161.135 146.852 161.557 146.852 162.078C146.852 162.599 147.275 163.021 147.795 163.021H157.7C158.221 163.021 158.644 162.599 158.644 162.078C158.644 161.557 158.221 161.135 157.7 161.135Z"
       fill="#29C770"
       fill-opacity="0.6"
       stroke="#29C770"
       stroke-width="0.47166"
       id="path146" />
    <path
       d="M150.128 163.021H155.368C156.185 163.021 156.879 163.619 157.001 164.427L157.85 170.087C157.999 171.085 157.226 171.983 156.217 171.983H149.279C148.27 171.983 147.497 171.085 147.646 170.087L148.495 164.427C148.616 163.619 149.311 163.021 150.128 163.021Z"
       fill="#29C770"
       fill-opacity="0.4"
       stroke="#29C770"
       stroke-width="0.47166"
       id="path147" />
    <path
       d="M147.796 193.679H157.7C158.221 193.679 158.644 193.257 158.644 192.736C158.644 192.215 158.221 191.793 157.7 191.793H147.796C147.275 191.793 146.852 192.215 146.852 192.736C146.852 193.257 147.275 193.679 147.796 193.679Z"
       fill="#29C770"
       fill-opacity="0.6"
       stroke="#29C770"
       stroke-width="0.47166"
       id="path148" />
    <path
       d="M155.368 191.793H150.128C149.311 191.793 148.616 191.195 148.495 190.387L147.646 184.727C147.497 183.729 148.27 182.831 149.279 182.831H156.217C157.226 182.831 157.999 183.729 157.85 184.727L157.001 190.387C156.879 191.195 156.185 191.793 155.368 191.793Z"
       fill="#29C770"
       fill-opacity="0.4"
       stroke="#29C770"
       stroke-width="0.47166"
       id="path149" />
    <path
       d="M133.174 193.679H143.079C143.6 193.679 144.022 193.257 144.022 192.736C144.022 192.215 143.6 191.793 143.079 191.793H133.174C132.653 191.793 132.231 192.215 132.231 192.736C132.231 193.257 132.653 193.679 133.174 193.679Z"
       fill="#29C770"
       fill-opacity="0.6"
       stroke="#29C770"
       stroke-width="0.47166"
       id="path150" />
    <path
       d="M140.747 191.793H135.506C134.689 191.793 133.995 191.195 133.874 190.387L133.025 184.727C132.875 183.729 133.648 182.831 134.657 182.831H141.596C142.605 182.831 143.378 183.729 143.228 184.727L142.379 190.387C142.258 191.195 141.564 191.793 140.747 191.793Z"
       fill="#29C770"
       fill-opacity="0.4"
       stroke="#29C770"
       stroke-width="0.47166"
       id="path151" />
    <path
       d="M125.156 172.455V182.359C125.156 182.88 125.578 183.303 126.099 183.303C126.62 183.303 127.042 182.88 127.042 182.359V172.455C127.042 171.934 126.62 171.511 126.099 171.511C125.578 171.511 125.156 171.934 125.156 172.455Z"
       fill="#29C770"
       fill-opacity="0.6"
       stroke="#29C770"
       stroke-width="0.47166"
       id="path152" />
    <path
       d="M127.042 180.027V174.787C127.042 173.97 127.64 173.275 128.448 173.154L134.108 172.305C135.106 172.156 136.004 172.929 136.004 173.938V180.876C136.004 181.885 135.106 182.658 134.108 182.509L128.448 181.66C127.64 181.538 127.042 180.844 127.042 180.027Z"
       fill="#29C770"
       fill-opacity="0.4"
       stroke="#29C770"
       stroke-width="0.47166"
       id="path153" />
    <path
       d="M165.719 172.456V182.361C165.719 182.882 165.296 183.304 164.775 183.304C164.254 183.304 163.832 182.882 163.832 182.361V172.456C163.832 171.935 164.254 171.513 164.775 171.513C165.296 171.513 165.719 171.935 165.719 172.456Z"
       fill="#29C770"
       fill-opacity="0.6"
       stroke="#29C770"
       stroke-width="0.47166"
       id="path154" />
    <path
       d="M163.832 180.029V174.788C163.832 173.971 163.234 173.277 162.426 173.156L156.766 172.307C155.768 172.157 154.87 172.93 154.87 173.939V180.878C154.87 181.887 155.768 182.66 156.766 182.51L162.426 181.661C163.234 181.54 163.832 180.846 163.832 180.029Z"
       fill="#29C770"
       fill-opacity="0.4"
       stroke="#29C770"
       stroke-width="0.47166"
       id="path155" />
    <path
       d="M128.693 166.559V188.255C128.693 189.297 129.538 190.142 130.58 190.142H160.294C161.336 190.142 162.181 189.297 162.181 188.255V166.559C162.181 165.517 161.336 164.672 160.294 164.672H130.58C129.538 164.672 128.693 165.517 128.693 166.559Z"
       fill="#29C770"
       id="path156" />
    <path
       d="M142.972 172.273V181H141.915V173.381H141.864L139.733 174.795V173.722L141.915 172.273H142.972ZM145.482 181V180.233L148.362 177.08C148.7 176.71 148.979 176.389 149.197 176.116C149.416 175.841 149.578 175.582 149.683 175.341C149.791 175.097 149.845 174.841 149.845 174.574C149.845 174.267 149.771 174.001 149.624 173.777C149.479 173.553 149.28 173.379 149.027 173.257C148.774 173.135 148.49 173.074 148.175 173.074C147.839 173.074 147.547 173.143 147.297 173.283C147.05 173.419 146.858 173.611 146.722 173.858C146.588 174.105 146.521 174.395 146.521 174.727H145.516C145.516 174.216 145.634 173.767 145.869 173.381C146.105 172.994 146.426 172.693 146.832 172.477C147.241 172.261 147.7 172.153 148.209 172.153C148.72 172.153 149.173 172.261 149.568 172.477C149.963 172.693 150.273 172.984 150.497 173.351C150.722 173.717 150.834 174.125 150.834 174.574C150.834 174.895 150.776 175.209 150.659 175.516C150.545 175.82 150.347 176.159 150.062 176.534C149.781 176.906 149.391 177.361 148.891 177.898L146.93 179.994V180.062H150.987V181H145.482Z"
       fill="white"
       class="number"
       id="path212" />
  </g>
  <g
     id="table13">
    <path
       d="M262.642 161.135H252.737C252.216 161.135 251.794 161.557 251.794 162.078C251.794 162.599 252.216 163.021 252.737 163.021H262.642C263.163 163.021 263.585 162.599 263.585 162.078C263.585 161.557 263.163 161.135 262.642 161.135Z"
       fill="#29C770"
       fill-opacity="0.6"
       stroke="#29C770"
       stroke-width="0.47166"
       id="path157" />
    <path
       d="M255.069 163.021H260.309C261.127 163.021 261.821 163.619 261.942 164.427L262.791 170.087C262.941 171.085 262.168 171.983 261.158 171.983H254.22C253.211 171.983 252.438 171.085 252.588 170.087L253.437 164.427C253.558 163.619 254.252 163.021 255.069 163.021Z"
       fill="#29C770"
       fill-opacity="0.4"
       stroke="#29C770"
       stroke-width="0.47166"
       id="path158" />
    <path
       d="M277.263 161.135H267.358C266.837 161.135 266.415 161.557 266.415 162.078C266.415 162.599 266.837 163.021 267.358 163.021H277.263C277.784 163.021 278.206 162.599 278.206 162.078C278.206 161.557 277.784 161.135 277.263 161.135Z"
       fill="#29C770"
       fill-opacity="0.6"
       stroke="#29C770"
       stroke-width="0.47166"
       id="path159" />
    <path
       d="M269.69 163.021H274.931C275.748 163.021 276.442 163.619 276.563 164.427L277.412 170.087C277.562 171.085 276.789 171.983 275.78 171.983H268.842C267.832 171.983 267.059 171.085 267.209 170.087L268.058 164.427C268.179 163.619 268.873 163.021 269.69 163.021Z"
       fill="#29C770"
       fill-opacity="0.4"
       stroke="#29C770"
       stroke-width="0.47166"
       id="path160" />
    <path
       d="M267.358 193.679H277.263C277.784 193.679 278.206 193.257 278.206 192.736C278.206 192.215 277.784 191.793 277.263 191.793H267.358C266.837 191.793 266.415 192.215 266.415 192.736C266.415 193.257 266.837 193.679 267.358 193.679Z"
       fill="#29C770"
       fill-opacity="0.6"
       stroke="#29C770"
       stroke-width="0.47166"
       id="path161" />
    <path
       d="M274.931 191.793H269.69C268.873 191.793 268.179 191.195 268.058 190.387L267.209 184.727C267.059 183.729 267.832 182.831 268.842 182.831H275.78C276.789 182.831 277.562 183.729 277.412 184.727L276.563 190.387C276.442 191.195 275.748 191.793 274.931 191.793Z"
       fill="#29C770"
       fill-opacity="0.4"
       stroke="#29C770"
       stroke-width="0.47166"
       id="path162" />
    <path
       d="M252.737 193.679H262.642C263.163 193.679 263.585 193.257 263.585 192.736C263.585 192.215 263.163 191.793 262.642 191.793H252.737C252.216 191.793 251.794 192.215 251.794 192.736C251.794 193.257 252.216 193.679 252.737 193.679Z"
       fill="#29C770"
       fill-opacity="0.6"
       stroke="#29C770"
       stroke-width="0.47166"
       id="path163" />
    <path
       d="M260.309 191.793H255.069C254.252 191.793 253.558 191.195 253.437 190.387L252.588 184.727C252.438 183.729 253.211 182.831 254.22 182.831H261.158C262.168 182.831 262.941 183.729 262.791 184.727L261.942 190.387C261.821 191.195 261.127 191.793 260.309 191.793Z"
       fill="#29C770"
       fill-opacity="0.4"
       stroke="#29C770"
       stroke-width="0.47166"
       id="path164" />
    <path
       d="M244.719 172.455V182.359C244.719 182.88 245.141 183.303 245.662 183.303C246.183 183.303 246.605 182.88 246.605 182.359V172.455C246.605 171.934 246.183 171.511 245.662 171.511C245.141 171.511 244.719 171.934 244.719 172.455Z"
       fill="#29C770"
       fill-opacity="0.6"
       stroke="#29C770"
       stroke-width="0.47166"
       id="path165" />
    <path
       d="M246.605 180.027V174.787C246.605 173.97 247.203 173.275 248.011 173.154L253.671 172.305C254.669 172.156 255.567 172.929 255.567 173.938V180.876C255.567 181.885 254.669 182.658 253.671 182.509L248.011 181.66C247.203 181.538 246.605 180.844 246.605 180.027Z"
       fill="#29C770"
       fill-opacity="0.4"
       stroke="#29C770"
       stroke-width="0.47166"
       id="path166" />
    <path
       d="M285.281 172.456V182.361C285.281 182.882 284.859 183.304 284.338 183.304C283.817 183.304 283.395 182.882 283.395 182.361V172.456C283.395 171.935 283.817 171.513 284.338 171.513C284.859 171.513 285.281 171.935 285.281 172.456Z"
       fill="#29C770"
       fill-opacity="0.6"
       stroke="#29C770"
       stroke-width="0.47166"
       id="path167" />
    <path
       d="M283.395 180.029V174.788C283.395 173.971 282.797 173.277 281.989 173.156L276.329 172.307C275.331 172.157 274.433 172.93 274.433 173.939V180.878C274.433 181.887 275.331 182.66 276.329 182.51L281.989 181.661C282.797 181.54 283.395 180.846 283.395 180.029Z"
       fill="#29C770"
       fill-opacity="0.4"
       stroke="#29C770"
       stroke-width="0.47166"
       id="path168" />
    <path
       d="M248.256 166.559V188.255C248.256 189.297 249.101 190.142 250.143 190.142H279.857C280.899 190.142 281.744 189.297 281.744 188.255V166.559C281.744 165.517 280.899 164.672 279.857 164.672H250.143C249.101 164.672 248.256 165.517 248.256 166.559Z"
       fill="#29C770"
       id="path169" />
    <path
       d="M261.972 172.273V181H260.915V173.381H260.864L258.733 174.795V173.722L260.915 172.273H261.972ZM267.43 181.119C266.868 181.119 266.366 181.023 265.926 180.83C265.489 180.636 265.141 180.368 264.882 180.024C264.626 179.678 264.487 179.276 264.464 178.818H265.538C265.561 179.099 265.658 179.342 265.828 179.547C265.999 179.749 266.222 179.905 266.497 180.016C266.773 180.126 267.078 180.182 267.413 180.182C267.788 180.182 268.121 180.116 268.411 179.986C268.7 179.855 268.928 179.673 269.092 179.44C269.257 179.207 269.339 178.938 269.339 178.631C269.339 178.31 269.26 178.027 269.101 177.783C268.942 177.536 268.709 177.342 268.402 177.203C268.095 177.064 267.72 176.994 267.277 176.994H266.578V176.057H267.277C267.624 176.057 267.928 175.994 268.189 175.869C268.453 175.744 268.659 175.568 268.807 175.341C268.957 175.114 269.033 174.847 269.033 174.54C269.033 174.244 268.967 173.987 268.837 173.768C268.706 173.55 268.521 173.379 268.283 173.257C268.047 173.135 267.768 173.074 267.447 173.074C267.146 173.074 266.862 173.129 266.595 173.24C266.331 173.348 266.115 173.506 265.947 173.713C265.78 173.918 265.689 174.165 265.675 174.455H264.652C264.669 173.997 264.807 173.597 265.065 173.253C265.324 172.906 265.662 172.636 266.08 172.443C266.5 172.25 266.962 172.153 267.464 172.153C268.004 172.153 268.467 172.263 268.854 172.482C269.24 172.697 269.537 172.983 269.744 173.338C269.952 173.693 270.055 174.077 270.055 174.489C270.055 174.98 269.926 175.399 269.668 175.746C269.412 176.092 269.064 176.332 268.624 176.466V176.534C269.175 176.625 269.605 176.859 269.915 177.237C270.224 177.612 270.379 178.077 270.379 178.631C270.379 179.105 270.25 179.531 269.991 179.909C269.736 180.284 269.386 180.58 268.943 180.795C268.5 181.011 267.996 181.119 267.43 181.119Z"
       fill="white"
       class="number"
       id="path213" />
  </g>
  <g
     id="table14">
    <path
       d="M382.204 161.135H372.3C371.779 161.135 371.356 161.557 371.356 162.078C371.356 162.599 371.779 163.021 372.3 163.021H382.204C382.725 163.021 383.148 162.599 383.148 162.078C383.148 161.557 382.725 161.135 382.204 161.135Z"
       fill="#29C770"
       fill-opacity="0.6"
       stroke="#29C770"
       stroke-width="0.47166"
       id="path170" />
    <path
       d="M374.632 163.021H379.872C380.689 163.021 381.384 163.619 381.505 164.427L382.354 170.087C382.503 171.085 381.73 171.983 380.721 171.983H373.783C372.774 171.983 372.001 171.085 372.15 170.087L372.999 164.427C373.121 163.619 373.815 163.021 374.632 163.021Z"
       fill="#29C770"
       fill-opacity="0.4"
       stroke="#29C770"
       stroke-width="0.47166"
       id="path171" />
    <path
       d="M396.826 161.135H386.921C386.4 161.135 385.978 161.557 385.978 162.078C385.978 162.599 386.4 163.021 386.921 163.021H396.826C397.347 163.021 397.769 162.599 397.769 162.078C397.769 161.557 397.347 161.135 396.826 161.135Z"
       fill="#29C770"
       fill-opacity="0.6"
       stroke="#29C770"
       stroke-width="0.47166"
       id="path172" />
    <path
       d="M389.253 163.021H394.494C395.311 163.021 396.005 163.619 396.126 164.427L396.975 170.087C397.125 171.085 396.352 171.983 395.343 171.983H388.404C387.395 171.983 386.622 171.085 386.772 170.087L387.621 164.427C387.742 163.619 388.436 163.021 389.253 163.021Z"
       fill="#29C770"
       fill-opacity="0.4"
       stroke="#29C770"
       stroke-width="0.47166"
       id="path173" />
    <path
       d="M386.921 193.679H396.826C397.347 193.679 397.769 193.257 397.769 192.736C397.769 192.215 397.347 191.793 396.826 191.793H386.921C386.4 191.793 385.978 192.215 385.978 192.736C385.978 193.257 386.4 193.679 386.921 193.679Z"
       fill="#29C770"
       fill-opacity="0.6"
       stroke="#29C770"
       stroke-width="0.47166"
       id="path174" />
    <path
       d="M394.494 191.793H389.253C388.436 191.793 387.742 191.195 387.621 190.387L386.772 184.727C386.622 183.729 387.395 182.831 388.404 182.831H395.343C396.352 182.831 397.125 183.729 396.975 184.727L396.126 190.387C396.005 191.195 395.311 191.793 394.494 191.793Z"
       fill="#29C770"
       fill-opacity="0.4"
       stroke="#29C770"
       stroke-width="0.47166"
       id="path175" />
    <path
       d="M372.3 193.679H382.204C382.725 193.679 383.148 193.257 383.148 192.736C383.148 192.215 382.725 191.793 382.204 191.793H372.3C371.779 191.793 371.356 192.215 371.356 192.736C371.356 193.257 371.779 193.679 372.3 193.679Z"
       fill="#29C770"
       fill-opacity="0.6"
       stroke="#29C770"
       stroke-width="0.47166"
       id="path176" />
    <path
       d="M379.872 191.793H374.632C373.815 191.793 373.121 191.195 372.999 190.387L372.15 184.727C372.001 183.729 372.774 182.831 373.783 182.831H380.721C381.73 182.831 382.503 183.729 382.354 184.727L381.505 190.387C381.384 191.195 380.689 191.793 379.872 191.793Z"
       fill="#29C770"
       fill-opacity="0.4"
       stroke="#29C770"
       stroke-width="0.47166"
       id="path177" />
    <path
       d="M364.281 172.455V182.359C364.281 182.88 364.704 183.303 365.225 183.303C365.746 183.303 366.168 182.88 366.168 182.359V172.455C366.168 171.934 365.746 171.511 365.225 171.511C364.704 171.511 364.281 171.934 364.281 172.455Z"
       fill="#29C770"
       fill-opacity="0.6"
       stroke="#29C770"
       stroke-width="0.47166"
       id="path178" />
    <path
       d="M366.168 180.027V174.787C366.168 173.97 366.766 173.275 367.574 173.154L373.234 172.305C374.232 172.156 375.13 172.929 375.13 173.938V180.876C375.13 181.885 374.232 182.658 373.234 182.509L367.574 181.66C366.766 181.538 366.168 180.844 366.168 180.027Z"
       fill="#29C770"
       fill-opacity="0.4"
       stroke="#29C770"
       stroke-width="0.47166"
       id="path179" />
    <path
       d="M404.844 172.456V182.361C404.844 182.882 404.422 183.304 403.901 183.304C403.38 183.304 402.958 182.882 402.958 182.361V172.456C402.958 171.935 403.38 171.513 403.901 171.513C404.422 171.513 404.844 171.935 404.844 172.456Z"
       fill="#29C770"
       fill-opacity="0.6"
       stroke="#29C770"
       stroke-width="0.47166"
       id="path180" />
    <path
       d="M402.958 180.029V174.788C402.958 173.971 402.36 173.277 401.552 173.156L395.892 172.307C394.894 172.157 393.996 172.93 393.996 173.939V180.878C393.996 181.887 394.894 182.66 395.892 182.51L401.552 181.661C402.36 181.54 402.958 180.846 402.958 180.029Z"
       fill="#29C770"
       fill-opacity="0.4"
       stroke="#29C770"
       stroke-width="0.47166"
       id="path181" />
    <path
       d="M367.819 166.559V188.255C367.819 189.297 368.664 190.142 369.705 190.142H399.42C400.462 190.142 401.307 189.297 401.307 188.255V166.559C401.307 165.517 400.462 164.672 399.42 164.672H369.705C368.664 164.672 367.819 165.517 367.819 166.559Z"
       fill="#29C770"
       id="path182" />
    <path
       d="M381.972 172.273V181H380.915V173.381H380.864L378.733 174.795V173.722L380.915 172.273H381.972ZM384.277 179.21V178.341L388.112 172.273H388.743V173.619H388.317L385.419 178.205V178.273H390.584V179.21H384.277ZM388.385 181V178.946V178.541V172.273H389.391V181H388.385Z"
       fill="white"
       class="number"
       id="path214" />
  </g>
  <g
     id="table15">
    <path
       d="M516.389 175.049V165.144C516.389 164.623 515.966 164.2 515.445 164.2C514.924 164.2 514.502 164.623 514.502 165.144V175.049C514.502 175.57 514.924 175.992 515.445 175.992C515.966 175.992 516.389 175.57 516.389 175.049Z"
       fill="#29C770"
       fill-opacity="0.6"
       stroke="#29C770"
       stroke-width="0.47166"
       id="path183" />
    <path
       d="M514.502 167.476V172.716C514.502 173.534 513.904 174.228 513.096 174.349L507.436 175.198C506.438 175.348 505.541 174.575 505.541 173.565V166.627C505.541 165.618 506.438 164.845 507.436 164.994L513.096 165.843C513.904 165.965 514.502 166.659 514.502 167.476Z"
       fill="#29C770"
       fill-opacity="0.4"
       stroke="#29C770"
       stroke-width="0.47166"
       id="path184" />
    <path
       d="M516.389 189.67V179.765C516.389 179.244 515.966 178.822 515.445 178.822C514.924 178.822 514.502 179.244 514.502 179.765V189.67C514.502 190.191 514.924 190.613 515.445 190.613C515.966 190.613 516.389 190.191 516.389 189.67Z"
       fill="#29C770"
       fill-opacity="0.6"
       stroke="#29C770"
       stroke-width="0.47166"
       id="path185" />
    <path
       d="M514.502 182.097V187.338C514.502 188.155 513.904 188.849 513.096 188.97L507.436 189.819C506.438 189.969 505.541 189.196 505.541 188.187V181.248C505.541 180.239 506.438 179.466 507.436 179.616L513.096 180.465C513.904 180.586 514.502 181.28 514.502 182.097Z"
       fill="#29C770"
       fill-opacity="0.4"
       stroke="#29C770"
       stroke-width="0.47166"
       id="path186" />
    <path
       d="M483.844 179.765V189.67C483.844 190.191 484.267 190.613 484.787 190.613C485.308 190.613 485.731 190.191 485.731 189.67V179.765C485.731 179.244 485.308 178.822 484.787 178.822C484.267 178.822 483.844 179.244 483.844 179.765Z"
       fill="#29C770"
       fill-opacity="0.6"
       stroke="#29C770"
       stroke-width="0.47166"
       id="path187" />
    <path
       d="M485.731 187.338V182.097C485.731 181.28 486.329 180.586 487.137 180.465L492.797 179.616C493.795 179.466 494.692 180.239 494.692 181.248V188.187C494.692 189.196 493.795 189.969 492.797 189.819L487.137 188.97C486.329 188.849 485.731 188.155 485.731 187.338Z"
       fill="#29C770"
       fill-opacity="0.4"
       stroke="#29C770"
       stroke-width="0.47166"
       id="path188" />
    <path
       d="M483.844 165.144V175.049C483.844 175.57 484.267 175.992 484.787 175.992C485.308 175.992 485.731 175.57 485.731 175.049V165.144C485.731 164.623 485.308 164.2 484.787 164.2C484.267 164.2 483.844 164.623 483.844 165.144Z"
       fill="#29C770"
       fill-opacity="0.6"
       stroke="#29C770"
       stroke-width="0.47166"
       id="path189" />
    <path
       d="M485.731 172.716V167.476C485.731 166.659 486.329 165.965 487.137 165.843L492.797 164.994C493.795 164.845 494.692 165.618 494.692 166.627V173.565C494.692 174.575 493.795 175.348 492.797 175.198L487.137 174.349C486.329 174.228 485.731 173.534 485.731 172.716Z"
       fill="#29C770"
       fill-opacity="0.4"
       stroke="#29C770"
       stroke-width="0.47166"
       id="path190" />
    <path
       d="M505.069 157.126H495.164C494.643 157.126 494.221 157.548 494.221 158.069C494.221 158.59 494.643 159.012 495.164 159.012H505.069C505.59 159.012 506.012 158.59 506.012 158.069C506.012 157.548 505.59 157.126 505.069 157.126Z"
       fill="#29C770"
       fill-opacity="0.6"
       stroke="#29C770"
       stroke-width="0.47166"
       id="path191" />
    <path
       d="M497.496 159.012H502.737C503.554 159.012 504.248 159.61 504.369 160.418L505.218 166.078C505.368 167.076 504.595 167.974 503.586 167.974H496.647C495.638 167.974 494.865 167.076 495.015 166.078L495.864 160.418C495.985 159.61 496.679 159.012 497.496 159.012Z"
       fill="#29C770"
       fill-opacity="0.4"
       stroke="#29C770"
       stroke-width="0.47166"
       id="path192" />
    <path
       d="M505.067 197.688H495.162C494.641 197.688 494.219 197.266 494.219 196.745C494.219 196.224 494.641 195.802 495.162 195.802H505.067C505.588 195.802 506.01 196.224 506.01 196.745C506.01 197.266 505.588 197.688 505.067 197.688Z"
       fill="#29C770"
       fill-opacity="0.6"
       stroke="#29C770"
       stroke-width="0.47166"
       id="path193" />
    <path
       d="M497.494 195.802H502.735C503.552 195.802 504.246 195.204 504.367 194.396L505.216 188.736C505.366 187.738 504.593 186.84 503.584 186.84H496.646C495.636 186.84 494.863 187.738 495.013 188.736L495.862 194.396C495.983 195.204 496.677 195.802 497.494 195.802Z"
       fill="#29C770"
       fill-opacity="0.4"
       stroke="#29C770"
       stroke-width="0.47166"
       id="path194" />
    <path
       d="M510.965 160.663H489.268C488.226 160.663 487.382 161.508 487.382 162.55V192.264C487.382 193.306 488.226 194.151 489.268 194.151H510.965C512.007 194.151 512.851 193.306 512.851 192.264V162.55C512.851 161.508 512.007 160.663 510.965 160.663Z"
       fill="#29C770"
       id="path195" />
    <path
       d="M497.972 172.273V181H496.915V173.381H496.864L494.733 174.795V173.722L496.915 172.273H497.972ZM503.209 181.119C502.709 181.119 502.259 181.02 501.858 180.821C501.457 180.622 501.136 180.349 500.895 180.003C500.653 179.656 500.521 179.261 500.499 178.818H501.521C501.561 179.213 501.74 179.54 502.058 179.798C502.379 180.054 502.763 180.182 503.209 180.182C503.567 180.182 503.885 180.098 504.163 179.93C504.445 179.763 504.665 179.533 504.824 179.24C504.986 178.945 505.067 178.611 505.067 178.239C505.067 177.858 504.983 177.518 504.815 177.22C504.651 176.919 504.423 176.682 504.134 176.509C503.844 176.335 503.513 176.247 503.141 176.244C502.874 176.241 502.599 176.283 502.318 176.368C502.037 176.45 501.805 176.557 501.624 176.688L500.635 176.568L501.163 172.273H505.697V173.21H502.05L501.743 175.784H501.794C501.973 175.642 502.197 175.524 502.467 175.43C502.737 175.337 503.018 175.29 503.311 175.29C503.845 175.29 504.321 175.418 504.739 175.673C505.159 175.926 505.489 176.273 505.727 176.713C505.969 177.153 506.089 177.656 506.089 178.222C506.089 178.778 505.964 179.276 505.714 179.713C505.467 180.148 505.126 180.491 504.692 180.744C504.257 180.994 503.763 181.119 503.209 181.119Z"
       fill="white"
       class="number"
       id="path215" />
  </g>
</svg>
