<svg width="960" height="380" viewBox="0 0 960 380" fill="none" xmlns="http://www.w3.org/2000/svg">
<path d="M83.6031 54.1466V36.2234C83.6031 35.2806 82.838 34.5165 81.8945 34.5165C80.9508 34.5165 80.1857 35.2806 80.1857 36.2234V54.1466C80.1857 55.0893 80.9508 55.8535 81.8945 55.8535C82.838 55.8535 83.6031 55.0893 83.6031 54.1466Z" fill="#29C770" fill-opacity="0.6" stroke="#29C770" stroke-width="0.47166"/>
<path d="M80.1859 40.4436V49.9264C80.1859 51.405 79.1029 52.661 77.6392 52.8805L67.3873 54.4167C65.5794 54.6876 63.9536 53.2889 63.9536 51.4625V38.9073C63.9536 37.0811 65.5794 35.6824 67.3873 35.9533L77.6392 37.4896C79.1029 37.7089 80.1859 38.965 80.1859 40.4436Z" fill="#29C770" fill-opacity="0.4" stroke="#29C770" stroke-width="0.47166"/>
<path d="M83.6031 80.6043V62.6814C83.6031 61.7386 82.838 60.9744 81.8945 60.9744C80.9508 60.9744 80.1857 61.7386 80.1857 62.6814V80.6043C80.1857 81.5471 80.9508 82.3112 81.8945 82.3112C82.838 82.3112 83.6031 81.5471 83.6031 80.6043Z" fill="#29C770" fill-opacity="0.6" stroke="#29C770" stroke-width="0.47166"/>
<path d="M80.1859 66.9016V76.3842C80.1859 77.8627 79.1029 79.1189 77.6392 79.3382L67.3873 80.8745C65.5794 81.1454 63.9536 79.7466 63.9536 77.9205V65.3653C63.9536 63.5391 65.5794 62.1403 67.3873 62.4112L77.6392 63.9475C79.1029 64.1668 80.1859 65.423 80.1859 66.9016Z" fill="#29C770" fill-opacity="0.4" stroke="#29C770" stroke-width="0.47166"/>
<path d="M24.6546 62.6814V80.6043C24.6546 81.5471 25.4195 82.3114 26.3632 82.3114C27.3069 82.3114 28.0718 81.5471 28.0718 80.6043V62.6814C28.0718 61.7386 27.3069 60.9744 26.3632 60.9744C25.4195 60.9744 24.6546 61.7386 24.6546 62.6814Z" fill="#29C770" fill-opacity="0.6" stroke="#29C770" stroke-width="0.47166"/>
<path d="M28.0718 76.3842V66.9016C28.0718 65.423 29.1546 64.1668 30.6184 63.9475L40.8703 62.4112C42.6781 62.1403 44.304 63.5391 44.304 65.3655V77.9205C44.304 79.7466 42.6781 81.1454 40.8703 80.8745L30.6184 79.3382C29.1546 79.1189 28.0718 77.8627 28.0718 76.3842Z" fill="#29C770" fill-opacity="0.4" stroke="#29C770" stroke-width="0.47166"/>
<path d="M24.6546 36.2234V54.1466C24.6546 55.0893 25.4195 55.8535 26.3632 55.8535C27.3069 55.8535 28.0718 55.0893 28.0718 54.1466V36.2234C28.0718 35.2806 27.3069 34.5165 26.3632 34.5165C25.4195 34.5165 24.6546 35.2806 24.6546 36.2234Z" fill="#29C770" fill-opacity="0.6" stroke="#29C770" stroke-width="0.47166"/>
<path d="M28.0718 49.9264V40.4436C28.0718 38.965 29.1546 37.7089 30.6184 37.4896L40.8703 35.9533C42.6781 35.6824 44.304 37.0811 44.304 38.9075V51.4627C44.304 53.2889 42.6781 54.6876 40.8703 54.4167L30.6184 52.8805C29.1546 52.6611 28.0718 51.405 28.0718 49.9264Z" fill="#29C770" fill-opacity="0.4" stroke="#29C770" stroke-width="0.47166"/>
<path d="M63.0992 21.7143H45.1584C44.2147 21.7143 43.4498 22.4785 43.4498 23.4212C43.4498 24.364 44.2147 25.1281 45.1584 25.1281H63.0992C64.0429 25.1281 64.808 24.364 64.808 23.4212C64.808 22.4785 64.0429 21.7143 63.0992 21.7143Z" fill="#29C770" fill-opacity="0.6" stroke="#29C770" stroke-width="0.47166"/>
<path d="M49.3828 25.1281H58.8748C60.3548 25.1281 61.6123 26.21 61.8318 27.6723L63.3696 37.914C63.6407 39.7201 62.2406 41.3443 60.4126 41.3443H47.8449C46.017 41.3443 44.6168 39.7201 44.888 37.914L46.4258 27.6723C46.6453 26.21 47.9027 25.1281 49.3828 25.1281Z" fill="#29C770" fill-opacity="0.4" stroke="#29C770" stroke-width="0.47166"/>
<path d="M63.0961 95.1137H45.1551C44.2116 95.1137 43.4465 94.3493 43.4465 93.4066C43.4465 92.464 44.2116 91.6996 45.1551 91.6996H63.0961C64.0398 91.6996 64.8047 92.464 64.8047 93.4066C64.8047 94.3493 64.0398 95.1137 63.0961 95.1137Z" fill="#29C770" fill-opacity="0.6" stroke="#29C770" stroke-width="0.47166"/>
<path d="M49.3795 91.6996H58.8717C60.3518 91.6996 61.6092 90.6179 61.8287 89.1556L63.3665 78.9139C63.6377 77.1078 62.2375 75.4836 60.4095 75.4836H47.8419C46.0137 75.4836 44.6135 77.1078 44.8847 78.9139L46.4225 89.1556C46.6422 90.6179 47.8995 91.6996 49.3795 91.6996Z" fill="#29C770" fill-opacity="0.4" stroke="#29C770" stroke-width="0.47166"/>
<path d="M73.7784 28.1155H34.4792C32.592 28.1155 31.062 29.6438 31.062 31.5293V85.2986C31.062 87.1839 32.592 88.7125 34.4792 88.7125H73.7784C75.6658 88.7125 77.1956 87.1839 77.1956 85.2986V31.5293C77.1956 29.6438 75.6658 28.1155 73.7784 28.1155Z" fill="#29C770"/>
<path d="M56.0995 47.5411V63.3333H54.1853V49.546H54.0925L50.2333 52.1061V50.1629L54.1853 47.5411H56.0995Z" fill="white"/>
<path d="M259.162 28.9689H241.221C240.277 28.9689 239.513 29.7332 239.513 30.6758C239.513 31.6186 240.277 32.3829 241.221 32.3829H259.162C260.106 32.3829 260.87 31.6186 260.87 30.6758C260.87 29.7332 260.106 28.9689 259.162 28.9689Z" fill="#29C770" fill-opacity="0.6" stroke="#29C770" stroke-width="0.47166"/>
<path d="M245.445 32.3829H254.938C256.418 32.3829 257.675 33.4646 257.894 34.9269L259.432 45.1686C259.704 46.9747 258.303 48.5989 256.476 48.5989H243.907C242.079 48.5989 240.679 46.9747 240.951 45.1686L242.489 34.9269C242.708 33.4646 243.965 32.3829 245.445 32.3829Z" fill="#29C770" fill-opacity="0.4" stroke="#29C770" stroke-width="0.47166"/>
<path d="M285.645 28.9689H267.706C266.762 28.9689 265.996 29.7332 265.996 30.6758C265.996 31.6186 266.762 32.3829 267.706 32.3829H285.645C286.589 32.3829 287.355 31.6186 287.355 30.6758C287.355 29.7332 286.589 28.9689 285.645 28.9689Z" fill="#29C770" fill-opacity="0.6" stroke="#29C770" stroke-width="0.47166"/>
<path d="M271.93 32.3829H281.421C282.901 32.3829 284.16 33.4646 284.379 34.9269L285.917 45.1686C286.187 46.9747 284.787 48.5989 282.959 48.5989H270.392C268.565 48.5989 267.164 46.9747 267.434 45.1686L268.972 34.9269C269.191 33.4646 270.45 32.3829 271.93 32.3829Z" fill="#29C770" fill-opacity="0.4" stroke="#29C770" stroke-width="0.47166"/>
<path d="M267.706 87.8589H285.645C286.589 87.8589 287.355 87.0948 287.355 86.152C287.355 85.2092 286.589 84.4451 285.645 84.4451H267.706C266.762 84.4451 265.996 85.2092 265.996 86.152C265.996 87.0948 266.762 87.8589 267.706 87.8589Z" fill="#29C770" fill-opacity="0.6" stroke="#29C770" stroke-width="0.47166"/>
<path d="M281.421 84.445H271.93C270.45 84.445 269.191 83.3633 268.972 81.901L267.434 71.6593C267.164 69.8532 268.565 68.229 270.392 68.229H282.959C284.787 68.229 286.187 69.8532 285.917 71.6593L284.379 81.901C284.158 83.3633 282.901 84.445 281.421 84.445Z" fill="#29C770" fill-opacity="0.4" stroke="#29C770" stroke-width="0.47166"/>
<path d="M241.221 87.8589H259.162C260.106 87.8589 260.87 87.0948 260.87 86.152C260.87 85.2092 260.106 84.4451 259.162 84.4451H241.221C240.277 84.4451 239.513 85.2092 239.513 86.152C239.513 87.0948 240.277 87.8589 241.221 87.8589Z" fill="#29C770" fill-opacity="0.6" stroke="#29C770" stroke-width="0.47166"/>
<path d="M254.938 84.445H245.445C243.965 84.445 242.708 83.3633 242.489 81.901L240.951 71.6593C240.679 69.8532 242.079 68.229 243.907 68.229H256.476C258.303 68.229 259.704 69.8532 259.432 71.6593L257.894 81.901C257.675 83.3633 256.418 84.445 254.938 84.445Z" fill="#29C770" fill-opacity="0.4" stroke="#29C770" stroke-width="0.47166"/>
<path d="M226.698 49.4523V67.3755C226.698 68.3183 227.462 69.0824 228.406 69.0824C229.349 69.0824 230.116 68.3183 230.116 67.3755V49.4523C230.116 48.5098 229.349 47.7454 228.406 47.7454C227.462 47.7454 226.698 48.5098 226.698 49.4523Z" fill="#29C770" fill-opacity="0.6" stroke="#29C770" stroke-width="0.47166"/>
<path d="M230.116 63.1553V53.6727C230.116 52.1941 231.197 50.9379 232.661 50.7186L242.913 49.1823C244.72 48.9115 246.347 50.3102 246.347 52.1364V64.6914C246.347 66.5178 244.72 67.9165 242.913 67.6456L232.661 66.1093C231.197 65.89 230.116 64.6339 230.116 63.1553Z" fill="#29C770" fill-opacity="0.4" stroke="#29C770" stroke-width="0.47166"/>
<path d="M300.17 49.4556V67.3787C300.17 68.3213 299.404 69.0857 298.46 69.0857C297.517 69.0857 296.752 68.3213 296.752 67.3787V49.4556C296.752 48.5128 297.517 47.7487 298.46 47.7487C299.404 47.7487 300.17 48.5128 300.17 49.4556Z" fill="#29C770" fill-opacity="0.6" stroke="#29C770" stroke-width="0.47166"/>
<path d="M296.752 63.1584V53.6757C296.752 52.1972 295.669 50.941 294.206 50.7217L283.954 49.1854C282.146 48.9145 280.519 50.3133 280.519 52.1394V64.6946C280.519 66.5208 282.146 67.9196 283.954 67.6487L294.206 66.1126C295.669 65.8931 296.752 64.6371 296.752 63.1584Z" fill="#29C770" fill-opacity="0.4" stroke="#29C770" stroke-width="0.47166"/>
<path d="M233.104 38.7839V78.0441C233.104 79.9294 234.635 81.4579 236.522 81.4579H290.346C292.233 81.4579 293.762 79.9294 293.762 78.0441V38.7839C293.762 36.8984 292.233 35.3701 290.346 35.3701H236.522C234.635 35.3701 233.104 36.8984 233.104 38.7839Z" fill="#29C770"/>
<path d="M258.843 65.1429V63.755L264.062 58.0487C264.674 57.3804 265.179 56.7995 265.574 56.3061C265.971 55.8074 266.264 55.3396 266.454 54.9026C266.65 54.4606 266.748 53.9979 266.748 53.5147C266.748 52.9594 266.614 52.4788 266.346 52.0727C266.085 51.6667 265.724 51.3531 265.266 51.1319C264.808 50.9108 264.293 50.8004 263.723 50.8004C263.114 50.8004 262.585 50.9264 262.133 51.1783C261.685 51.4249 261.337 51.772 261.089 52.2193C260.848 52.6664 260.727 53.1908 260.727 53.7923H258.907C258.907 52.8669 259.118 52.0546 259.546 51.3556C259.973 50.6564 260.555 50.1115 261.29 49.7209C262.031 49.3302 262.862 49.1348 263.784 49.1348C264.71 49.1348 265.531 49.3302 266.246 49.7209C266.962 50.1115 267.523 50.6385 267.929 51.3017C268.335 51.9647 268.539 52.7024 268.539 53.5147C268.539 54.0956 268.432 54.6636 268.222 55.2187C268.016 55.7688 267.655 56.3832 267.141 57.0617C266.632 57.7351 265.924 58.5577 265.018 59.5292L261.468 63.3231V63.4465H268.816V65.1429H258.843Z" fill="white"/>
<path d="M475.729 28.9689H457.788C456.844 28.9689 456.08 29.7332 456.08 30.6758C456.08 31.6186 456.844 32.3829 457.788 32.3829H475.729C476.673 32.3829 477.437 31.6186 477.437 30.6758C477.437 29.7332 476.673 28.9689 475.729 28.9689Z" fill="#29C770" fill-opacity="0.6" stroke="#29C770" stroke-width="0.47166"/>
<path d="M462.012 32.3829H471.503C472.985 32.3829 474.242 33.4646 474.461 34.9269L475.999 45.1686C476.27 46.9747 474.87 48.5989 473.041 48.5989H460.474C458.646 48.5989 457.246 46.9747 457.518 45.1686L459.056 34.9269C459.275 33.4646 460.532 32.3829 462.012 32.3829Z" fill="#29C770" fill-opacity="0.4" stroke="#29C770" stroke-width="0.47166"/>
<path d="M502.212 28.9689H484.271C483.327 28.9689 482.563 29.7332 482.563 30.6758C482.563 31.6186 483.327 32.3829 484.271 32.3829H502.212C503.156 32.3829 503.92 31.6186 503.92 30.6758C503.92 29.7332 503.156 28.9689 502.212 28.9689Z" fill="#29C770" fill-opacity="0.6" stroke="#29C770" stroke-width="0.47166"/>
<path d="M488.497 32.3829H497.988C499.468 32.3829 500.725 33.4646 500.944 34.9269L502.482 45.1686C502.754 46.9747 501.354 48.5989 499.526 48.5989H486.959C485.13 48.5989 483.73 46.9747 484.001 45.1686L485.539 34.9269C485.758 33.4646 487.015 32.3829 488.497 32.3829Z" fill="#29C770" fill-opacity="0.4" stroke="#29C770" stroke-width="0.47166"/>
<path d="M484.271 87.8589H502.212C503.156 87.8589 503.92 87.0948 503.92 86.152C503.92 85.2092 503.156 84.4451 502.212 84.4451H484.271C483.327 84.4451 482.563 85.2092 482.563 86.152C482.563 87.0948 483.327 87.8589 484.271 87.8589Z" fill="#29C770" fill-opacity="0.6" stroke="#29C770" stroke-width="0.47166"/>
<path d="M497.988 84.445H488.497C487.015 84.445 485.758 83.3633 485.539 81.901L484.001 71.6593C483.73 69.8532 485.13 68.229 486.959 68.229H499.526C501.354 68.229 502.754 69.8532 502.482 71.6593L500.944 81.901C500.725 83.3633 499.468 84.445 497.988 84.445Z" fill="#29C770" fill-opacity="0.4" stroke="#29C770" stroke-width="0.47166"/>
<path d="M457.788 87.8589H475.729C476.673 87.8589 477.437 87.0948 477.437 86.152C477.437 85.2092 476.673 84.4451 475.729 84.4451H457.788C456.844 84.4451 456.08 85.2092 456.08 86.152C456.08 87.0948 456.844 87.8589 457.788 87.8589Z" fill="#29C770" fill-opacity="0.6" stroke="#29C770" stroke-width="0.47166"/>
<path d="M471.503 84.445H462.012C460.532 84.445 459.275 83.3633 459.056 81.901L457.518 71.6593C457.246 69.8532 458.646 68.229 460.474 68.229H473.041C474.87 68.229 476.27 69.8532 475.999 71.6593L474.461 81.901C474.242 83.3633 472.985 84.445 471.503 84.445Z" fill="#29C770" fill-opacity="0.4" stroke="#29C770" stroke-width="0.47166"/>
<path d="M443.265 49.4523V67.3755C443.265 68.3183 444.029 69.0824 444.973 69.0824C445.916 69.0824 446.681 68.3183 446.681 67.3755V49.4523C446.681 48.5098 445.916 47.7454 444.973 47.7454C444.029 47.7454 443.265 48.5098 443.265 49.4523Z" fill="#29C770" fill-opacity="0.6" stroke="#29C770" stroke-width="0.47166"/>
<path d="M446.681 63.1553V53.6727C446.681 52.1941 447.764 50.9379 449.227 50.7186L459.48 49.1823C461.287 48.9115 462.914 50.3102 462.914 52.1364V64.6914C462.914 66.5178 461.287 67.9165 459.48 67.6456L449.227 66.1093C447.764 65.89 446.681 64.6339 446.681 63.1553Z" fill="#29C770" fill-opacity="0.4" stroke="#29C770" stroke-width="0.47166"/>
<path d="M516.735 49.4556V67.3787C516.735 68.3213 515.971 69.0857 515.027 69.0857C514.084 69.0857 513.319 68.3213 513.319 67.3787V49.4556C513.319 48.5128 514.084 47.7487 515.027 47.7487C515.971 47.7487 516.735 48.5128 516.735 49.4556Z" fill="#29C770" fill-opacity="0.6" stroke="#29C770" stroke-width="0.47166"/>
<path d="M513.319 63.1584V53.6757C513.319 52.1972 512.236 50.941 510.773 50.7217L500.52 49.1854C498.713 48.9145 497.086 50.3133 497.086 52.1394V64.6946C497.086 66.5208 498.713 67.9196 500.52 67.6487L510.773 66.1126C512.236 65.8931 513.319 64.6371 513.319 63.1584Z" fill="#29C770" fill-opacity="0.4" stroke="#29C770" stroke-width="0.47166"/>
<path d="M449.671 38.7839V78.0441C449.671 79.9294 451.202 81.4579 453.089 81.4579H506.911C508.798 81.4579 510.329 79.9294 510.329 78.0441V38.7839C510.329 36.8984 508.798 35.3701 506.911 35.3701H453.089C451.202 35.3701 449.671 36.8984 449.671 38.7839Z" fill="#29C770"/>
<path d="M479.732 65.3588C478.714 65.3588 477.805 65.184 477.008 64.8344C476.216 64.485 475.586 63.9991 475.117 63.377C474.653 62.75 474.401 62.0226 474.36 61.1949H476.305C476.347 61.7037 476.522 62.1433 476.83 62.5135C477.138 62.8785 477.542 63.1611 478.042 63.3616C478.542 63.5621 479.094 63.6623 479.701 63.6623C480.38 63.6623 480.984 63.5442 481.507 63.3077C482.032 63.0712 482.443 62.7422 482.742 62.3206C483.041 61.8991 483.19 61.4108 483.19 60.8556C483.19 60.2747 483.047 59.7632 482.759 59.3211C482.471 58.8738 482.049 58.5242 481.493 58.2723C480.936 58.0204 480.257 57.8945 479.455 57.8945H478.189V56.1981H479.455C480.082 56.1981 480.632 56.085 481.107 55.8588C481.585 55.6326 481.958 55.3139 482.226 54.9026C482.498 54.4913 482.635 54.0082 482.635 53.453C482.635 52.9183 482.516 52.4531 482.28 52.0573C482.043 51.6614 481.708 51.3531 481.277 51.1319C480.849 50.9108 480.344 50.8004 479.763 50.8004C479.217 50.8004 478.703 50.9007 478.219 51.1012C477.741 51.2964 477.35 51.5818 477.046 51.9571C476.743 52.3271 476.578 52.7744 476.553 53.2987H474.7C474.731 52.4712 474.981 51.7463 475.448 51.1242C475.917 50.497 476.53 50.0088 477.285 49.6592C478.047 49.3096 478.884 49.1348 479.793 49.1348C480.772 49.1348 481.61 49.3327 482.311 49.7285C483.01 50.1191 483.548 50.6359 483.923 51.2785C484.3 51.9211 484.487 52.615 484.487 53.3604C484.487 54.2497 484.253 55.0079 483.784 55.6351C483.322 56.2623 482.692 56.6968 481.893 56.9383V57.0617C482.893 57.2262 483.672 57.6504 484.233 58.334C484.793 59.0126 485.073 59.8531 485.073 60.8556C485.073 61.714 484.84 62.4851 484.371 63.1689C483.909 63.8475 483.275 64.382 482.472 64.7729C481.67 65.1635 480.757 65.3588 479.732 65.3588Z" fill="white"/>
<path d="M692.294 28.9689H674.355C673.411 28.9689 672.645 29.7332 672.645 30.6758C672.645 31.6186 673.411 32.3829 674.355 32.3829H692.294C693.238 32.3829 694.004 31.6186 694.004 30.6758C694.004 29.7332 693.238 28.9689 692.294 28.9689Z" fill="#29C770" fill-opacity="0.6" stroke="#29C770" stroke-width="0.47166"/>
<path d="M678.579 32.3829H688.07C689.55 32.3829 690.809 33.4646 691.028 34.9269L692.566 45.1686C692.836 46.9747 691.435 48.5989 689.608 48.5989H677.041C675.213 48.5989 673.813 46.9747 674.083 45.1686L675.621 34.9269C675.842 33.4646 677.099 32.3829 678.579 32.3829Z" fill="#29C770" fill-opacity="0.4" stroke="#29C770" stroke-width="0.47166"/>
<path d="M718.779 28.9689H700.838C699.894 28.9689 699.13 29.7332 699.13 30.6758C699.13 31.6186 699.894 32.3829 700.838 32.3829H718.779C719.723 32.3829 720.487 31.6186 720.487 30.6758C720.487 29.7332 719.723 28.9689 718.779 28.9689Z" fill="#29C770" fill-opacity="0.6" stroke="#29C770" stroke-width="0.47166"/>
<path d="M705.062 32.3829H714.555C716.035 32.3829 717.292 33.4646 717.511 34.9269L719.049 45.1686C719.321 46.9747 717.921 48.5989 716.093 48.5989H703.524C701.697 48.5989 700.296 46.9747 700.568 45.1686L702.106 34.9269C702.325 33.4646 703.582 32.3829 705.062 32.3829Z" fill="#29C770" fill-opacity="0.4" stroke="#29C770" stroke-width="0.47166"/>
<path d="M700.838 87.8589H718.779C719.723 87.8589 720.487 87.0948 720.487 86.152C720.487 85.2092 719.723 84.4451 718.779 84.4451H700.838C699.894 84.4451 699.13 85.2092 699.13 86.152C699.13 87.0948 699.894 87.8589 700.838 87.8589Z" fill="#29C770" fill-opacity="0.6" stroke="#29C770" stroke-width="0.47166"/>
<path d="M714.555 84.445H705.062C703.582 84.445 702.325 83.3633 702.106 81.901L700.568 71.6593C700.296 69.8532 701.697 68.229 703.524 68.229H716.093C717.921 68.229 719.321 69.8532 719.049 71.6593L717.511 81.901C717.292 83.3633 716.035 84.445 714.555 84.445Z" fill="#29C770" fill-opacity="0.4" stroke="#29C770" stroke-width="0.47166"/>
<path d="M674.355 87.8589H692.294C693.238 87.8589 694.004 87.0948 694.004 86.152C694.004 85.2092 693.238 84.4451 692.294 84.4451H674.355C673.411 84.4451 672.645 85.2092 672.645 86.152C672.645 87.0948 673.411 87.8589 674.355 87.8589Z" fill="#29C770" fill-opacity="0.6" stroke="#29C770" stroke-width="0.47166"/>
<path d="M688.07 84.445H678.579C677.099 84.445 675.842 83.3633 675.621 81.901L674.083 71.6593C673.813 69.8532 675.213 68.229 677.041 68.229H689.608C691.435 68.229 692.836 69.8532 692.566 71.6593L691.028 81.901C690.809 83.3633 689.55 84.445 688.07 84.445Z" fill="#29C770" fill-opacity="0.4" stroke="#29C770" stroke-width="0.47166"/>
<path d="M659.83 49.4523V67.3755C659.83 68.3183 660.596 69.0824 661.54 69.0824C662.483 69.0824 663.248 68.3183 663.248 67.3755V49.4523C663.248 48.5098 662.483 47.7454 661.54 47.7454C660.596 47.7454 659.83 48.5098 659.83 49.4523Z" fill="#29C770" fill-opacity="0.6" stroke="#29C770" stroke-width="0.47166"/>
<path d="M663.248 63.1553V53.6727C663.248 52.1941 664.331 50.9379 665.794 50.7186L676.047 49.1823C677.854 48.9115 679.481 50.3102 679.481 52.1364V64.6914C679.481 66.5178 677.854 67.9165 676.047 67.6456L665.794 66.1093C664.331 65.89 663.248 64.6339 663.248 63.1553Z" fill="#29C770" fill-opacity="0.4" stroke="#29C770" stroke-width="0.47166"/>
<path d="M733.302 49.4556V67.3787C733.302 68.3213 732.538 69.0857 731.594 69.0857C730.651 69.0857 729.884 68.3213 729.884 67.3787V49.4556C729.884 48.5128 730.651 47.7487 731.594 47.7487C732.538 47.7487 733.302 48.5128 733.302 49.4556Z" fill="#29C770" fill-opacity="0.6" stroke="#29C770" stroke-width="0.47166"/>
<path d="M729.884 63.1584V53.6757C729.884 52.1972 728.803 50.941 727.339 50.7217L717.087 49.1854C715.28 48.9145 713.653 50.3133 713.653 52.1394V64.6946C713.653 66.5208 715.28 67.9196 717.087 67.6487L727.339 66.1126C728.803 65.8931 729.884 64.6371 729.884 63.1584Z" fill="#29C770" fill-opacity="0.4" stroke="#29C770" stroke-width="0.47166"/>
<path d="M666.238 38.7839V78.0441C666.238 79.9294 667.767 81.4579 669.654 81.4579H723.478C725.365 81.4579 726.896 79.9294 726.896 78.0441V38.7839C726.896 36.8984 725.365 35.3701 723.478 35.3701H669.654C667.767 35.3701 666.238 36.8984 666.238 38.7839Z" fill="#29C770"/>
<path d="M691.379 61.9042V60.3312L698.326 49.3506H699.469V51.7874H698.697L693.448 60.0844V60.2078H702.803V61.9042H691.379ZM698.82 65.1429V61.4261V60.6936V49.3506H700.641V65.1429H698.82Z" fill="white"/>
<path d="M935.346 54.1466V36.2234C935.346 35.2806 934.58 34.5165 933.636 34.5165C932.693 34.5165 931.928 35.2806 931.928 36.2234V54.1466C931.928 55.0893 932.693 55.8535 933.636 55.8535C934.58 55.8535 935.346 55.0893 935.346 54.1466Z" fill="#29C770" fill-opacity="0.6" stroke="#29C770" stroke-width="0.47166"/>
<path d="M931.928 40.4436V49.9264C931.928 51.405 930.845 52.661 929.381 52.8805L919.129 54.4167C917.322 54.6876 915.695 53.2889 915.695 51.4625V38.9073C915.695 37.0811 917.322 35.6824 919.129 35.9533L929.381 37.4896C930.845 37.7089 931.928 38.965 931.928 40.4436Z" fill="#29C770" fill-opacity="0.4" stroke="#29C770" stroke-width="0.47166"/>
<path d="M935.346 80.6043V62.6814C935.346 61.7386 934.58 60.9744 933.636 60.9744C932.693 60.9744 931.928 61.7386 931.928 62.6814V80.6043C931.928 81.5471 932.693 82.3112 933.636 82.3112C934.58 82.3112 935.346 81.5471 935.346 80.6043Z" fill="#29C770" fill-opacity="0.6" stroke="#29C770" stroke-width="0.47166"/>
<path d="M931.928 66.9016V76.3842C931.928 77.8627 930.845 79.1189 929.381 79.3382L919.129 80.8745C917.322 81.1454 915.695 79.7466 915.695 77.9205V65.3653C915.695 63.5391 917.322 62.1403 919.129 62.4112L929.381 63.9475C930.845 64.1668 931.928 65.423 931.928 66.9016Z" fill="#29C770" fill-opacity="0.4" stroke="#29C770" stroke-width="0.47166"/>
<path d="M876.397 62.6814V80.6043C876.397 81.5471 877.161 82.3114 878.105 82.3114C879.048 82.3114 879.815 81.5471 879.815 80.6043V62.6814C879.815 61.7386 879.048 60.9744 878.105 60.9744C877.161 60.9744 876.397 61.7386 876.397 62.6814Z" fill="#29C770" fill-opacity="0.6" stroke="#29C770" stroke-width="0.47166"/>
<path d="M879.815 76.3842V66.9016C879.815 65.423 880.898 64.1668 882.361 63.9475L892.613 62.4112C894.421 62.1403 896.046 63.5391 896.046 65.3655V77.9205C896.046 79.7466 894.421 81.1454 892.613 80.8745L882.361 79.3382C880.898 79.1189 879.815 77.8627 879.815 76.3842Z" fill="#29C770" fill-opacity="0.4" stroke="#29C770" stroke-width="0.47166"/>
<path d="M876.397 36.2234V54.1466C876.397 55.0893 877.161 55.8535 878.105 55.8535C879.048 55.8535 879.815 55.0893 879.815 54.1466V36.2234C879.815 35.2806 879.048 34.5165 878.105 34.5165C877.161 34.5165 876.397 35.2806 876.397 36.2234Z" fill="#29C770" fill-opacity="0.6" stroke="#29C770" stroke-width="0.47166"/>
<path d="M879.815 49.9264V40.4436C879.815 38.965 880.898 37.7089 882.361 37.4896L892.613 35.9533C894.421 35.6824 896.046 37.0811 896.046 38.9075V51.4627C896.046 53.2889 894.421 54.6876 892.613 54.4167L882.361 52.8805C880.898 52.6611 879.815 51.405 879.815 49.9264Z" fill="#29C770" fill-opacity="0.4" stroke="#29C770" stroke-width="0.47166"/>
<path d="M914.842 21.7143H896.901C895.957 21.7143 895.193 22.4785 895.193 23.4212C895.193 24.364 895.957 25.1281 896.901 25.1281H914.842C915.786 25.1281 916.55 24.364 916.55 23.4212C916.55 22.4785 915.786 21.7143 914.842 21.7143Z" fill="#29C770" fill-opacity="0.6" stroke="#29C770" stroke-width="0.47166"/>
<path d="M901.125 25.1281H910.618C912.098 25.1281 913.355 26.21 913.574 27.6723L915.112 37.914C915.384 39.7201 913.983 41.3443 912.156 41.3443H899.587C897.759 41.3443 896.359 39.7201 896.631 37.914L898.169 27.6723C898.388 26.21 899.645 25.1281 901.125 25.1281Z" fill="#29C770" fill-opacity="0.4" stroke="#29C770" stroke-width="0.47166"/>
<path d="M914.838 95.1137H896.897C895.953 95.1137 895.189 94.3493 895.189 93.4066C895.189 92.464 895.953 91.6996 896.897 91.6996H914.838C915.782 91.6996 916.546 92.464 916.546 93.4066C916.546 94.3493 915.782 95.1137 914.838 95.1137Z" fill="#29C770" fill-opacity="0.6" stroke="#29C770" stroke-width="0.47166"/>
<path d="M901.121 91.6996H910.614C912.094 91.6996 913.351 90.6179 913.57 89.1556L915.108 78.9139C915.38 77.1078 913.98 75.4836 912.152 75.4836H899.583C897.756 75.4836 896.356 77.1078 896.627 78.9139L898.165 89.1556C898.384 90.6179 899.641 91.6996 901.121 91.6996Z" fill="#29C770" fill-opacity="0.4" stroke="#29C770" stroke-width="0.47166"/>
<path d="M925.522 28.1155H886.221C884.334 28.1155 882.805 29.6438 882.805 31.5293V85.2986C882.805 87.1839 884.334 88.7125 886.221 88.7125H925.522C927.409 88.7125 928.938 87.1839 928.938 85.2986V31.5293C928.938 29.6438 927.409 28.1155 925.522 28.1155Z" fill="#29C770"/>
<path d="M904.992 65.3587C904.086 65.3587 903.269 65.1789 902.545 64.8189C901.819 64.4592 901.237 63.9656 900.801 63.3384C900.362 62.7112 900.123 61.9968 900.082 61.1948H901.934C902.007 61.9094 902.331 62.5006 902.907 62.9683C903.489 63.431 904.184 63.6623 904.992 63.6623C905.64 63.6623 906.216 63.5107 906.72 63.2074C907.229 62.9041 907.629 62.4877 907.917 61.9583C908.211 61.4236 908.357 60.8195 908.357 60.146C908.357 59.4573 908.205 58.843 907.901 58.3032C907.602 57.7582 907.191 57.329 906.666 57.0154C906.142 56.7018 905.543 56.5425 904.867 56.5373C904.383 56.5322 903.887 56.6068 903.378 56.761C902.869 56.9101 902.449 57.1028 902.119 57.3393L900.33 57.1234L901.286 49.3506H909.499V51.047H902.893L902.337 55.7045H902.429C902.753 55.4474 903.159 55.2341 903.648 55.0645C904.137 54.8948 904.646 54.8101 905.177 54.8101C906.144 54.8101 907.006 55.0414 907.763 55.5041C908.524 55.9615 909.122 56.5887 909.553 57.3856C909.991 58.1823 910.209 59.0922 910.209 60.1153C910.209 61.1228 909.982 62.0225 909.529 62.8142C909.082 63.6006 908.464 64.2227 907.678 64.6802C906.89 65.1325 905.996 65.3587 904.992 65.3587Z" fill="white"/>
<path d="M83.6031 185.451V167.528C83.6031 166.585 82.838 165.821 81.8943 165.821C80.9508 165.821 80.1857 166.585 80.1857 167.528V185.451C80.1857 186.394 80.9508 187.157 81.8943 187.157C82.838 187.157 83.6031 186.394 83.6031 185.451Z" fill="#29C770" fill-opacity="0.6" stroke="#29C770" stroke-width="0.47166"/>
<path d="M80.1857 171.748V181.231C80.1857 182.709 79.1029 183.965 77.6392 184.184L67.3873 185.721C65.5794 185.992 63.9536 184.593 63.9536 182.767V170.211C63.9536 168.385 65.5794 166.987 67.3873 167.257L77.6392 168.794C79.1029 169.013 80.1857 170.269 80.1857 171.748Z" fill="#29C770" fill-opacity="0.4" stroke="#29C770" stroke-width="0.47166"/>
<path d="M83.6031 211.908V193.985C83.6031 193.042 82.838 192.278 81.8943 192.278C80.9508 192.278 80.1857 193.042 80.1857 193.985V211.908C80.1857 212.851 80.9508 213.616 81.8943 213.616C82.838 213.616 83.6031 212.851 83.6031 211.908Z" fill="#29C770" fill-opacity="0.6" stroke="#29C770" stroke-width="0.47166"/>
<path d="M80.1857 198.206V207.688C80.1857 209.166 79.1029 210.422 77.6392 210.643L67.3873 212.179C65.5794 212.449 63.9536 211.05 63.9536 209.224V196.67C63.9536 194.842 65.5794 193.444 67.3873 193.715L77.6392 195.251C79.1029 195.47 80.1857 196.728 80.1857 198.206Z" fill="#29C770" fill-opacity="0.4" stroke="#29C770" stroke-width="0.47166"/>
<path d="M24.6544 193.985V211.908C24.6544 212.851 25.4195 213.616 26.363 213.616C27.3067 213.616 28.0718 212.851 28.0718 211.908V193.985C28.0718 193.042 27.3067 192.278 26.363 192.278C25.4195 192.278 24.6544 193.042 24.6544 193.985Z" fill="#29C770" fill-opacity="0.6" stroke="#29C770" stroke-width="0.47166"/>
<path d="M28.0718 207.688V198.206C28.0718 196.728 29.1546 195.47 30.6184 195.251L40.8703 193.715C42.6781 193.444 44.304 194.842 44.304 196.67V209.224C44.304 211.05 42.6781 212.449 40.8703 212.179L30.6184 210.643C29.1546 210.422 28.0718 209.166 28.0718 207.688Z" fill="#29C770" fill-opacity="0.4" stroke="#29C770" stroke-width="0.47166"/>
<path d="M24.6544 167.528V185.451C24.6544 186.394 25.4195 187.157 26.363 187.157C27.3067 187.157 28.0718 186.394 28.0718 185.451V167.528C28.0718 166.585 27.3067 165.821 26.363 165.821C25.4195 165.821 24.6544 166.585 24.6544 167.528Z" fill="#29C770" fill-opacity="0.6" stroke="#29C770" stroke-width="0.47166"/>
<path d="M28.0718 181.231V171.748C28.0718 170.269 29.1546 169.013 30.6184 168.794L40.8703 167.257C42.6781 166.987 44.304 168.385 44.304 170.212V182.767C44.304 184.593 42.6781 185.992 40.8703 185.721L30.6184 184.184C29.1546 183.965 28.0718 182.709 28.0718 181.231Z" fill="#29C770" fill-opacity="0.4" stroke="#29C770" stroke-width="0.47166"/>
<path d="M63.0992 153.018H45.1582C44.2147 153.018 43.4496 153.783 43.4496 154.725C43.4496 155.668 44.2147 156.432 45.1582 156.432H63.0992C64.0428 156.432 64.8078 155.668 64.8078 154.725C64.8078 153.783 64.0428 153.018 63.0992 153.018Z" fill="#29C770" fill-opacity="0.6" stroke="#29C770" stroke-width="0.47166"/>
<path d="M49.3828 156.432H58.8748C60.3548 156.432 61.6123 157.514 61.8318 158.976L63.3696 169.218C63.6407 171.024 62.2406 172.648 60.4126 172.648H47.8449C46.017 172.648 44.6168 171.024 44.888 169.218L46.4258 158.976C46.6453 157.514 47.9027 156.432 49.3828 156.432Z" fill="#29C770" fill-opacity="0.4" stroke="#29C770" stroke-width="0.47166"/>
<path d="M63.0961 226.418H45.1551C44.2114 226.418 43.4465 225.653 43.4465 224.71C43.4465 223.768 44.2114 223.004 45.1551 223.004H63.0961C64.0396 223.004 64.8047 223.768 64.8047 224.71C64.8047 225.653 64.0396 226.418 63.0961 226.418Z" fill="#29C770" fill-opacity="0.6" stroke="#29C770" stroke-width="0.47166"/>
<path d="M49.3795 223.004H58.8715C60.3516 223.004 61.609 221.922 61.8285 220.46L63.3663 210.218C63.6375 208.412 62.2373 206.787 60.4094 206.787H47.8419C46.0137 206.787 44.6135 208.412 44.8847 210.218L46.4225 220.46C46.642 221.922 47.8995 223.004 49.3795 223.004Z" fill="#29C770" fill-opacity="0.4" stroke="#29C770" stroke-width="0.47166"/>
<path d="M73.7783 159.419H34.4792C32.592 159.419 31.062 160.948 31.062 162.833V216.602C31.062 218.487 32.592 220.016 34.4792 220.016H73.7783C75.6655 220.016 77.1956 218.487 77.1956 216.602V162.833C77.1956 160.948 75.6655 159.419 73.7783 159.419Z" fill="#29C770"/>
<path d="M53.9793 197.453C53.3311 197.444 52.6826 197.32 52.0343 197.084C51.3859 196.847 50.7941 196.449 50.2591 195.888C49.7238 195.324 49.2942 194.56 48.97 193.599C48.6457 192.633 48.4836 191.419 48.4836 189.958C48.4836 188.561 48.6149 187.322 48.8774 186.242C49.1399 185.158 49.5206 184.246 50.0198 183.506C50.5188 182.76 51.1209 182.194 51.8259 181.808C52.5361 181.423 53.3361 181.229 54.2264 181.229C55.1114 181.229 55.8988 181.407 56.5884 181.761C57.283 182.112 57.849 182.601 58.2865 183.227C58.7239 183.855 59.0068 184.577 59.1354 185.395H57.2522C57.0772 184.684 56.7376 184.096 56.2333 183.629C55.7289 183.16 55.06 182.927 54.2264 182.927C53.0018 182.927 52.0369 183.459 51.3319 184.523C50.632 185.587 50.2795 187.079 50.2745 189.003H50.398C50.6862 188.565 51.0283 188.192 51.4245 187.885C51.8259 187.572 52.2684 187.329 52.7522 187.159C53.2358 186.991 53.7479 186.906 54.2882 186.906C55.1938 186.906 56.0223 187.132 56.7737 187.584C57.5248 188.031 58.1269 188.65 58.5797 189.443C59.0326 190.228 59.259 191.131 59.259 192.15C59.259 193.125 59.0403 194.021 58.6029 194.831C58.1655 195.638 57.5505 196.283 56.7581 196.76C55.9709 197.233 55.0446 197.464 53.9793 197.453ZM53.9793 195.758C54.6278 195.758 55.2092 195.595 55.7238 195.271C56.2435 194.947 56.6527 194.513 56.9512 193.968C57.2547 193.424 57.4065 192.817 57.4065 192.15C57.4065 191.496 57.2598 190.903 56.9666 190.367C56.6784 189.828 56.2795 189.399 55.7702 189.079C55.2659 188.76 54.6896 188.601 54.0411 188.601C53.5522 188.601 53.0969 188.699 52.675 188.894C52.253 189.084 51.8826 189.347 51.5634 189.682C51.2495 190.016 51.0026 190.398 50.8224 190.831C50.6423 191.258 50.5523 191.706 50.5523 192.18C50.5523 192.807 50.699 193.393 50.9923 193.938C51.2908 194.482 51.6973 194.922 52.2119 195.257C52.7315 195.59 53.3207 195.758 53.9793 195.758Z" fill="white"/>
<path d="M259.162 160.273H241.221C240.277 160.273 239.513 161.037 239.513 161.98C239.513 162.923 240.277 163.687 241.221 163.687H259.162C260.106 163.687 260.87 162.923 260.87 161.98C260.87 161.037 260.106 160.273 259.162 160.273Z" fill="#29C770" fill-opacity="0.6" stroke="#29C770" stroke-width="0.47166"/>
<path d="M245.445 163.687H254.938C256.418 163.687 257.675 164.769 257.894 166.231L259.432 176.473C259.704 178.279 258.303 179.903 256.476 179.903H243.907C242.079 179.903 240.679 178.279 240.951 176.473L242.489 166.231C242.708 164.769 243.965 163.687 245.445 163.687Z" fill="#29C770" fill-opacity="0.4" stroke="#29C770" stroke-width="0.47166"/>
<path d="M285.645 160.273H267.706C266.762 160.273 265.996 161.037 265.996 161.98C265.996 162.923 266.762 163.687 267.706 163.687H285.645C286.589 163.687 287.355 162.923 287.355 161.98C287.355 161.037 286.589 160.273 285.645 160.273Z" fill="#29C770" fill-opacity="0.6" stroke="#29C770" stroke-width="0.47166"/>
<path d="M271.93 163.687H281.421C282.901 163.687 284.158 164.769 284.379 166.231L285.917 176.473C286.187 178.279 284.787 179.903 282.959 179.903H270.392C268.565 179.903 267.164 178.279 267.434 176.473L268.972 166.231C269.191 164.769 270.45 163.687 271.93 163.687Z" fill="#29C770" fill-opacity="0.4" stroke="#29C770" stroke-width="0.47166"/>
<path d="M267.706 219.162H285.645C286.589 219.162 287.355 218.399 287.355 217.456C287.355 216.513 286.589 215.75 285.645 215.75H267.706C266.762 215.75 265.996 216.513 265.996 217.456C265.996 218.399 266.762 219.162 267.706 219.162Z" fill="#29C770" fill-opacity="0.6" stroke="#29C770" stroke-width="0.47166"/>
<path d="M281.421 215.75H271.93C270.45 215.75 269.191 214.667 268.972 213.205L267.434 202.963C267.164 201.158 268.565 199.533 270.392 199.533H282.959C284.787 199.533 286.187 201.158 285.917 202.963L284.379 213.205C284.158 214.667 282.901 215.75 281.421 215.75Z" fill="#29C770" fill-opacity="0.4" stroke="#29C770" stroke-width="0.47166"/>
<path d="M241.221 219.162H259.162C260.106 219.162 260.87 218.399 260.87 217.456C260.87 216.513 260.106 215.75 259.162 215.75H241.221C240.277 215.75 239.513 216.513 239.513 217.456C239.513 218.399 240.277 219.162 241.221 219.162Z" fill="#29C770" fill-opacity="0.6" stroke="#29C770" stroke-width="0.47166"/>
<path d="M254.938 215.75H245.445C243.965 215.75 242.708 214.667 242.489 213.205L240.951 202.963C240.679 201.158 242.079 199.533 243.907 199.533H256.476C258.303 199.533 259.704 201.158 259.432 202.963L257.894 213.205C257.675 214.667 256.418 215.75 254.938 215.75Z" fill="#29C770" fill-opacity="0.4" stroke="#29C770" stroke-width="0.47166"/>
<path d="M226.698 180.756V198.68C226.698 199.623 227.462 200.387 228.406 200.387C229.349 200.387 230.114 199.623 230.114 198.68V180.756C230.114 179.814 229.349 179.049 228.406 179.049C227.462 179.049 226.698 179.814 226.698 180.756Z" fill="#29C770" fill-opacity="0.6" stroke="#29C770" stroke-width="0.47166"/>
<path d="M230.114 194.459V184.977C230.114 183.498 231.197 182.243 232.661 182.022L242.913 180.486C244.72 180.215 246.347 181.615 246.347 183.441V195.995C246.347 197.823 244.72 199.221 242.913 198.95L232.661 197.414C231.197 197.195 230.114 195.937 230.114 194.459Z" fill="#29C770" fill-opacity="0.4" stroke="#29C770" stroke-width="0.47166"/>
<path d="M300.17 180.76V198.682C300.17 199.625 299.404 200.39 298.46 200.39C297.517 200.39 296.752 199.625 296.752 198.682V180.76C296.752 179.817 297.517 179.053 298.46 179.053C299.404 179.053 300.17 179.817 300.17 180.76Z" fill="#29C770" fill-opacity="0.6" stroke="#29C770" stroke-width="0.47166"/>
<path d="M296.752 194.462V184.98C296.752 183.502 295.669 182.244 294.206 182.025L283.954 180.489C282.146 180.219 280.519 181.618 280.519 183.444V195.999C280.519 197.824 282.146 199.223 283.954 198.953L294.206 197.417C295.669 197.196 296.752 195.941 296.752 194.462Z" fill="#29C770" fill-opacity="0.4" stroke="#29C770" stroke-width="0.47166"/>
<path d="M233.104 170.088V209.347C233.104 211.233 234.635 212.762 236.522 212.762H290.346C292.231 212.762 293.762 211.233 293.762 209.347V170.088C293.762 168.202 292.231 166.674 290.346 166.674H236.522C234.635 166.674 233.104 168.202 233.104 170.088Z" fill="#29C770"/>
<path d="M259.338 197.238L266.409 183.265V183.142H258.258V181.446H268.383V183.234L261.345 197.238H259.338Z" fill="white"/>
<path d="M475.729 160.273H457.788C456.844 160.273 456.08 161.037 456.08 161.98C456.08 162.923 456.844 163.687 457.788 163.687H475.729C476.673 163.687 477.437 162.923 477.437 161.98C477.437 161.037 476.673 160.273 475.729 160.273Z" fill="#29C770" fill-opacity="0.6" stroke="#29C770" stroke-width="0.47166"/>
<path d="M462.012 163.687H471.503C472.985 163.687 474.242 164.769 474.461 166.231L475.999 176.473C476.27 178.279 474.87 179.903 473.041 179.903H460.474C458.646 179.903 457.246 178.279 457.518 176.473L459.056 166.231C459.275 164.769 460.532 163.687 462.012 163.687Z" fill="#29C770" fill-opacity="0.4" stroke="#29C770" stroke-width="0.47166"/>
<path d="M502.212 160.273H484.271C483.327 160.273 482.563 161.037 482.563 161.98C482.563 162.923 483.327 163.687 484.271 163.687H502.212C503.156 163.687 503.92 162.923 503.92 161.98C503.92 161.037 503.156 160.273 502.212 160.273Z" fill="#29C770" fill-opacity="0.6" stroke="#29C770" stroke-width="0.47166"/>
<path d="M488.497 163.687H497.988C499.468 163.687 500.725 164.769 500.944 166.231L502.482 176.473C502.754 178.279 501.354 179.903 499.526 179.903H486.959C485.13 179.903 483.73 178.279 484.001 176.473L485.539 166.231C485.758 164.769 487.015 163.687 488.497 163.687Z" fill="#29C770" fill-opacity="0.4" stroke="#29C770" stroke-width="0.47166"/>
<path d="M484.271 219.162H502.212C503.156 219.162 503.92 218.399 503.92 217.456C503.92 216.513 503.156 215.75 502.212 215.75H484.271C483.327 215.75 482.563 216.513 482.563 217.456C482.563 218.399 483.327 219.162 484.271 219.162Z" fill="#29C770" fill-opacity="0.6" stroke="#29C770" stroke-width="0.47166"/>
<path d="M497.988 215.75H488.497C487.015 215.75 485.758 214.667 485.539 213.205L484.001 202.963C483.73 201.158 485.13 199.533 486.959 199.533H499.526C501.354 199.533 502.754 201.158 502.482 202.963L500.944 213.205C500.725 214.667 499.468 215.75 497.988 215.75Z" fill="#29C770" fill-opacity="0.4" stroke="#29C770" stroke-width="0.47166"/>
<path d="M457.788 219.162H475.729C476.673 219.162 477.437 218.399 477.437 217.456C477.437 216.513 476.673 215.75 475.729 215.75H457.788C456.844 215.75 456.08 216.513 456.08 217.456C456.08 218.399 456.844 219.162 457.788 219.162Z" fill="#29C770" fill-opacity="0.6" stroke="#29C770" stroke-width="0.47166"/>
<path d="M471.503 215.75H462.012C460.532 215.75 459.275 214.667 459.056 213.205L457.518 202.963C457.246 201.158 458.646 199.533 460.474 199.533H473.041C474.87 199.533 476.27 201.158 475.999 202.963L474.461 213.205C474.242 214.667 472.985 215.75 471.503 215.75Z" fill="#29C770" fill-opacity="0.4" stroke="#29C770" stroke-width="0.47166"/>
<path d="M443.265 180.756V198.68C443.265 199.623 444.029 200.387 444.973 200.387C445.916 200.387 446.681 199.623 446.681 198.68V180.756C446.681 179.814 445.916 179.049 444.973 179.049C444.029 179.049 443.265 179.814 443.265 180.756Z" fill="#29C770" fill-opacity="0.6" stroke="#29C770" stroke-width="0.47166"/>
<path d="M446.681 194.459V184.977C446.681 183.498 447.764 182.243 449.227 182.022L459.48 180.486C461.287 180.215 462.914 181.615 462.914 183.441V195.995C462.914 197.823 461.287 199.221 459.48 198.95L449.227 197.414C447.764 197.195 446.681 195.937 446.681 194.459Z" fill="#29C770" fill-opacity="0.4" stroke="#29C770" stroke-width="0.47166"/>
<path d="M516.735 180.76V198.682C516.735 199.625 515.971 200.39 515.027 200.39C514.084 200.39 513.319 199.625 513.319 198.682V180.76C513.319 179.817 514.084 179.053 515.027 179.053C515.971 179.053 516.735 179.817 516.735 180.76Z" fill="#29C770" fill-opacity="0.6" stroke="#29C770" stroke-width="0.47166"/>
<path d="M513.319 194.462V184.98C513.319 183.502 512.236 182.244 510.773 182.025L500.52 180.489C498.713 180.219 497.086 181.618 497.086 183.444V195.999C497.086 197.824 498.713 199.223 500.52 198.953L510.773 197.417C512.236 197.196 513.319 195.941 513.319 194.462Z" fill="#29C770" fill-opacity="0.4" stroke="#29C770" stroke-width="0.47166"/>
<path d="M449.671 170.088V209.347C449.671 211.233 451.202 212.762 453.089 212.762H506.911C508.798 212.762 510.329 211.233 510.329 209.347V170.088C510.329 168.202 508.798 166.674 506.911 166.674H453.089C451.202 166.674 449.671 168.202 449.671 170.088Z" fill="#29C770"/>
<path d="M479.455 197.453C478.395 197.453 477.459 197.267 476.645 196.891C475.838 196.511 475.207 195.99 474.754 195.325C474.302 194.658 474.077 193.896 474.082 193.044C474.077 192.374 474.209 191.759 474.475 191.192C474.744 190.622 475.109 190.147 475.571 189.767C476.04 189.381 476.562 189.137 477.138 189.034V188.941C476.383 188.746 475.78 188.321 475.332 187.669C474.885 187.011 474.664 186.263 474.669 185.426C474.664 184.622 474.867 183.906 475.278 183.274C475.691 182.641 476.256 182.143 476.977 181.778C477.703 181.412 478.529 181.229 479.455 181.229C480.371 181.229 481.188 181.412 481.909 181.778C482.63 182.143 483.195 182.641 483.606 183.274C484.025 183.906 484.235 184.622 484.24 185.426C484.235 186.263 484.007 187.011 483.554 187.669C483.105 188.321 482.51 188.746 481.77 188.941V189.034C482.342 189.137 482.856 189.381 483.315 189.767C483.771 190.147 484.137 190.622 484.411 191.192C484.682 191.759 484.822 192.374 484.827 193.044C484.822 193.896 484.59 194.658 484.132 195.325C483.679 195.99 483.048 196.511 482.241 196.891C481.438 197.267 480.509 197.453 479.455 197.453ZM479.455 195.758C480.17 195.758 480.788 195.642 481.308 195.41C481.828 195.179 482.228 194.853 482.51 194.432C482.795 194.01 482.938 193.516 482.943 192.951C482.938 192.354 482.784 191.828 482.48 191.37C482.177 190.912 481.762 190.552 481.237 190.291C480.717 190.029 480.123 189.897 479.455 189.897C478.781 189.897 478.178 190.029 477.649 190.291C477.124 190.552 476.709 190.912 476.406 191.37C476.107 191.828 475.961 192.354 475.966 192.951C475.961 193.516 476.097 194.01 476.376 194.432C476.658 194.853 477.062 195.179 477.587 195.41C478.111 195.642 478.734 195.758 479.455 195.758ZM479.455 188.263C480.02 188.263 480.522 188.149 480.96 187.923C481.402 187.696 481.75 187.382 482.002 186.974C482.253 186.569 482.382 186.093 482.387 185.549C482.382 185.013 482.257 184.548 482.009 184.152C481.762 183.752 481.42 183.442 480.984 183.227C480.545 183.006 480.036 182.896 479.455 182.896C478.862 182.896 478.346 183.006 477.903 183.227C477.461 183.442 477.118 183.752 476.877 184.152C476.635 184.548 476.517 185.013 476.522 185.549C476.517 186.093 476.636 186.569 476.885 186.974C477.136 187.382 477.484 187.696 477.926 187.923C478.368 188.149 478.879 188.263 479.455 188.263Z" fill="white"/>
<path d="M692.294 160.273H674.355C673.411 160.273 672.645 161.037 672.645 161.98C672.645 162.923 673.411 163.687 674.355 163.687H692.294C693.238 163.687 694.004 162.923 694.004 161.98C694.004 161.037 693.238 160.273 692.294 160.273Z" fill="#29C770" fill-opacity="0.6" stroke="#29C770" stroke-width="0.47166"/>
<path d="M678.579 163.687H688.07C689.55 163.687 690.809 164.769 691.028 166.231L692.566 176.473C692.836 178.279 691.435 179.903 689.608 179.903H677.041C675.213 179.903 673.813 178.279 674.083 176.473L675.621 166.231C675.842 164.769 677.099 163.687 678.579 163.687Z" fill="#29C770" fill-opacity="0.4" stroke="#29C770" stroke-width="0.47166"/>
<path d="M718.779 160.273H700.838C699.894 160.273 699.13 161.037 699.13 161.98C699.13 162.923 699.894 163.687 700.838 163.687H718.779C719.723 163.687 720.487 162.923 720.487 161.98C720.487 161.037 719.723 160.273 718.779 160.273Z" fill="#29C770" fill-opacity="0.6" stroke="#29C770" stroke-width="0.47166"/>
<path d="M705.062 163.687H714.555C716.035 163.687 717.292 164.769 717.511 166.231L719.049 176.473C719.321 178.279 717.921 179.903 716.093 179.903H703.524C701.697 179.903 700.296 178.279 700.568 176.473L702.106 166.231C702.325 164.769 703.582 163.687 705.062 163.687Z" fill="#29C770" fill-opacity="0.4" stroke="#29C770" stroke-width="0.47166"/>
<path d="M700.838 219.162H718.779C719.723 219.162 720.487 218.399 720.487 217.456C720.487 216.513 719.723 215.75 718.779 215.75H700.838C699.894 215.75 699.13 216.513 699.13 217.456C699.13 218.399 699.894 219.162 700.838 219.162Z" fill="#29C770" fill-opacity="0.6" stroke="#29C770" stroke-width="0.47166"/>
<path d="M714.555 215.75H705.062C703.582 215.75 702.325 214.667 702.106 213.205L700.568 202.963C700.296 201.158 701.697 199.533 703.524 199.533H716.093C717.921 199.533 719.321 201.158 719.049 202.963L717.511 213.205C717.292 214.667 716.035 215.75 714.555 215.75Z" fill="#29C770" fill-opacity="0.4" stroke="#29C770" stroke-width="0.47166"/>
<path d="M674.355 219.162H692.294C693.238 219.162 694.004 218.399 694.004 217.456C694.004 216.513 693.238 215.75 692.294 215.75H674.355C673.411 215.75 672.645 216.513 672.645 217.456C672.645 218.399 673.411 219.162 674.355 219.162Z" fill="#29C770" fill-opacity="0.6" stroke="#29C770" stroke-width="0.47166"/>
<path d="M688.07 215.75H678.579C677.099 215.75 675.842 214.667 675.621 213.205L674.083 202.963C673.813 201.158 675.213 199.533 677.041 199.533H689.608C691.435 199.533 692.836 201.158 692.566 202.963L691.028 213.205C690.809 214.667 689.55 215.75 688.07 215.75Z" fill="#29C770" fill-opacity="0.4" stroke="#29C770" stroke-width="0.47166"/>
<path d="M659.83 180.756V198.68C659.83 199.623 660.596 200.387 661.54 200.387C662.483 200.387 663.248 199.623 663.248 198.68V180.756C663.248 179.814 662.483 179.049 661.54 179.049C660.596 179.049 659.83 179.814 659.83 180.756Z" fill="#29C770" fill-opacity="0.6" stroke="#29C770" stroke-width="0.47166"/>
<path d="M663.248 194.459V184.977C663.248 183.498 664.331 182.243 665.794 182.022L676.047 180.486C677.854 180.215 679.481 181.615 679.481 183.441V195.995C679.481 197.823 677.854 199.221 676.047 198.95L665.794 197.414C664.331 197.195 663.248 195.937 663.248 194.459Z" fill="#29C770" fill-opacity="0.4" stroke="#29C770" stroke-width="0.47166"/>
<path d="M733.302 180.76V198.682C733.302 199.625 732.538 200.39 731.594 200.39C730.651 200.39 729.886 199.625 729.886 198.682V180.76C729.886 179.817 730.651 179.053 731.594 179.053C732.538 179.053 733.302 179.817 733.302 180.76Z" fill="#29C770" fill-opacity="0.6" stroke="#29C770" stroke-width="0.47166"/>
<path d="M729.886 194.462V184.98C729.886 183.502 728.803 182.244 727.339 182.025L717.087 180.489C715.28 180.219 713.653 181.618 713.653 183.444V195.999C713.653 197.824 715.28 199.223 717.087 198.953L727.339 197.417C728.803 197.196 729.886 195.941 729.886 194.462Z" fill="#29C770" fill-opacity="0.4" stroke="#29C770" stroke-width="0.47166"/>
<path d="M666.238 170.088V209.347C666.238 211.233 667.769 212.762 669.654 212.762H723.478C725.365 212.762 726.896 211.233 726.896 209.347V170.088C726.896 168.202 725.365 166.674 723.478 166.674H669.654C667.769 166.674 666.238 168.202 666.238 170.088Z" fill="#29C770"/>
<path d="M696.783 181.229C697.431 181.235 698.079 181.358 698.728 181.6C699.376 181.841 699.967 182.243 700.503 182.804C701.037 183.359 701.467 184.117 701.791 185.078C702.115 186.039 702.278 187.244 702.278 188.694C702.278 190.098 702.144 191.345 701.876 192.434C701.613 193.52 701.233 194.433 700.735 195.179C700.24 195.924 699.639 196.491 698.927 196.876C698.222 197.262 697.426 197.453 696.534 197.453C695.65 197.453 694.861 197.28 694.165 196.931C693.477 196.576 692.91 196.084 692.468 195.458C692.03 194.824 691.749 194.091 691.626 193.259H693.509C693.68 193.985 694.017 194.584 694.52 195.056C695.029 195.525 695.701 195.758 696.534 195.758C697.755 195.758 698.717 195.226 699.422 194.162C700.132 193.098 700.487 191.594 700.487 189.651H700.363C700.075 190.081 699.733 190.454 699.336 190.769C698.942 191.082 698.501 191.325 698.018 191.493C697.534 191.663 697.02 191.748 696.473 191.748C695.567 191.748 694.738 191.524 693.98 191.077C693.229 190.624 692.627 190.005 692.174 189.218C691.727 188.428 691.502 187.523 691.502 186.504C691.502 185.538 691.718 184.653 692.151 183.851C692.587 183.044 693.202 182.402 693.988 181.924C694.781 181.446 695.712 181.215 696.783 181.229ZM696.783 182.927C696.134 182.927 695.549 183.088 695.029 183.412C694.515 183.732 694.107 184.163 693.803 184.707C693.504 185.248 693.355 185.847 693.355 186.504C693.355 187.163 693.499 187.762 693.787 188.301C694.08 188.837 694.48 189.262 694.984 189.58C695.493 189.895 696.072 190.051 696.721 190.051C697.21 190.051 697.665 189.957 698.087 189.767C698.509 189.571 698.876 189.305 699.19 188.972C699.51 188.632 699.758 188.25 699.94 187.823C700.119 187.391 700.21 186.942 700.21 186.473C700.21 185.856 700.059 185.279 699.762 184.738C699.469 184.199 699.061 183.763 698.541 183.428C698.027 183.093 697.44 182.927 696.783 182.927Z" fill="white"/>
<path d="M935.346 185.451V167.528C935.346 166.585 934.58 165.821 933.636 165.821C932.693 165.821 931.928 166.585 931.928 167.528V185.451C931.928 186.394 932.693 187.157 933.636 187.157C934.58 187.157 935.346 186.394 935.346 185.451Z" fill="#29C770" fill-opacity="0.6" stroke="#29C770" stroke-width="0.47166"/>
<path d="M931.928 171.748V181.231C931.928 182.709 930.845 183.965 929.381 184.184L919.129 185.721C917.322 185.992 915.697 184.593 915.697 182.767V170.211C915.697 168.385 917.322 166.987 919.129 167.257L929.381 168.794C930.845 169.013 931.928 170.269 931.928 171.748Z" fill="#29C770" fill-opacity="0.4" stroke="#29C770" stroke-width="0.47166"/>
<path d="M935.346 211.908V193.985C935.346 193.042 934.58 192.278 933.636 192.278C932.693 192.278 931.928 193.042 931.928 193.985V211.908C931.928 212.851 932.693 213.616 933.636 213.616C934.58 213.616 935.346 212.851 935.346 211.908Z" fill="#29C770" fill-opacity="0.6" stroke="#29C770" stroke-width="0.47166"/>
<path d="M931.928 198.206V207.688C931.928 209.166 930.845 210.422 929.381 210.643L919.129 212.179C917.322 212.449 915.697 211.05 915.697 209.224V196.67C915.697 194.842 917.322 193.444 919.129 193.715L929.381 195.251C930.845 195.47 931.928 196.728 931.928 198.206Z" fill="#29C770" fill-opacity="0.4" stroke="#29C770" stroke-width="0.47166"/>
<path d="M876.397 193.985V211.908C876.397 212.851 877.163 213.616 878.105 213.616C879.048 213.616 879.815 212.851 879.815 211.908V193.985C879.815 193.042 879.048 192.278 878.105 192.278C877.163 192.278 876.397 193.042 876.397 193.985Z" fill="#29C770" fill-opacity="0.6" stroke="#29C770" stroke-width="0.47166"/>
<path d="M879.815 207.688V198.206C879.815 196.728 880.898 195.47 882.361 195.251L892.613 193.715C894.421 193.444 896.046 194.842 896.046 196.67V209.224C896.046 211.05 894.421 212.449 892.613 212.179L882.361 210.643C880.898 210.422 879.815 209.166 879.815 207.688Z" fill="#29C770" fill-opacity="0.4" stroke="#29C770" stroke-width="0.47166"/>
<path d="M876.397 167.528V185.451C876.397 186.394 877.163 187.157 878.105 187.157C879.048 187.157 879.815 186.394 879.815 185.451V167.528C879.815 166.585 879.048 165.821 878.105 165.821C877.163 165.821 876.397 166.585 876.397 167.528Z" fill="#29C770" fill-opacity="0.6" stroke="#29C770" stroke-width="0.47166"/>
<path d="M879.815 181.231V171.748C879.815 170.269 880.898 169.013 882.361 168.794L892.613 167.257C894.421 166.987 896.046 168.385 896.046 170.212V182.767C896.046 184.593 894.421 185.992 892.613 185.721L882.361 184.184C880.898 183.965 879.815 182.709 879.815 181.231Z" fill="#29C770" fill-opacity="0.4" stroke="#29C770" stroke-width="0.47166"/>
<path d="M914.842 153.018H896.901C895.957 153.018 895.193 153.783 895.193 154.725C895.193 155.668 895.957 156.432 896.901 156.432H914.842C915.786 156.432 916.55 155.668 916.55 154.725C916.55 153.783 915.786 153.018 914.842 153.018Z" fill="#29C770" fill-opacity="0.6" stroke="#29C770" stroke-width="0.47166"/>
<path d="M901.125 156.432H910.618C912.098 156.432 913.355 157.514 913.574 158.976L915.112 169.218C915.384 171.024 913.983 172.648 912.156 172.648H899.587C897.759 172.648 896.359 171.024 896.631 169.218L898.169 158.976C898.388 157.514 899.645 156.432 901.125 156.432Z" fill="#29C770" fill-opacity="0.4" stroke="#29C770" stroke-width="0.47166"/>
<path d="M914.838 226.418H896.897C895.953 226.418 895.189 225.653 895.189 224.71C895.189 223.768 895.953 223.004 896.897 223.004H914.838C915.782 223.004 916.546 223.768 916.546 224.71C916.546 225.653 915.782 226.418 914.838 226.418Z" fill="#29C770" fill-opacity="0.6" stroke="#29C770" stroke-width="0.47166"/>
<path d="M901.121 223.004H910.614C912.094 223.004 913.351 221.922 913.57 220.46L915.108 210.218C915.38 208.412 913.98 206.787 912.152 206.787H899.585C897.756 206.787 896.356 208.412 896.627 210.218L898.165 220.46C898.384 221.922 899.641 223.004 901.121 223.004Z" fill="#29C770" fill-opacity="0.4" stroke="#29C770" stroke-width="0.47166"/>
<path d="M925.522 159.419H886.221C884.334 159.419 882.805 160.948 882.805 162.833V216.602C882.805 218.487 884.334 220.016 886.221 220.016H925.522C927.409 220.016 928.938 218.487 928.938 216.602V162.833C928.938 160.948 927.409 159.419 925.522 159.419Z" fill="#29C770"/>
<path d="M900.176 181.446V197.238H898.261V183.451H898.169L894.309 186.01V184.068L898.261 181.446H900.176ZM909.877 197.453C908.714 197.453 907.723 197.139 906.907 196.505C906.088 195.868 905.463 194.945 905.03 193.737C904.597 192.524 904.382 191.059 904.382 189.341C904.382 187.635 904.597 186.178 905.03 184.97C905.467 183.757 906.095 182.831 906.914 182.194C907.736 181.551 908.725 181.229 909.877 181.229C911.029 181.229 912.016 181.551 912.833 182.194C913.657 182.831 914.284 183.757 914.717 184.97C915.154 186.178 915.373 187.635 915.373 189.341C915.373 191.059 915.157 192.524 914.724 193.737C914.293 194.945 913.666 195.868 912.85 196.505C912.031 197.139 911.04 197.453 909.877 197.453ZM909.877 195.758C911.029 195.758 911.926 195.202 912.563 194.091C913.201 192.982 913.52 191.399 913.52 189.341C913.52 187.975 913.375 186.81 913.081 185.849C912.793 184.888 912.375 184.155 911.83 183.65C911.29 183.147 910.64 182.896 909.877 182.896C908.734 182.896 907.843 183.459 907.198 184.584C906.555 185.704 906.235 187.291 906.235 189.341C906.235 190.709 906.378 191.871 906.666 192.826C906.954 193.784 907.368 194.511 907.908 195.009C908.455 195.508 909.111 195.758 909.877 195.758Z" fill="white"/>
<path d="M83.6029 316.755V298.832C83.6029 297.889 82.838 297.124 81.8943 297.124C80.9506 297.124 80.1857 297.889 80.1857 298.832V316.755C80.1857 317.698 80.9506 318.462 81.8943 318.462C82.838 318.462 83.6029 317.698 83.6029 316.755Z" fill="#29C770" fill-opacity="0.6" stroke="#29C770" stroke-width="0.47166"/>
<path d="M80.1857 303.052V312.534C80.1857 314.014 79.1029 315.27 77.6392 315.489L67.3873 317.025C65.5794 317.296 63.9536 315.898 63.9536 314.07V301.516C63.9536 299.69 65.5794 298.291 67.3873 298.561L77.6392 300.097C79.1029 300.318 80.1857 301.573 80.1857 303.052Z" fill="#29C770" fill-opacity="0.4" stroke="#29C770" stroke-width="0.47166"/>
<path d="M83.6029 343.212V325.289C83.6029 324.346 82.838 323.583 81.8943 323.583C80.9506 323.583 80.1857 324.346 80.1857 325.289V343.212C80.1857 344.155 80.9506 344.919 81.8943 344.919C82.838 344.919 83.6029 344.155 83.6029 343.212Z" fill="#29C770" fill-opacity="0.6" stroke="#29C770" stroke-width="0.47166"/>
<path d="M80.1857 329.509V338.993C80.1857 340.471 79.1029 341.727 77.6392 341.946L67.3873 343.482C65.5794 343.753 63.9536 342.355 63.9536 340.529V327.973C63.9536 326.147 65.5794 324.748 67.3873 325.019L77.6392 326.556C79.1029 326.775 80.1857 328.03 80.1857 329.509Z" fill="#29C770" fill-opacity="0.4" stroke="#29C770" stroke-width="0.47166"/>
<path d="M24.6544 325.289V343.212C24.6544 344.155 25.4193 344.919 26.363 344.919C27.3067 344.919 28.0717 344.155 28.0717 343.212V325.289C28.0717 324.346 27.3067 323.583 26.363 323.583C25.4193 323.583 24.6544 324.346 24.6544 325.289Z" fill="#29C770" fill-opacity="0.6" stroke="#29C770" stroke-width="0.47166"/>
<path d="M28.0717 338.993V329.509C28.0717 328.03 29.1546 326.775 30.6184 326.556L40.8703 325.019C42.6781 324.748 44.304 326.147 44.304 327.973V340.529C44.304 342.355 42.6781 343.753 40.8703 343.482L30.6184 341.946C29.1546 341.727 28.0717 340.471 28.0717 338.993Z" fill="#29C770" fill-opacity="0.4" stroke="#29C770" stroke-width="0.47166"/>
<path d="M24.6544 298.832V316.755C24.6544 317.698 25.4193 318.462 26.363 318.462C27.3067 318.462 28.0717 317.698 28.0717 316.755V298.832C28.0717 297.889 27.3067 297.124 26.363 297.124C25.4193 297.124 24.6544 297.889 24.6544 298.832Z" fill="#29C770" fill-opacity="0.6" stroke="#29C770" stroke-width="0.47166"/>
<path d="M28.0717 312.534V303.052C28.0717 301.573 29.1546 300.318 30.6184 300.097L40.8703 298.561C42.6781 298.291 44.304 299.69 44.304 301.516V314.07C44.304 315.898 42.6781 317.296 40.8703 317.025L30.6184 315.489C29.1546 315.27 28.0717 314.014 28.0717 312.534Z" fill="#29C770" fill-opacity="0.4" stroke="#29C770" stroke-width="0.47166"/>
<path d="M63.0992 284.323H45.1582C44.2145 284.323 43.4496 285.087 43.4496 286.03C43.4496 286.972 44.2145 287.736 45.1582 287.736H63.0992C64.0428 287.736 64.8078 286.972 64.8078 286.03C64.8078 285.087 64.0428 284.323 63.0992 284.323Z" fill="#29C770" fill-opacity="0.6" stroke="#29C770" stroke-width="0.47166"/>
<path d="M49.3826 287.736H58.8746C60.3548 287.736 61.6121 288.818 61.8318 290.28L63.3694 300.522C63.6406 302.328 62.2404 303.953 60.4124 303.953H47.8449C46.0168 303.953 44.6166 302.328 44.8878 300.522L46.4256 290.28C46.6451 288.818 47.9025 287.736 49.3826 287.736Z" fill="#29C770" fill-opacity="0.4" stroke="#29C770" stroke-width="0.47166"/>
<path d="M63.0959 357.721H45.1551C44.2114 357.721 43.4465 356.957 43.4465 356.015C43.4465 355.072 44.2114 354.308 45.1551 354.308H63.0959C64.0396 354.308 64.8047 355.072 64.8047 356.015C64.8047 356.957 64.0396 357.721 63.0959 357.721Z" fill="#29C770" fill-opacity="0.6" stroke="#29C770" stroke-width="0.47166"/>
<path d="M49.3795 354.308H58.8715C60.3516 354.308 61.609 353.226 61.8285 351.764L63.3663 341.522C63.6375 339.716 62.2373 338.091 60.4094 338.091H47.8417C46.0137 338.091 44.6135 339.716 44.8847 341.522L46.4225 351.764C46.642 353.226 47.8995 354.308 49.3795 354.308Z" fill="#29C770" fill-opacity="0.4" stroke="#29C770" stroke-width="0.47166"/>
<path d="M73.7782 290.724H34.4792C32.5918 290.724 31.0618 292.253 31.0618 294.138V347.906C31.0618 349.792 32.5918 351.321 34.4792 351.321H73.7782C75.6656 351.321 77.1956 349.792 77.1956 347.906V294.138C77.1956 292.253 75.6656 290.724 73.7782 290.724Z" fill="#29C770"/>
<path d="M50.6655 311.732V327.524H48.7513V313.737H48.6586L44.7994 316.296V314.354L48.7513 311.732H50.6655ZM60.7693 311.732V327.524H58.855V313.737H58.7625L54.9031 316.296V314.354L58.855 311.732H60.7693Z" fill="white"/>
<path d="M259.162 291.578H241.221C240.277 291.578 239.513 292.341 239.513 293.284C239.513 294.227 240.277 294.99 241.221 294.99H259.162C260.106 294.99 260.87 294.227 260.87 293.284C260.87 292.341 260.106 291.578 259.162 291.578Z" fill="#29C770" fill-opacity="0.6" stroke="#29C770" stroke-width="0.47166"/>
<path d="M245.445 294.99H254.938C256.418 294.99 257.675 296.072 257.894 297.535L259.432 307.776C259.704 309.582 258.303 311.207 256.476 311.207H243.907C242.079 311.207 240.679 309.582 240.951 307.776L242.489 297.535C242.708 296.072 243.965 294.99 245.445 294.99Z" fill="#29C770" fill-opacity="0.4" stroke="#29C770" stroke-width="0.47166"/>
<path d="M285.645 291.578H267.704C266.762 291.578 265.996 292.341 265.996 293.284C265.996 294.227 266.762 294.99 267.704 294.99H285.645C286.589 294.99 287.355 294.227 287.355 293.284C287.355 292.341 286.589 291.578 285.645 291.578Z" fill="#29C770" fill-opacity="0.6" stroke="#29C770" stroke-width="0.47166"/>
<path d="M271.93 294.99H281.421C282.901 294.99 284.158 296.072 284.379 297.535L285.917 307.776C286.187 309.582 284.787 311.207 282.959 311.207H270.392C268.565 311.207 267.164 309.582 267.434 307.776L268.972 297.535C269.191 296.072 270.45 294.99 271.93 294.99Z" fill="#29C770" fill-opacity="0.4" stroke="#29C770" stroke-width="0.47166"/>
<path d="M267.706 350.467H285.645C286.589 350.467 287.355 349.703 287.355 348.76C287.355 347.818 286.589 347.054 285.645 347.054H267.706C266.762 347.054 265.996 347.818 265.996 348.76C265.996 349.703 266.762 350.467 267.706 350.467Z" fill="#29C770" fill-opacity="0.6" stroke="#29C770" stroke-width="0.47166"/>
<path d="M281.421 347.054H271.93C270.45 347.054 269.191 345.972 268.972 344.51L267.434 334.268C267.164 332.462 268.565 330.837 270.392 330.837H282.959C284.787 330.837 286.187 332.462 285.917 334.268L284.379 344.51C284.158 345.972 282.901 347.054 281.421 347.054Z" fill="#29C770" fill-opacity="0.4" stroke="#29C770" stroke-width="0.47166"/>
<path d="M241.221 350.467H259.162C260.106 350.467 260.87 349.703 260.87 348.76C260.87 347.818 260.106 347.054 259.162 347.054H241.221C240.277 347.054 239.513 347.818 239.513 348.76C239.513 349.703 240.277 350.467 241.221 350.467Z" fill="#29C770" fill-opacity="0.6" stroke="#29C770" stroke-width="0.47166"/>
<path d="M254.938 347.054H245.445C243.965 347.054 242.708 345.972 242.489 344.51L240.951 334.268C240.679 332.462 242.079 330.837 243.907 330.837H256.476C258.303 330.837 259.704 332.462 259.432 334.268L257.894 344.51C257.675 345.972 256.418 347.054 254.938 347.054Z" fill="#29C770" fill-opacity="0.4" stroke="#29C770" stroke-width="0.47166"/>
<path d="M226.698 312.061V329.983C226.698 330.926 227.462 331.691 228.406 331.691C229.349 331.691 230.114 330.926 230.114 329.983V312.061C230.114 311.119 229.349 310.353 228.406 310.353C227.462 310.353 226.698 311.119 226.698 312.061Z" fill="#29C770" fill-opacity="0.6" stroke="#29C770" stroke-width="0.47166"/>
<path d="M230.114 325.763V316.281C230.114 314.803 231.197 313.545 232.661 313.326L242.913 311.79C244.72 311.52 246.347 312.919 246.347 314.745V327.3C246.347 329.125 244.72 330.524 242.913 330.254L232.661 328.718C231.197 328.497 230.114 327.242 230.114 325.763Z" fill="#29C770" fill-opacity="0.4" stroke="#29C770" stroke-width="0.47166"/>
<path d="M300.17 312.063V329.987C300.17 330.929 299.404 331.693 298.46 331.693C297.517 331.693 296.752 330.929 296.752 329.987V312.063C296.752 311.121 297.517 310.357 298.46 310.357C299.404 310.357 300.17 311.121 300.17 312.063Z" fill="#29C770" fill-opacity="0.6" stroke="#29C770" stroke-width="0.47166"/>
<path d="M296.752 325.767V316.283C296.752 314.805 295.669 313.549 294.206 313.33L283.954 311.794C282.146 311.522 280.519 312.921 280.519 314.747V327.303C280.519 329.129 282.146 330.528 283.954 330.256L294.206 328.72C295.669 328.501 296.752 327.245 296.752 325.767Z" fill="#29C770" fill-opacity="0.4" stroke="#29C770" stroke-width="0.47166"/>
<path d="M233.104 301.392V340.652C233.104 342.537 234.635 344.066 236.522 344.066H290.344C292.231 344.066 293.762 342.537 293.762 340.652V301.392C293.762 299.507 292.231 297.978 290.344 297.978H236.522C234.635 297.978 233.104 299.507 233.104 301.392Z" fill="#29C770"/>
<path d="M258.968 311.732V327.524H257.054V313.737H256.961L253.101 316.296V314.354L257.054 311.732H258.968ZM263.515 327.524V326.136L268.731 320.431C269.343 319.761 269.849 319.18 270.244 318.686C270.64 318.189 270.934 317.72 271.124 317.284C271.32 316.842 271.417 316.379 271.417 315.896C271.417 315.34 271.283 314.859 271.017 314.454C270.754 314.048 270.394 313.733 269.936 313.513C269.477 313.292 268.963 313.182 268.392 313.182C267.784 313.182 267.255 313.306 266.802 313.56C266.355 313.806 266.007 314.153 265.761 314.6C265.518 315.047 265.397 315.572 265.397 316.173H263.576C263.576 315.248 263.79 314.436 264.216 313.737C264.643 313.037 265.224 312.492 265.96 312.101C266.701 311.71 267.532 311.515 268.454 311.515C269.38 311.515 270.2 311.71 270.916 312.101C271.631 312.492 272.193 313.019 272.598 313.683C273.006 314.345 273.209 315.083 273.209 315.896C273.209 316.477 273.104 317.045 272.892 317.6C272.685 318.151 272.327 318.764 271.81 319.443C271.301 320.116 270.595 320.939 269.689 321.911L266.137 325.703V325.827H273.486V327.524H263.515Z" fill="white"/>
<path d="M475.729 291.578H457.788C456.844 291.578 456.08 292.341 456.08 293.284C456.08 294.227 456.844 294.99 457.788 294.99H475.729C476.673 294.99 477.437 294.227 477.437 293.284C477.437 292.341 476.673 291.578 475.729 291.578Z" fill="#29C770" fill-opacity="0.6" stroke="#29C770" stroke-width="0.47166"/>
<path d="M462.012 294.99H471.503C472.985 294.99 474.242 296.072 474.461 297.535L475.999 307.776C476.27 309.582 474.87 311.207 473.041 311.207H460.474C458.646 311.207 457.246 309.582 457.518 307.776L459.056 297.535C459.275 296.072 460.532 294.99 462.012 294.99Z" fill="#29C770" fill-opacity="0.4" stroke="#29C770" stroke-width="0.47166"/>
<path d="M502.212 291.578H484.271C483.327 291.578 482.563 292.341 482.563 293.284C482.563 294.227 483.327 294.99 484.271 294.99H502.212C503.156 294.99 503.92 294.227 503.92 293.284C503.92 292.341 503.156 291.578 502.212 291.578Z" fill="#29C770" fill-opacity="0.6" stroke="#29C770" stroke-width="0.47166"/>
<path d="M488.495 294.99H497.988C499.468 294.99 500.725 296.072 500.944 297.535L502.482 307.776C502.754 309.582 501.354 311.207 499.526 311.207H486.959C485.13 311.207 483.73 309.582 484.001 307.776L485.539 297.535C485.758 296.072 487.015 294.99 488.495 294.99Z" fill="#29C770" fill-opacity="0.4" stroke="#29C770" stroke-width="0.47166"/>
<path d="M484.271 350.467H502.212C503.156 350.467 503.92 349.703 503.92 348.76C503.92 347.818 503.156 347.054 502.212 347.054H484.271C483.327 347.054 482.563 347.818 482.563 348.76C482.563 349.703 483.327 350.467 484.271 350.467Z" fill="#29C770" fill-opacity="0.6" stroke="#29C770" stroke-width="0.47166"/>
<path d="M497.988 347.054H488.495C487.015 347.054 485.758 345.972 485.539 344.51L484.001 334.268C483.73 332.462 485.13 330.837 486.959 330.837H499.526C501.354 330.837 502.754 332.462 502.482 334.268L500.944 344.51C500.725 345.972 499.468 347.054 497.988 347.054Z" fill="#29C770" fill-opacity="0.4" stroke="#29C770" stroke-width="0.47166"/>
<path d="M457.788 350.467H475.729C476.673 350.467 477.437 349.703 477.437 348.76C477.437 347.818 476.673 347.054 475.729 347.054H457.788C456.844 347.054 456.08 347.818 456.08 348.76C456.08 349.703 456.844 350.467 457.788 350.467Z" fill="#29C770" fill-opacity="0.6" stroke="#29C770" stroke-width="0.47166"/>
<path d="M471.503 347.054H462.012C460.532 347.054 459.275 345.972 459.056 344.51L457.518 334.268C457.246 332.462 458.646 330.837 460.474 330.837H473.041C474.87 330.837 476.27 332.462 475.999 334.268L474.461 344.51C474.242 345.972 472.985 347.054 471.503 347.054Z" fill="#29C770" fill-opacity="0.4" stroke="#29C770" stroke-width="0.47166"/>
<path d="M443.265 312.061V329.983C443.265 330.926 444.029 331.691 444.973 331.691C445.916 331.691 446.681 330.926 446.681 329.983V312.061C446.681 311.119 445.916 310.353 444.973 310.353C444.029 310.353 443.265 311.119 443.265 312.061Z" fill="#29C770" fill-opacity="0.6" stroke="#29C770" stroke-width="0.47166"/>
<path d="M446.681 325.763V316.281C446.681 314.803 447.764 313.545 449.227 313.326L459.48 311.79C461.287 311.52 462.914 312.919 462.914 314.745V327.3C462.914 329.125 461.287 330.524 459.48 330.254L449.227 328.718C447.764 328.497 446.681 327.242 446.681 325.763Z" fill="#29C770" fill-opacity="0.4" stroke="#29C770" stroke-width="0.47166"/>
<path d="M516.735 312.063V329.987C516.735 330.929 515.971 331.693 515.027 331.693C514.084 331.693 513.319 330.929 513.319 329.987V312.063C513.319 311.121 514.084 310.357 515.027 310.357C515.971 310.357 516.735 311.121 516.735 312.063Z" fill="#29C770" fill-opacity="0.6" stroke="#29C770" stroke-width="0.47166"/>
<path d="M513.319 325.767V316.283C513.319 314.805 512.236 313.549 510.773 313.33L500.52 311.794C498.713 311.522 497.086 312.921 497.086 314.747V327.303C497.086 329.129 498.713 330.528 500.52 330.256L510.773 328.72C512.236 328.501 513.319 327.245 513.319 325.767Z" fill="#29C770" fill-opacity="0.4" stroke="#29C770" stroke-width="0.47166"/>
<path d="M449.671 301.392V340.652C449.671 342.537 451.202 344.066 453.089 344.066H506.911C508.798 344.066 510.329 342.537 510.329 340.652V301.392C510.329 299.507 508.798 297.978 506.911 297.978H453.089C451.202 297.978 449.671 299.507 449.671 301.392Z" fill="#29C770"/>
<path d="M474.515 311.732V327.524H472.601V313.737H472.508L468.648 316.296V314.354L472.601 311.732H474.515ZM484.401 327.739C483.384 327.739 482.474 327.565 481.677 327.216C480.886 326.865 480.255 326.38 479.786 325.758C479.323 325.132 479.071 324.404 479.029 323.575H480.974C481.016 324.084 481.192 324.524 481.5 324.895C481.81 325.26 482.213 325.542 482.712 325.743C483.211 325.942 483.764 326.044 484.371 326.044C485.05 326.044 485.653 325.924 486.178 325.689C486.702 325.452 487.115 325.123 487.412 324.701C487.711 324.279 487.859 323.793 487.859 323.237C487.859 322.656 487.716 322.144 487.428 321.703C487.14 321.256 486.718 320.905 486.162 320.653C485.606 320.402 484.927 320.275 484.124 320.275H482.858V318.579H484.124C484.753 318.579 485.304 318.465 485.776 318.239C486.254 318.013 486.628 317.695 486.896 317.284C487.167 316.873 487.305 316.39 487.305 315.834C487.305 315.299 487.186 314.834 486.95 314.437C486.713 314.043 486.378 313.733 485.947 313.513C485.519 313.292 485.014 313.182 484.432 313.182C483.887 313.182 483.373 313.281 482.889 313.482C482.411 313.677 482.02 313.963 481.715 314.338C481.413 314.709 481.248 315.156 481.223 315.681H479.37C479.4 314.852 479.65 314.128 480.118 313.506C480.587 312.878 481.199 312.389 481.956 312.04C482.717 311.691 483.554 311.515 484.463 311.515C485.441 311.515 486.28 311.714 486.981 312.11C487.68 312.499 488.218 313.017 488.593 313.659C488.97 314.302 489.156 314.997 489.156 315.742C489.156 316.631 488.923 317.389 488.455 318.017C487.992 318.643 487.361 319.077 486.564 319.319V319.443C487.562 319.607 488.341 320.031 488.903 320.715C489.462 321.393 489.743 322.235 489.743 323.237C489.743 324.095 489.509 324.866 489.04 325.55C488.578 326.228 487.944 326.764 487.142 327.153C486.34 327.544 485.427 327.739 484.401 327.739Z" fill="white"/>
<path d="M692.294 291.578H674.355C673.411 291.578 672.645 292.341 672.645 293.284C672.645 294.227 673.411 294.99 674.355 294.99H692.294C693.238 294.99 694.004 294.227 694.004 293.284C694.004 292.341 693.238 291.578 692.294 291.578Z" fill="#29C770" fill-opacity="0.6" stroke="#29C770" stroke-width="0.47166"/>
<path d="M678.579 294.99H688.07C689.55 294.99 690.809 296.072 691.028 297.535L692.566 307.776C692.836 309.582 691.435 311.207 689.608 311.207H677.041C675.213 311.207 673.813 309.582 674.083 307.776L675.621 297.535C675.842 296.072 677.099 294.99 678.579 294.99Z" fill="#29C770" fill-opacity="0.4" stroke="#29C770" stroke-width="0.47166"/>
<path d="M718.779 291.578H700.838C699.894 291.578 699.13 292.341 699.13 293.284C699.13 294.227 699.894 294.99 700.838 294.99H718.779C719.723 294.99 720.487 294.227 720.487 293.284C720.487 292.341 719.723 291.578 718.779 291.578Z" fill="#29C770" fill-opacity="0.6" stroke="#29C770" stroke-width="0.47166"/>
<path d="M705.062 294.99H714.555C716.035 294.99 717.292 296.072 717.511 297.535L719.049 307.776C719.321 309.582 717.921 311.207 716.093 311.207H703.524C701.697 311.207 700.296 309.582 700.568 307.776L702.106 297.535C702.325 296.072 703.582 294.99 705.062 294.99Z" fill="#29C770" fill-opacity="0.4" stroke="#29C770" stroke-width="0.47166"/>
<path d="M700.838 350.467H718.779C719.723 350.467 720.487 349.703 720.487 348.76C720.487 347.818 719.723 347.054 718.779 347.054H700.838C699.894 347.054 699.13 347.818 699.13 348.76C699.13 349.703 699.894 350.467 700.838 350.467Z" fill="#29C770" fill-opacity="0.6" stroke="#29C770" stroke-width="0.47166"/>
<path d="M714.555 347.054H705.062C703.582 347.054 702.325 345.972 702.106 344.51L700.568 334.268C700.296 332.462 701.697 330.837 703.524 330.837H716.093C717.921 330.837 719.321 332.462 719.049 334.268L717.511 344.51C717.292 345.972 716.035 347.054 714.555 347.054Z" fill="#29C770" fill-opacity="0.4" stroke="#29C770" stroke-width="0.47166"/>
<path d="M674.355 350.467H692.294C693.238 350.467 694.004 349.703 694.004 348.76C694.004 347.818 693.238 347.054 692.294 347.054H674.355C673.411 347.054 672.645 347.818 672.645 348.76C672.645 349.703 673.411 350.467 674.355 350.467Z" fill="#29C770" fill-opacity="0.6" stroke="#29C770" stroke-width="0.47166"/>
<path d="M688.07 347.054H678.579C677.099 347.054 675.842 345.972 675.621 344.51L674.083 334.268C673.813 332.462 675.213 330.837 677.041 330.837H689.608C691.435 330.837 692.836 332.462 692.566 334.268L691.028 344.51C690.809 345.972 689.55 347.054 688.07 347.054Z" fill="#29C770" fill-opacity="0.4" stroke="#29C770" stroke-width="0.47166"/>
<path d="M659.83 312.061V329.983C659.83 330.926 660.596 331.691 661.54 331.691C662.483 331.691 663.248 330.926 663.248 329.983V312.061C663.248 311.119 662.483 310.353 661.54 310.353C660.596 310.353 659.83 311.119 659.83 312.061Z" fill="#29C770" fill-opacity="0.6" stroke="#29C770" stroke-width="0.47166"/>
<path d="M663.248 325.763V316.281C663.248 314.803 664.331 313.545 665.794 313.326L676.047 311.79C677.854 311.52 679.481 312.919 679.481 314.745V327.3C679.481 329.125 677.854 330.524 676.047 330.254L665.794 328.718C664.331 328.497 663.248 327.242 663.248 325.763Z" fill="#29C770" fill-opacity="0.4" stroke="#29C770" stroke-width="0.47166"/>
<path d="M733.302 312.063V329.987C733.302 330.929 732.538 331.693 731.594 331.693C730.651 331.693 729.886 330.929 729.886 329.987V312.063C729.886 311.121 730.651 310.357 731.594 310.357C732.538 310.357 733.302 311.121 733.302 312.063Z" fill="#29C770" fill-opacity="0.6" stroke="#29C770" stroke-width="0.47166"/>
<path d="M729.886 325.767V316.283C729.886 314.805 728.803 313.549 727.339 313.33L717.087 311.794C715.28 311.522 713.653 312.921 713.653 314.747V327.303C713.653 329.129 715.28 330.528 717.087 330.256L727.339 328.72C728.803 328.501 729.886 327.245 729.886 325.767Z" fill="#29C770" fill-opacity="0.4" stroke="#29C770" stroke-width="0.47166"/>
<path d="M666.238 301.392V340.652C666.238 342.537 667.769 344.066 669.654 344.066H723.478C725.365 344.066 726.896 342.537 726.896 340.652V301.392C726.896 299.507 725.365 297.978 723.478 297.978H669.654C667.769 297.978 666.238 299.507 666.238 301.392Z" fill="#29C770"/>
<path d="M691.874 311.732V327.524H689.959V313.737H689.867L686.007 316.296V314.354L689.959 311.732H691.874ZM696.049 324.285V322.712L702.995 311.732H704.138V314.168H703.367L698.117 322.466V322.589H707.473V324.285H696.049ZM703.49 327.524V323.807V323.074V311.732H705.312V327.524H703.49Z" fill="white"/>
<path d="M935.346 316.755V298.832C935.346 297.889 934.58 297.124 933.636 297.124C932.693 297.124 931.928 297.889 931.928 298.832V316.755C931.928 317.698 932.693 318.462 933.636 318.462C934.58 318.462 935.346 317.698 935.346 316.755Z" fill="#29C770" fill-opacity="0.6" stroke="#29C770" stroke-width="0.47166"/>
<path d="M931.928 303.052V312.534C931.928 314.014 930.845 315.27 929.381 315.489L919.129 317.025C917.322 317.296 915.697 315.898 915.697 314.07V301.516C915.697 299.69 917.322 298.291 919.129 298.561L929.381 300.097C930.845 300.318 931.928 301.573 931.928 303.052Z" fill="#29C770" fill-opacity="0.4" stroke="#29C770" stroke-width="0.47166"/>
<path d="M935.346 343.212V325.289C935.346 324.346 934.58 323.583 933.636 323.583C932.693 323.583 931.928 324.346 931.928 325.289V343.212C931.928 344.155 932.693 344.919 933.636 344.919C934.58 344.919 935.346 344.155 935.346 343.212Z" fill="#29C770" fill-opacity="0.6" stroke="#29C770" stroke-width="0.47166"/>
<path d="M931.928 329.509V338.993C931.928 340.471 930.845 341.727 929.381 341.946L919.129 343.482C917.322 343.753 915.697 342.355 915.697 340.529V327.973C915.697 326.147 917.322 324.748 919.129 325.019L929.381 326.556C930.845 326.775 931.928 328.03 931.928 329.509Z" fill="#29C770" fill-opacity="0.4" stroke="#29C770" stroke-width="0.47166"/>
<path d="M876.397 325.289V343.212C876.397 344.155 877.163 344.919 878.105 344.919C879.048 344.919 879.815 344.155 879.815 343.212V325.289C879.815 324.346 879.048 323.583 878.105 323.583C877.163 323.583 876.397 324.346 876.397 325.289Z" fill="#29C770" fill-opacity="0.6" stroke="#29C770" stroke-width="0.47166"/>
<path d="M879.815 338.993V329.509C879.815 328.03 880.898 326.775 882.361 326.556L892.613 325.019C894.421 324.748 896.046 326.147 896.046 327.973V340.529C896.046 342.355 894.421 343.753 892.613 343.482L882.361 341.946C880.898 341.727 879.815 340.471 879.815 338.993Z" fill="#29C770" fill-opacity="0.4" stroke="#29C770" stroke-width="0.47166"/>
<path d="M876.397 298.832V316.755C876.397 317.698 877.163 318.462 878.105 318.462C879.048 318.462 879.815 317.698 879.815 316.755V298.832C879.815 297.889 879.048 297.124 878.105 297.124C877.163 297.124 876.397 297.889 876.397 298.832Z" fill="#29C770" fill-opacity="0.6" stroke="#29C770" stroke-width="0.47166"/>
<path d="M879.815 312.534V303.052C879.815 301.573 880.898 300.318 882.361 300.097L892.613 298.561C894.421 298.291 896.046 299.69 896.046 301.516V314.07C896.046 315.898 894.421 317.296 892.613 317.025L882.361 315.489C880.898 315.27 879.815 314.014 879.815 312.534Z" fill="#29C770" fill-opacity="0.4" stroke="#29C770" stroke-width="0.47166"/>
<path d="M914.842 284.323H896.901C895.957 284.323 895.193 285.087 895.193 286.03C895.193 286.972 895.957 287.736 896.901 287.736H914.842C915.786 287.736 916.55 286.972 916.55 286.03C916.55 285.087 915.786 284.323 914.842 284.323Z" fill="#29C770" fill-opacity="0.6" stroke="#29C770" stroke-width="0.47166"/>
<path d="M901.125 287.736H910.618C912.098 287.736 913.355 288.818 913.574 290.28L915.112 300.522C915.384 302.328 913.983 303.953 912.156 303.953H899.587C897.759 303.953 896.359 302.328 896.631 300.522L898.169 290.28C898.388 288.818 899.645 287.736 901.125 287.736Z" fill="#29C770" fill-opacity="0.4" stroke="#29C770" stroke-width="0.47166"/>
<path d="M914.838 357.721H896.897C895.953 357.721 895.189 356.957 895.189 356.015C895.189 355.072 895.953 354.308 896.897 354.308H914.838C915.782 354.308 916.546 355.072 916.546 356.015C916.546 356.957 915.782 357.721 914.838 357.721Z" fill="#29C770" fill-opacity="0.6" stroke="#29C770" stroke-width="0.47166"/>
<path d="M901.121 354.308H910.614C912.094 354.308 913.351 353.226 913.57 351.764L915.108 341.522C915.38 339.716 913.98 338.091 912.152 338.091H899.585C897.756 338.091 896.356 339.716 896.627 341.522L898.165 351.764C898.384 353.226 899.641 354.308 901.121 354.308Z" fill="#29C770" fill-opacity="0.4" stroke="#29C770" stroke-width="0.47166"/>
<path d="M925.522 290.724H886.221C884.334 290.724 882.805 292.253 882.805 294.138V347.906C882.805 349.792 884.334 351.321 886.221 351.321H925.522C927.409 351.321 928.938 349.792 928.938 347.906V294.138C928.938 292.253 927.409 290.724 925.522 290.724Z" fill="#29C770"/>
<path d="M901.987 311.732V327.524H900.072V313.737H899.98L896.12 316.296V314.354L900.072 311.732H901.987ZM911.473 327.739C910.567 327.739 909.752 327.56 909.026 327.2C908.299 326.84 907.718 326.346 907.281 325.72C906.843 325.092 906.604 324.377 906.564 323.575H908.415C908.488 324.29 908.812 324.882 909.388 325.349C909.97 325.812 910.665 326.044 911.473 326.044C912.121 326.044 912.697 325.892 913.201 325.588C913.712 325.285 914.11 324.869 914.398 324.339C914.692 323.805 914.838 323.201 914.838 322.528C914.838 321.838 914.686 321.223 914.382 320.684C914.085 320.139 913.672 319.71 913.148 319.397C912.623 319.082 912.024 318.923 911.35 318.918C910.866 318.912 910.368 318.988 909.859 319.142C909.35 319.29 908.93 319.484 908.602 319.721L906.811 319.504L907.767 311.732H915.979V313.428H909.374L908.818 318.085H908.91C909.234 317.828 909.64 317.615 910.129 317.445C910.618 317.276 911.127 317.191 911.658 317.191C912.625 317.191 913.487 317.423 914.244 317.884C915.005 318.342 915.603 318.97 916.034 319.766C916.472 320.563 916.689 321.473 916.689 322.497C916.689 323.503 916.463 324.404 916.01 325.195C915.563 325.982 914.945 326.603 914.159 327.061C913.371 327.513 912.476 327.739 911.473 327.739Z" fill="white"/>
</svg>
