<?xml version="1.0" encoding="UTF-8" standalone="no"?>
<!-- Created with Inkscape (http://www.inkscape.org/) -->

<svg
   version="1.1"
   id="svg1"
   width="35.723629"
   height="40.000008"
   viewBox="0 0 35.723626 40.000008"
   sodipodi:docname="nice_logo2nn.svg"
   xml:space="preserve"
   inkscape:version="1.4 (86a8ad7, 2024-10-11)"
   xmlns:inkscape="http://www.inkscape.org/namespaces/inkscape"
   xmlns:sodipodi="http://sodipodi.sourceforge.net/DTD/sodipodi-0.dtd"
   xmlns="http://www.w3.org/2000/svg"
   xmlns:svg="http://www.w3.org/2000/svg"><defs
     id="defs1"><linearGradient
       id="swatch4"
       inkscape:swatch="solid"><stop
         style="stop-color:#000000;stop-opacity:1;"
         offset="0"
         id="stop4" /></linearGradient></defs><sodipodi:namedview
     id="namedview1"
     pagecolor="#ffffff"
     bordercolor="#000000"
     borderopacity="0.25"
     inkscape:showpageshadow="2"
     inkscape:pageopacity="0.0"
     inkscape:pagecheckerboard="0"
     inkscape:deskcolor="#d1d1d1"
     inkscape:zoom="5.6568542"
     inkscape:cx="57.805979"
     inkscape:cy="30.847533"
     inkscape:window-width="2560"
     inkscape:window-height="1369"
     inkscape:window-x="-8"
     inkscape:window-y="-8"
     inkscape:window-maximized="1"
     inkscape:current-layer="g13"
     showguides="true" /><g
     inkscape:groupmode="layer"
     inkscape:label="Image"
     id="g1"
     transform="translate(-296.90887,-156.88692)"><g
       transform="matrix(0.00512239,0,0,-0.00512239,290.28099,199.84483)"
       fill="#000000"
       stroke="none"
       id="g13"
       style="fill:#20c997;fill-opacity:1"><path
         d="m 1397.1073,5237.2154 c -76.6203,-50.038 -101.6393,-115.7126 -103.2029,-268.9535 0,-165.75 28.146,-248.6252 101.6391,-293.9718 45.3468,-28.1462 76.6204,-31.2736 326.8095,-31.2736 h 275.2077 v -42.2193 c 0,-25.0191 -7.8186,-89.1299 -15.6369,-145.4224 -7.8184,-56.2926 -43.7831,-323.6818 -78.1837,-594.1986 -70.3659,-537.9063 -67.2385,-511.3236 -100.0761,-758.3854 -14.0729,-93.8207 -42.2189,-312.7359 -64.1109,-484.7409 -21.8913,-172.0049 -50.0375,-389.3564 -60.9832,-484.7411 -12.5094,-93.8207 -28.1465,-206.4056 -32.8373,-250.1888 -4.6912,-42.2194 -21.8917,-173.5686 -37.5284,-289.2809 -17.2003,-115.7123 -34.4012,-242.3704 -39.092,-281.4626 -4.6913,-39.0917 -21.8916,-179.8232 -40.6559,-312.73603 -43.7829,-336.19152 -43.7829,-358.08277 -1.5635,-394.04747 31.2737,-23.45532 65.6745,-28.14651 237.6795,-28.14651 204.842,0 272.0801,14.07332 287.717,60.98383 3.1273,14.07294 28.1464,182.95074 53.1655,376.84688 25.0187,193.8963 78.1839,587.9439 117.2757,875.6612 37.5285,287.7173 92.2573,700.5291 118.8399,914.7532 26.5826,215.788 53.1653,406.5571 56.2924,426.8849 l 6.255,34.4008 h 2373.667 2372.1036 l 59.42,-456.5944 c 32.8374,-251.7526 68.8021,-520.7058 81.3116,-598.8901 12.5092,-76.6201 25.0187,-168.8774 29.7098,-203.2783 56.2925,-436.2668 89.1297,-678.6373 95.3844,-711.4749 3.1274,-21.8913 10.9457,-73.4928 15.6368,-117.2759 10.9459,-92.257 53.1653,-415.93885 64.111,-487.86837 4.691,-28.14638 25.019,-64.11095 48.474,-82.87495 35.9649,-28.14626 62.5474,-31.27389 242.3705,-31.27389 217.3519,0 293.9719,20.32807 293.9719,78.18415 0,15.63688 -21.891,189.20548 -46.91,386.22926 -64.111,478.4862 -60.984,458.1585 -68.802,520.7055 -25.019,200.1514 -43.783,331.5003 -64.1113,469.1043 -4.6909,21.8914 -42.2193,300.2268 -84.4386,617.654 -43.7829,318.9908 -120.4034,892.8615 -172.0048,1275.9632 -53.1653,384.6657 -95.3845,702.0928 -95.3845,708.3476 0,4.6909 123.5306,9.382 275.2077,9.382 322.1185,0 361.2105,10.9457 412.8115,115.7125 23.456,50.0375 31.274,96.9482 31.274,197.0236 0,151.6769 -34.401,242.3704 -107.894,286.1536 -42.22,25.0189 -248.6252,26.5826 -3382.2416,26.5826 -3277.4746,0 -3336.8945,0 -3380.6775,-31.2734 z M 6971.629,4557.014 c 23.4551,-178.2595 32.8371,-242.3705 54.7287,-379.9743 12.5096,-79.7477 23.4555,-173.5687 25.019,-207.9696 1.5636,-37.5282 10.9457,-67.2383 26.5826,-76.6204 15.6367,-9.3819 -864.7153,-14.0731 -2297.0472,-15.6368 -1277.527,0 -2314.2473,6.2549 -2304.865,12.5094 20.3277,12.5095 23.4552,35.9646 68.8016,401.866 17.201,137.6038 35.9648,273.6443 40.656,301.7904 l 9.3822,50.0378 2184.4617,-3.1274 2182.8985,-4.6911 z"
         id="path1-3"
         style="fill:#20c997;fill-opacity:1;stroke-width:1.56369" /></g><rect
       style="fill:#56dbd4;fill-opacity:1;stroke-width:0.232266"
       id="rect1-8-5"
       width="6.47052"
       height="6.47052"
       x="317.51959"
       y="156.88692"
       rx="0.54936957" /><rect
       style="fill:#8ae2eb;fill-opacity:0.996078;stroke-width:0.259311"
       id="rect2-9-0"
       width="5.6077843"
       height="5.6077843"
       x="318.40228"
       y="165.31566"
       rx="0.61647201" /><rect
       style="fill:#56dbd4;fill-opacity:0.996078;stroke-width:0.209009"
       id="rect3-2-2"
       width="4.072453"
       height="2.9330096"
       x="331.98441"
       y="-100.71423"
       rx="0.49202141"
       transform="rotate(45.09368)" /><rect
       style="fill:#56dbd4;fill-opacity:0.996078;stroke-width:0.209009"
       id="rect3-7-7-8"
       width="4.072453"
       height="2.9330096"
       x="-101.85146"
       y="-338.00146"
       rx="0.49202141"
       transform="rotate(135.09368)" /><rect
       style="fill:#56dbd4;fill-opacity:0.996078;stroke-width:0.209009"
       id="rect3-7-3-9-6"
       width="4.072453"
       height="2.9330096"
       x="-105.04671"
       y="-337.99591"
       rx="0.49202141"
       transform="rotate(135.09368)" /><rect
       style="fill:#56dbd4;fill-opacity:0.996078;stroke-width:0.209009"
       id="rect3-7-3-8-5-0"
       width="4.072453"
       height="2.9330096"
       x="-108.39438"
       y="-338.00348"
       rx="0.49202141"
       transform="rotate(135.09368)" /><rect
       style="fill:#56dbd4;fill-opacity:0.996078;stroke-width:0.209009"
       id="rect3-7-3-9-6-6"
       width="4.072453"
       height="2.9330096"
       x="-106.75578"
       y="-337.99942"
       rx="0.49202141"
       transform="rotate(135.09368)" /></g></svg>
