<?xml version="1.0" encoding="UTF-8" standalone="no"?>
<!-- Created with Inkscape (http://www.inkscape.org/) -->

<svg
   version="1.1"
   id="svg1"
   width="1157.5034"
   height="867.948"
   viewBox="0 0 1157.5034 867.948"
   sodipodi:docname="nice_logo2.svg"
   xml:space="preserve"
   inkscape:version="1.4 (86a8ad7, 2024-10-11)"
   xmlns:inkscape="http://www.inkscape.org/namespaces/inkscape"
   xmlns:sodipodi="http://sodipodi.sourceforge.net/DTD/sodipodi-0.dtd"
   xmlns="http://www.w3.org/2000/svg"
   xmlns:svg="http://www.w3.org/2000/svg"><defs
     id="defs1"><linearGradient
       id="swatch4"
       inkscape:swatch="solid"><stop
         style="stop-color:#000000;stop-opacity:1;"
         offset="0"
         id="stop4" /></linearGradient></defs><sodipodi:namedview
     id="namedview1"
     pagecolor="#ffffff"
     bordercolor="#000000"
     borderopacity="0.25"
     inkscape:showpageshadow="2"
     inkscape:pageopacity="0.0"
     inkscape:pagecheckerboard="0"
     inkscape:deskcolor="#d1d1d1"
     inkscape:zoom="1"
     inkscape:cx="598"
     inkscape:cy="383.5"
     inkscape:window-width="2560"
     inkscape:window-height="1369"
     inkscape:window-x="-8"
     inkscape:window-y="-8"
     inkscape:window-maximized="1"
     inkscape:current-layer="g1" /><g
     inkscape:groupmode="layer"
     inkscape:label="Image"
     id="g1"
     transform="translate(-294.278,-156.86482)"><g
       transform="matrix(0.13333333,0,0,-0.13333333,190.23781,1275.6128)"
       fill="#000000"
       stroke="none"
       id="g13"
       style="fill:#20c997;fill-opacity:1"><path
         d="m 3205.4869,6707.8559 c -40.9432,-26.7385 -54.3124,-61.8327 -55.148,-143.7191 0,-88.571 15.0403,-132.8565 54.3124,-157.0881 24.2317,-15.0404 40.9432,-16.7116 174.6353,-16.7116 h 147.0612 v -22.5605 c 0,-13.3692 -4.1779,-47.6278 -8.3558,-77.7085 -4.1778,-30.0808 -23.3961,-172.964 -41.7786,-317.5186 -37.601,-287.438 -35.9298,-273.2332 -53.477,-405.2542 -7.5201,-50.1344 -22.5604,-167.1149 -34.2586,-259.0283 -11.698,-91.9133 -26.7383,-208.0582 -32.5873,-259.0284 -6.6846,-50.1344 -15.0405,-110.2958 -17.5471,-133.692 -2.5068,-22.5605 -11.6981,-92.7489 -20.0538,-154.5814 -9.1913,-61.8326 -18.3828,-129.5142 -20.8894,-150.4036 -2.5068,-20.8893 -11.6981,-96.0912 -21.725,-167.1151 -23.3961,-179.6487 -23.3961,-191.3467 -0.8356,-210.5649 16.7116,-12.5337 35.0942,-15.0405 127.0075,-15.0405 109.4603,0 145.39,7.5203 153.7458,32.5876 1.6711,7.5201 15.0404,97.7623 28.4097,201.3736 13.3691,103.6113 41.7787,314.1763 62.668,467.9222 20.0539,153.7459 49.299,374.3378 63.5038,488.8116 14.2048,115.3094 28.4096,217.2496 30.0807,228.1121 l 3.3424,18.3825 h 1268.4033 1267.5678 l 31.7519,-243.9878 c 17.5471,-134.5276 36.7654,-278.2467 43.45,-320.0255 6.6845,-40.9431 13.3691,-90.2421 15.8759,-108.6248 30.0807,-233.1254 47.6277,-362.6396 50.97,-380.1868 1.6712,-11.698 5.849,-39.272 8.3558,-62.6681 5.8491,-49.2989 28.4096,-222.263 34.2586,-260.6995 2.5067,-15.0404 13.3693,-34.2586 25.9028,-44.2855 19.2183,-15.0403 33.4231,-16.7116 129.5142,-16.7116 116.145,0 157.0881,10.8626 157.0881,41.7788 0,8.3558 -11.698,101.1047 -25.0672,206.3872 -34.2585,255.686 -32.5874,244.8236 -36.7653,278.2465 -13.3692,106.9538 -23.3961,177.142 -34.2586,250.6727 -2.5067,11.698 -22.5605,160.4305 -45.121,330.0523 -23.3961,170.4573 -64.3393,477.1135 -91.9133,681.8294 -28.4097,205.5516 -50.9701,375.1734 -50.9701,378.5157 0,2.5067 66.0104,5.0134 147.0612,5.0134 172.1285,0 193.018,5.849 220.5919,61.8327 12.5337,26.7383 16.7116,51.8056 16.7116,105.2824 0,81.0508 -18.3828,129.5142 -57.6548,152.9103 -22.5605,13.3692 -132.8564,14.2048 -1807.3495,14.2048 -1751.366,0 -1783.1178,0 -1806.5139,-16.7114 z m 2978.8262,-363.4754 c 12.5336,-95.2556 17.547,-129.5142 29.2451,-203.0448 6.6847,-42.6143 12.5337,-92.7489 13.3692,-111.1315 0.8356,-20.0538 5.849,-35.9298 14.2048,-40.9432 8.3557,-5.0134 -462.0731,-7.5202 -1227.4603,-8.3558 -682.665,0 -1236.6515,3.3424 -1231.638,6.6846 10.8624,6.6846 12.5337,19.2182 36.7652,214.7429 9.1915,73.5306 19.2183,146.2257 21.7251,161.2661 l 5.0135,26.7383 1167.2987,-1.6711 1166.4633,-2.5067 z"
         id="path1-3"
         style="fill:#20c997;fill-opacity:1;stroke-width:0.835575" /><path
         d="m 1121,3129 c -90,-23 -151,-57 -209,-118 -57,-61 -86,-111 -112,-199 -30,-98 -25,-273 10,-375 59,-174 202,-285 375,-292 151,-7 273,34 350,116 42,45 84,114 74,122 -12,10 -132,77 -133,75 -2,-2 -15,-29 -30,-61 -32,-67 -74,-99 -155,-120 -59,-15 -132,-7 -183,19 -65,34 -126,122 -148,216 -15,65 -12,201 6,279 14,61 23,77 70,128 81,88 171,116 268,86 83,-26 128,-78 142,-164 4,-23 11,-41 16,-41 5,0 36,8 68,18 l 60,17 v 40 c 0,86 -80,194 -174,235 -55,25 -197,44 -207,29 -4,-7 -8,-8 -10,-1 -3,6 -32,3 -78,-9 z"
         id="path2-8"
         style="fill:#20c997;fill-opacity:1" /><path
         d="m 3780,2640 v -490 h 75 75 v 231 c 0,140 4,228 9,224 5,-3 83,-102 172,-220 101,-132 173,-218 189,-225 14,-6 64,-10 109,-8 l 83,3 -201,249 c -198,246 -200,250 -183,272 9,12 91,118 181,236 l 163,213 -88,3 c -86,3 -89,2 -109,-24 -58,-78 -204,-280 -258,-358 l -62,-88 -3,236 -2,236 h -75 -75 z"
         id="path3-7"
         style="fill:#20c997;fill-opacity:1" /><path
         d="m 2493,2840 c -147,-48 -219,-195 -194,-397 19,-157 95,-253 228,-289 122,-33 249,-5 328,74 93,93 129,259 88,406 -23,82 -100,162 -188,195 -77,29 -193,34 -262,11 z m 175,-111 c 94,-40 142,-118 142,-228 0,-100 -66,-205 -145,-231 -64,-21 -155,23 -191,91 -40,77 -36,236 7,306 22,35 65,63 97,63 21,0 30,22 34,80 1,27 2,24 5,-13 4,-47 6,-49 51,-68 z"
         id="path4-4"
         style="fill:#20c997;fill-opacity:1" /><path
         d="m 4692,2834 c -81,-27 -144,-86 -173,-164 -31,-80 -31,-242 0,-321 57,-147 193,-227 356,-208 200,22 314,193 285,427 -17,133 -93,227 -214,265 -76,24 -106,23 -107,-5 -1,-22 -1,-22 -8,2 -9,32 -51,34 -139,4 z m 174,-109 c 91,-27 148,-109 148,-215 0,-116 -62,-216 -149,-240 -87,-24 -181,35 -210,134 -19,64 -19,129 0,194 20,66 55,107 108,125 54,20 45,19 103,2 z"
         id="path5-2"
         style="fill:#20c997;fill-opacity:1" /><path
         d="m 6973,2850 c -53,-11 -75,-23 -124,-67 l -39,-35 v 46 46 h -75 -75 l 2,-477 3,-478 40,-3 c 21,-2 54,-1 72,3 l 33,6 v 181 180 l 28,-30 c 51,-55 108,-77 197,-77 95,0 139,19 202,88 51,55 67,86 82,155 30,145 -13,319 -98,394 -66,58 -163,85 -248,68 z m 84,-131 c 71,-27 113,-108 113,-218 0,-142 -66,-230 -173,-233 -139,-2 -231,153 -186,317 30,110 145,173 246,134 z"
         id="path6-7"
         style="fill:#20c997;fill-opacity:1" /><path
         d="m 7648,2843 c -88,-23 -162,-85 -199,-168 -30,-67 -33,-222 -6,-310 42,-136 143,-213 292,-223 209,-13 358,137 360,363 0,113 -25,177 -98,249 -61,61 -113,87 -194,101 l -33,5 v -64 -64 l 33,-6 c 42,-8 94,-58 121,-116 28,-62 26,-148 -4,-218 -26,-60 -61,-93 -124,-117 -37,-14 -50,-15 -80,-5 -49,16 -93,54 -118,104 -30,59 -30,203 0,263 25,49 66,80 118,91 l 39,8 3,60 3,61 -32,-1 c -18,-1 -54,-7 -81,-13 z"
         id="path7-7"
         style="fill:#20c997;fill-opacity:1" /><path
         d="m 1642,2788 3,-53 113,-3 112,-3 v -289 -290 h 75 75 v 290 290 h 120 120 v 55 55 h -311 -310 z"
         id="path8-9"
         style="fill:#20c997;fill-opacity:1" /><path
         d="m 3150,2712 c 0,-219 -30,-388 -73,-416 -12,-8 -41,-18 -64,-22 l -43,-7 v -57 c 0,-68 3,-70 94,-70 61,0 93,13 124,50 50,58 89,222 98,409 l 7,131 h 99 98 v -290 -290 h 70 70 v 345 345 h -240 -240 z"
         id="path9-3"
         style="fill:#20c997;fill-opacity:1" /><path
         d="m 5280,2495 v -345 h 75 75 v 150 150 h 155 155 v -150 -150 h 65 65 v 345 345 h -65 -65 v -140 -140 h -155 -155 v 140 140 h -75 -75 z"
         id="path10-1"
         style="fill:#20c997;fill-opacity:1" /><path
         d="m 5960,2785 v -55 h 115 115 v -290 -290 h 75 75 v 290 290 h 120 120 v 55 55 h -310 -310 z"
         id="path11-9"
         style="fill:#20c997;fill-opacity:1" /><path
         d="m 8287,2683 c -7,-165 -28,-306 -53,-356 -16,-30 -66,-57 -106,-57 -21,0 -23,-4 -23,-57 0,-32 5,-61 10,-65 17,-13 124,-9 158,6 93,40 143,182 154,444 l 6,133 101,-3 101,-3 3,-287 2,-288 h 75 75 v 345 345 h -248 -249 z"
         id="path12-8"
         style="fill:#20c997;fill-opacity:1" /><path
         d="m 8930,2495 v -345 h 143 c 157,0 226,13 287,54 80,53 109,118 100,222 -6,74 -38,122 -102,152 -52,24 -97,31 -200,32 h -78 v 115 115 h -75 -75 z m 314,1 c 45,-19 66,-52 66,-102 0,-77 -64,-129 -170,-141 l -60,-6 v 132 131 h 65 c 36,0 81,-6 99,-14 z"
         id="path13-6"
         style="fill:#20c997;fill-opacity:1" /></g><rect
       style="fill:#56dbd4;fill-opacity:1;stroke-width:3.23063"
       id="rect1-8-5"
       width="90"
       height="90"
       x="896.96161"
       y="156.86482"
       rx="7.6413121" /><rect
       style="fill:#8ae2eb;fill-opacity:0.996078;stroke-width:3.60684"
       id="rect2-9-0"
       width="78"
       height="78"
       x="909.23932"
       y="274.10245"
       rx="8.5746555" /><rect
       style="fill:#56dbd4;fill-opacity:0.996078;stroke-width:2.90716"
       id="rect3-2-2"
       width="56.644714"
       height="40.795929"
       x="698.61267"
       y="-337.9039"
       rx="6.8436422"
       transform="rotate(45.09368)" /><rect
       style="fill:#56dbd4;fill-opacity:0.996078;stroke-width:2.90716"
       id="rect3-7-7-8"
       width="56.644714"
       height="40.795929"
       x="-353.72162"
       y="-782.30481"
       rx="6.8436422"
       transform="rotate(135.09368)" /><rect
       style="fill:#56dbd4;fill-opacity:0.996078;stroke-width:2.90716"
       id="rect3-7-3-9-6"
       width="56.644714"
       height="40.795929"
       x="-398.16501"
       y="-782.22827"
       rx="6.8436422"
       transform="rotate(135.09368)" /><rect
       style="fill:#56dbd4;fill-opacity:0.996078;stroke-width:2.90716"
       id="rect3-7-3-8-5-0"
       width="56.644714"
       height="40.795929"
       x="-444.7287"
       y="-782.33405"
       rx="6.8436422"
       transform="rotate(135.09368)" /><rect
       style="fill:#56dbd4;fill-opacity:0.996078;stroke-width:2.90716"
       id="rect3-7-3-9-6-6"
       width="56.644714"
       height="40.795929"
       x="-421.93741"
       y="-782.27734"
       rx="6.8436422"
       transform="rotate(135.09368)" /></g></svg>
