<?xml version="1.0" encoding="UTF-8" standalone="no"?>
<!-- Created with Inkscape (http://www.inkscape.org/) -->

<svg
   version="1.1"
   id="svg1"
   width="125"
   height="40"
   viewBox="0 0 124.99999 40"
   sodipodi:docname="nice_logo2n.svg"
   xml:space="preserve"
   inkscape:version="1.4 (86a8ad7, 2024-10-11)"
   xmlns:inkscape="http://www.inkscape.org/namespaces/inkscape"
   xmlns:sodipodi="http://sodipodi.sourceforge.net/DTD/sodipodi-0.dtd"
   xmlns="http://www.w3.org/2000/svg"
   xmlns:svg="http://www.w3.org/2000/svg"><defs
     id="defs1"><linearGradient
       id="swatch4"
       inkscape:swatch="solid"><stop
         style="stop-color:#000000;stop-opacity:1;"
         offset="0"
         id="stop4" /></linearGradient></defs><sodipodi:namedview
     id="namedview1"
     pagecolor="#ffffff"
     bordercolor="#000000"
     borderopacity="0.25"
     inkscape:showpageshadow="2"
     inkscape:pageopacity="0.0"
     inkscape:pagecheckerboard="0"
     inkscape:deskcolor="#d1d1d1"
     inkscape:zoom="11.313708"
     inkscape:cx="62.313785"
     inkscape:cy="7.7339804"
     inkscape:window-width="2560"
     inkscape:window-height="1369"
     inkscape:window-x="-8"
     inkscape:window-y="-8"
     inkscape:window-maximized="1"
     inkscape:current-layer="g13"
     showguides="true" /><g
     inkscape:groupmode="layer"
     inkscape:label="Image"
     id="g1"
     transform="translate(-294.278,-156.86482)"><g
       transform="matrix(0.00512239,0,0,-0.00512239,290.28099,199.84483)"
       fill="#000000"
       stroke="none"
       id="g13"
       style="fill:#20c997;fill-opacity:1"><path
         d="m 3463.001,5809.2008 c -60.2893,-39.3728 -79.9757,-91.0493 -81.206,-211.6281 0,-130.4217 22.1469,-195.6327 79.9755,-231.314 35.6815,-22.1471 60.2894,-24.6079 257.1526,-24.6079 h 216.5493 v -33.2206 c 0,-19.6864 -6.1521,-70.1325 -12.304,-114.4267 -6.152,-44.2943 -34.4511,-254.6915 -61.5195,-467.5498 -55.3679,-423.2557 -52.9071,-402.3389 -78.7456,-596.7414 -11.0734,-73.8235 -33.2203,-246.0786 -50.4462,-381.4221 -17.2253,-135.3434 -39.3724,-306.3681 -47.9851,-381.4223 -9.8431,-73.8235 -22.1473,-162.4118 -25.8383,-196.863 -3.6913,-33.2206 -17.2256,-136.5738 -29.5295,-227.6229 -13.5342,-91.0491 -27.0688,-190.711 -30.7598,-221.471 -3.6914,-30.7596 -17.2256,-141.4953 -31.9904,-246.0788 -34.4509,-264.5349 -34.4509,-281.7602 -1.2303,-310.0593 24.608,-18.456 51.6765,-22.1473 187.02,-22.1473 161.1815,0 214.0883,11.0737 226.3923,47.9856 2.4608,11.0734 22.1472,143.9562 41.8337,296.5249 19.6862,152.5688 61.5196,462.6282 92.2793,689.0208 29.5296,226.3926 72.5934,551.2167 93.5101,719.7806 20.9167,169.7945 41.8335,319.9026 44.2941,335.8977 l 4.9218,27.0685 h 1867.7382 1866.5081 l 46.7551,-359.2748 c 25.8383,-198.0935 54.1374,-409.7214 63.9806,-471.2413 9.843,-60.2891 19.6862,-132.8825 23.3774,-159.9511 44.2942,-343.2799 70.1324,-533.991 75.054,-559.8295 2.4608,-17.2254 8.6127,-57.8284 12.3039,-92.2795 8.6129,-72.5931 41.8335,-327.2847 50.4462,-383.883 3.6912,-22.1472 19.6864,-50.4462 38.1422,-65.2108 28.2992,-22.1471 49.2159,-24.6081 190.7111,-24.6081 171.0249,0 231.314,15.9953 231.314,61.5198 0,12.304 -17.2254,148.8778 -36.9117,303.9075 -50.446,376.5006 -47.9853,360.5056 -54.1374,409.7212 -19.6862,157.4906 -34.4509,260.8435 -50.4462,369.1183 -3.6911,17.2254 -33.2206,236.2358 -66.4412,486.0058 -34.4509,251.0004 -94.7403,702.555 -135.3433,1004.0015 -41.8335,302.6772 -75.054,552.4472 -75.054,557.3688 0,3.6911 97.201,7.3823 216.5493,7.3823 253.4611,0 284.2212,8.6127 324.8241,91.0493 18.456,39.3724 24.6079,76.2844 24.6079,155.0295 0,119.3482 -27.0689,190.7111 -84.8973,225.1622 -33.2206,19.6863 -195.6325,20.9167 -2661.3428,20.9167 -2578.9062,0 -2625.6612,0 -2660.1122,-24.6077 z m 4386.3555,-535.2217 c 18.4558,-140.2649 25.8381,-190.7111 43.0637,-298.9857 9.8433,-62.7501 18.4561,-136.5739 19.6864,-163.6425 1.2303,-29.5294 8.6127,-52.907 20.9167,-60.2894 12.3039,-7.3822 -680.4079,-11.0735 -1807.4493,-12.3039 -1005.232,0 -1820.9834,4.9217 -1813.6009,9.8431 15.995,9.8432 18.4559,28.299 54.1371,316.2114 13.5347,108.2746 28.2992,215.3191 31.9905,237.4661 l 7.3824,39.3726 1718.8606,-2.4608 1717.6306,-3.6912 z"
         id="path1-3"
         style="fill:#20c997;fill-opacity:1;stroke-width:1.2304" /><path
         d="M 1188.9992,2078.8465 C 1081.0363,2051.256 1007.8615,2010.47 938.2854,1937.2952 869.90891,1864.1203 835.12087,1804.141 803.93159,1698.5773 767.94396,1581.0177 773.9419,1371.0898 815.92747,1248.7319 886.70314,1040.0036 1058.2442,906.84942 1265.7728,898.45231 c 181.1378,-8.39712 327.4874,40.78598 419.8557,139.15219 50.3827,53.9814 100.7654,136.753 88.7695,146.3497 -14.3951,11.9958 -158.3456,92.3682 -159.5452,89.969 -2.3991,-2.3991 -17.9938,-34.788 -35.9876,-73.1748 -38.3868,-80.3724 -88.7695,-118.7592 -185.9361,-143.9505 -70.7757,-17.9938 -158.3456,-8.3971 -219.5245,22.7921 -77.9732,40.786 -151.1481,146.3497 -177.53899,259.111 -17.99381,77.9732 -14.39505,241.1171 7.19749,334.6849 16.7943,73.1749 27.5906,92.3683 83.9712,153.5472 97.1666,105.5637 205.1295,139.1522 321.4895,103.1646 99.5657,-31.1893 153.5472,-93.5679 170.3414,-196.7324 4.7983,-27.5905 13.1955,-49.1831 19.1934,-49.1831 5.9979,0 43.1852,9.5967 81.572,21.5926 l 71.9752,20.393 v 47.9835 c 0,103.1645 -95.967,232.72 -208.7282,281.9031 -65.9774,29.9897 -236.3188,52.7818 -248.3147,34.788 -4.7983,-8.3971 -9.5967,-9.5967 -11.9958,-1.1996 -3.5988,7.1975 -38.3869,3.5988 -93.5679,-10.7963 z"
         id="path2-8"
         style="fill:#20c997;fill-opacity:1;stroke-width:1.19959" /><path
         d="M 4378.7027,1492.2482 V 904.45024 h 89.9691 89.9691 V 1181.555 c 0,167.9423 4.7983,273.506 10.7963,268.7076 5.9979,-3.5987 99.5657,-122.3579 206.329,-263.9093 121.1584,-158.3455 207.5287,-261.51007 226.7221,-269.90718 16.7942,-7.19752 76.7736,-11.99588 130.755,-9.5967 l 99.5658,3.59876 -241.1171,298.69732 c -237.5183,295.0986 -239.9175,299.8969 -219.5245,326.2878 10.7963,14.3951 109.1624,141.5514 217.1253,283.1027 l 195.5328,255.5122 -105.5637,3.5987 c -103.1645,3.5988 -106.7633,2.3992 -130.7551,-28.7901 -69.576,-93.5678 -244.7158,-335.8845 -309.4936,-429.4523 l -74.3744,-105.5637 -3.5988,283.1026 -2.3991,283.1027 h -89.9691 -89.9691 z"
         id="path3-7"
         style="fill:#20c997;fill-opacity:1;stroke-width:1.19959" /><path
         d="m 2834.8334,1732.1657 c -176.3393,-57.5802 -262.7096,-233.9196 -232.72,-476.2363 22.7922,-188.3352 113.9609,-303.49565 273.506,-346.6808 146.3497,-39.5864 298.6973,-5.99794 393.4648,88.76948 111.5616,111.56162 154.7468,310.69322 105.5637,487.03262 -27.5905,98.3661 -119.9588,194.3332 -225.5225,233.9195 -92.3682,34.7881 -231.5204,40.786 -314.292,13.1955 z m 209.9279,-133.1542 c 112.7612,-47.9835 170.3414,-141.5514 170.3414,-273.506 0,-119.9588 -79.1728,-245.9155 -173.9402,-277.1047 -76.7736,-25.1914 -185.9361,27.5905 -229.1212,109.1624 -47.9835,92.3683 -43.1852,283.1027 8.3971,367.0738 26.3909,41.9856 77.9732,75.5741 116.36,75.5741 25.1913,0 35.9876,26.3909 40.786,95.967 1.1996,32.3888 2.3991,28.7901 5.9979,-15.5947 4.7984,-56.3806 7.1975,-58.7798 61.179,-81.5719 z"
         id="path4-4"
         style="fill:#20c997;fill-opacity:1;stroke-width:1.19959" /><path
         d="m 5472.7266,1724.9682 c -97.1666,-32.3889 -172.7406,-103.1646 -207.5286,-196.7324 -37.1872,-95.967 -37.1872,-290.3002 0,-385.0676 68.3765,-176.3394 231.5204,-272.30641 427.0532,-249.51424 239.9175,26.39092 376.6705,231.52044 341.8825,512.22394 -20.393,159.5451 -111.5617,272.3064 -256.7118,317.8907 -91.1687,28.7901 -127.1563,27.5905 -128.3559,-5.9979 -1.1996,-26.391 -1.1996,-26.391 -9.5967,2.3991 -10.7963,38.3868 -61.1789,40.786 -166.7427,4.7984 z m 208.7283,-130.7551 c 109.1625,-32.3888 177.539,-130.755 177.539,-257.9113 0,-139.1522 -74.3745,-259.1109 -178.7386,-287.901 -104.3641,-28.7901 -217.1254,41.9855 -251.9134,160.7447 -22.7922,76.7736 -22.7922,154.7468 0,232.72 23.9918,79.1728 65.9773,128.3559 129.5555,149.9485 64.7777,23.9917 53.9814,22.7921 123.5575,2.3991 z"
         id="path5-2"
         style="fill:#20c997;fill-opacity:1;stroke-width:1.19959" /><path
         d="m 8208.986,1744.1616 c -63.5781,-13.1955 -89.969,-27.5905 -148.7488,-80.3724 l -46.784,-41.9856 v 55.1811 55.181 h -89.969 -89.9691 l 2.3992,-572.2033 3.5987,-573.40288 47.9835,-3.59876 c 25.1914,-2.39918 64.7778,-1.19959 86.3703,3.59876 l 39.5864,7.19753 v 217.12536 215.92579 l 33.5885,-35.98765 c 61.179,-65.97732 129.5555,-92.36824 236.3188,-92.36824 113.9608,0 166.7426,22.79216 242.3167,105.56369 61.1789,65.9773 80.3723,103.1646 98.3661,185.9361 35.9877,173.9402 -15.5946,382.6685 -117.5595,472.6375 -79.1728,69.5761 -195.5328,101.965 -297.4978,81.572 z m 100.7654,-157.146 c 85.1707,-32.3889 135.5534,-129.5555 135.5534,-261.5101 0,-170.3414 -79.1728,-275.9052 -207.5287,-279.5039 -166.7427,-2.3992 -277.1047,183.5369 -223.1233,380.2693 35.9877,131.9546 173.9402,207.5286 295.0986,160.7447 z"
         id="path6-7"
         style="fill:#20c997;fill-opacity:1;stroke-width:1.19959" /><path
         d="m 9018.7077,1735.7645 c -105.5637,-27.5905 -194.3332,-101.965 -238.718,-201.5308 -35.9876,-80.3723 -39.5864,-266.3084 -7.1975,-371.8721 50.3827,-163.14393 171.541,-255.51218 350.2796,-267.50806 250.7138,-15.59464 429.4524,164.34346 431.8515,435.45036 0,135.5534 -29.9896,212.327 -117.5595,298.6973 -73.1749,73.1748 -135.5534,104.3641 -232.72,121.1583 l -39.5864,5.998 v -76.7736 -76.7737 l 39.5864,-7.1975 c 50.3826,-9.5967 112.7612,-69.5761 145.1501,-139.1521 33.5884,-74.3745 31.1892,-177.539 -4.7984,-261.5101 -31.1893,-71.9753 -73.1748,-111.5617 -148.7489,-140.3518 -44.3847,-16.7942 -59.9793,-17.9938 -95.967,-5.9979 -58.7798,19.1934 -111.5616,64.7777 -141.5513,124.7571 -35.9876,70.7756 -35.9876,243.5163 0,315.4915 29.9897,58.7798 79.1728,95.967 141.5513,109.1625 l 46.7839,9.5967 3.5988,71.9753 3.5988,73.1748 -38.3868,-1.1996 c -21.5926,-1.1996 -64.7778,-8.3971 -97.1666,-15.5946 z"
         id="path7-7"
         style="fill:#20c997;fill-opacity:1;stroke-width:1.19959" /><path
         d="m 1813.9844,1669.7872 3.5987,-63.5782 135.5534,-3.5988 134.3539,-3.5987 V 1252.3307 904.45024 h 89.969 89.9691 v 347.88046 347.8804 h 143.9505 143.9505 v 65.9773 65.9773 h -373.0717 -371.8722 z"
         id="path8-9"
         style="fill:#20c997;fill-opacity:1;stroke-width:1.19959" /><path
         d="m 3622.9625,1578.6185 c 0,-262.7097 -35.9876,-465.44 -87.5699,-499.0285 -14.395,-9.5967 -49.1831,-21.5925 -76.7736,-26.3909 l -51.5823,-8.3971 v -68.3765 c 0,-81.57196 3.5988,-83.97113 112.7613,-83.97113 73.1748,0 111.5616,15.59464 148.7488,59.97938 59.9794,69.57605 106.7633,266.30845 117.5596,490.63135 l 8.3971,157.146 h 118.7592 117.5596 V 1252.3307 904.45024 h 83.9711 83.9712 v 413.85776 413.8577 h -287.9011 -287.901 z"
         id="path9-3"
         style="fill:#20c997;fill-opacity:1;stroke-width:1.19959" /><path
         d="M 6178.0842,1318.308 V 904.45024 h 89.969 89.9691 v 179.93816 179.9381 h 185.9361 185.9361 V 1084.3884 904.45024 h 77.9732 77.9732 v 413.85776 413.8577 h -77.9732 -77.9732 v -167.9423 -167.9422 h -185.9361 -185.9361 v 167.9422 167.9423 h -89.9691 -89.969 z"
         id="path10-1"
         style="fill:#20c997;fill-opacity:1;stroke-width:1.19959" /><path
         d="m 6993.8038,1666.1884 v -65.9773 h 137.9525 137.9526 V 1252.3307 904.45024 h 89.9691 89.9691 v 347.88046 347.8804 h 143.9505 143.9505 v 65.9773 65.9773 h -371.8722 -371.8721 z"
         id="path11-9"
         style="fill:#20c997;fill-opacity:1;stroke-width:1.19959" /><path
         d="m 9785.2442,1543.8305 c -8.3971,-197.932 -33.5885,-367.0739 -63.5782,-427.0532 -19.1934,-35.9877 -79.1728,-68.3765 -127.1563,-68.3765 -25.1913,0 -27.5905,-4.7984 -27.5905,-68.37653 0,-38.38681 5.998,-73.17485 11.9959,-77.9732 20.393,-15.59464 148.7489,-10.79629 189.5348,7.19753 111.5617,47.9835 171.5411,218.3249 184.7365,532.6169 l 7.1976,159.5452 121.158,-3.5988 121.159,-3.5988 3.598,-344.2816 2.4,-345.48126 h 89.969 89.969 v 413.85776 413.8577 h -297.498 -298.6973 z"
         id="path12-8"
         style="fill:#20c997;fill-opacity:1;stroke-width:1.19959" /><path
         d="M 10556.579,1318.308 V 904.45024 h 171.541 c 188.335,0 271.107,15.59464 344.282,64.77774 95.967,63.57812 130.755,141.55132 119.958,266.30842 -7.197,88.7695 -45.584,146.3497 -122.357,182.3373 -62.379,28.7902 -116.36,37.1873 -239.918,38.3869 h -93.568 v 137.9525 137.9526 h -89.969 -89.969 z m 376.671,1.1996 c 53.981,-22.7922 79.172,-62.3786 79.172,-122.358 0,-92.3682 -76.773,-154.7468 -203.93,-169.1418 l -71.975,-7.1976 v 158.3456 157.146 h 77.973 c 43.186,0 97.167,-7.1975 118.76,-16.7942 z"
         id="path13-6"
         style="fill:#20c997;fill-opacity:1;stroke-width:1.19959" /></g><rect
       style="fill:#56dbd4;fill-opacity:1;stroke-width:0.18276"
       id="rect1-8-5"
       width="5.0913787"
       height="5.0913787"
       x="323.82156"
       y="157.39516"
       rx="0.43227571" /><rect
       style="fill:#8ae2eb;fill-opacity:0.996078;stroke-width:0.204041"
       id="rect2-9-0"
       width="4.4125285"
       height="4.4125285"
       x="324.51611"
       y="164.02737"
       rx="0.48507577" /><rect
       style="fill:#56dbd4;fill-opacity:0.996078;stroke-width:0.16446"
       id="rect3-2-2"
       width="3.2044411"
       height="2.3078613"
       x="337.49353"
       y="-107.67896"
       rx="0.38715085"
       transform="rotate(45.09368)" /><rect
       style="fill:#56dbd4;fill-opacity:0.996078;stroke-width:0.16446"
       id="rect3-7-7-8"
       width="3.2044411"
       height="2.3078613"
       x="-108.57379"
       y="-342.22809"
       rx="0.38715085"
       transform="rotate(135.09368)" /><rect
       style="fill:#56dbd4;fill-opacity:0.996078;stroke-width:0.16446"
       id="rect3-7-3-9-6"
       width="3.2044411"
       height="2.3078613"
       x="-111.088"
       y="-342.22372"
       rx="0.38715085"
       transform="rotate(135.09368)" /><rect
       style="fill:#56dbd4;fill-opacity:0.996078;stroke-width:0.16446"
       id="rect3-7-3-8-5-0"
       width="3.2044411"
       height="2.3078613"
       x="-113.72214"
       y="-342.22968"
       rx="0.38715085"
       transform="rotate(135.09368)" /><rect
       style="fill:#56dbd4;fill-opacity:0.996078;stroke-width:0.16446"
       id="rect3-7-3-9-6-6"
       width="3.2044411"
       height="2.3078613"
       x="-112.4328"
       y="-342.2265"
       rx="0.38715085"
       transform="rotate(135.09368)" /></g></svg>
