<?xml version="1.0" encoding="UTF-8" standalone="no"?>
<svg
   width="890"
   height="353"
   viewBox="0 0 890 353"
   fill="none"
   version="1.1"
   id="svg210"
   sodipodi:docname="Frame12 1 (1).svg"
   inkscape:version="1.4 (86a8ad7, 2024-10-11)"
   xmlns:inkscape="http://www.inkscape.org/namespaces/inkscape"
   xmlns:sodipodi="http://sodipodi.sourceforge.net/DTD/sodipodi-0.dtd"
   xmlns="http://www.w3.org/2000/svg"
   xmlns:svg="http://www.w3.org/2000/svg">
  <defs
     id="defs210" />
  <sodipodi:namedview
     id="namedview210"
     pagecolor="#ffffff"
     bordercolor="#000000"
     borderopacity="0.25"
     inkscape:showpageshadow="2"
     inkscape:pageopacity="0.0"
     inkscape:pagecheckerboard="0"
     inkscape:deskcolor="#d1d1d1"
     inkscape:zoom="1"
     inkscape:cx="458.5"
     inkscape:cy="94.5"
     inkscape:window-width="2560"
     inkscape:window-height="1369"
     inkscape:window-x="-8"
     inkscape:window-y="-8"
     inkscape:window-maximized="1"
     inkscape:current-layer="svg210" />
  <g
     id="table1">
    <path
       d="M77.5071 50.2993V33.6497C77.5071 32.7739 76.7978 32.064 75.923 32.064C75.0482 32.064 74.3388 32.7739 74.3388 33.6497V50.2993C74.3388 51.1751 75.0482 51.885 75.923 51.885C76.7978 51.885 77.5071 51.1751 77.5071 50.2993Z"
       fill="#29C770"
       fill-opacity="0.6"
       stroke="#29C770"
       stroke-width="0.47166"
       id="path1" />
    <path
       d="M74.339 37.57V46.379C74.339 47.7525 73.335 48.9193 71.978 49.1232L62.4736 50.5503C60.7976 50.8019 59.2903 49.5026 59.2903 47.806V36.1429C59.2903 34.4464 60.7976 33.1471 62.4736 33.3987L71.978 34.8258C73.335 35.0296 74.339 36.1965 74.339 37.57Z"
       fill="#29C770"
       fill-opacity="0.4"
       stroke="#29C770"
       stroke-width="0.47166"
       id="path2" />
    <path
       d="M77.5071 74.8772V58.2277C77.5071 57.352 76.7978 56.6421 75.923 56.6421C75.0482 56.6421 74.3388 57.352 74.3388 58.2277V74.8772C74.3388 75.753 75.0482 76.4629 75.923 76.4629C76.7978 76.4629 77.5071 75.753 77.5071 74.8772Z"
       fill="#29C770"
       fill-opacity="0.6"
       stroke="#29C770"
       stroke-width="0.47166"
       id="path3" />
    <path
       d="M74.339 62.148V70.9569C74.339 72.3304 73.335 73.4973 71.978 73.7011L62.4736 75.1282C60.7976 75.3798 59.2903 74.0805 59.2903 72.384V60.7209C59.2903 59.0245 60.7976 57.7251 62.4736 57.9768L71.978 59.4039C73.335 59.6076 74.339 60.7745 74.339 62.148Z"
       fill="#29C770"
       fill-opacity="0.4"
       stroke="#29C770"
       stroke-width="0.47166"
       id="path4" />
    <path
       d="M22.8569 58.2277V74.8772C22.8569 75.753 23.566 76.463 24.4409 76.463C25.3158 76.463 26.0249 75.753 26.0249 74.8772V58.2277C26.0249 57.352 25.3158 56.6421 24.4409 56.6421C23.566 56.6421 22.8569 57.352 22.8569 58.2277Z"
       fill="#29C770"
       fill-opacity="0.6"
       stroke="#29C770"
       stroke-width="0.47166"
       id="path5" />
    <path
       d="M26.0249 70.9569V62.148C26.0249 60.7745 27.0288 59.6076 28.3858 59.4039L37.8901 57.9768C39.5662 57.7251 41.0735 59.0245 41.0735 60.7211V72.384C41.0735 74.0805 39.5662 75.3798 37.8901 75.1282L28.3858 73.7011C27.0288 73.4973 26.0249 72.3304 26.0249 70.9569Z"
       fill="#29C770"
       fill-opacity="0.4"
       stroke="#29C770"
       stroke-width="0.47166"
       id="path6" />
    <path
       d="M22.8569 33.6497V50.2993C22.8569 51.1751 23.566 51.885 24.4409 51.885C25.3158 51.885 26.0249 51.1751 26.0249 50.2993V33.6497C26.0249 32.7739 25.3158 32.064 24.4409 32.064C23.566 32.064 22.8569 32.7739 22.8569 33.6497Z"
       fill="#29C770"
       fill-opacity="0.6"
       stroke="#29C770"
       stroke-width="0.47166"
       id="path7" />
    <path
       d="M26.0249 46.379V37.57C26.0249 36.1965 27.0288 35.0296 28.3858 34.8258L37.8901 33.3987C39.5662 33.1471 41.0735 34.4464 41.0735 36.143V47.8061C41.0735 49.5026 39.5662 50.8019 37.8901 50.5503L28.3858 49.1232C27.0288 48.9194 26.0249 47.7525 26.0249 46.379Z"
       fill="#29C770"
       fill-opacity="0.4"
       stroke="#29C770"
       stroke-width="0.47166"
       id="path8" />
    <path
       d="M58.4982 20.1714H41.8656C40.9907 20.1714 40.2816 20.8813 40.2816 21.7571C40.2816 22.6329 40.9907 23.3427 41.8656 23.3427H58.4982C59.3731 23.3427 60.0824 22.6329 60.0824 21.7571C60.0824 20.8813 59.3731 20.1714 58.4982 20.1714Z"
       fill="#29C770"
       fill-opacity="0.6"
       stroke="#29C770"
       stroke-width="0.47166"
       id="path9" />
    <path
       d="M45.7819 23.3427H54.5818C55.954 23.3427 57.1197 24.3478 57.3232 25.7061L58.7489 35.2202C59.0003 36.8979 57.7022 38.4067 56.0075 38.4067H44.3562C42.6616 38.4067 41.3635 36.8979 41.6149 35.2202L43.0406 25.7061C43.2441 24.3478 44.4098 23.3427 45.7819 23.3427Z"
       fill="#29C770"
       fill-opacity="0.4"
       stroke="#29C770"
       stroke-width="0.47166"
       id="path10" />
    <path
       d="M58.4953 88.3556H41.8626C40.9878 88.3556 40.2785 87.6456 40.2785 86.7698C40.2785 85.8942 40.9878 85.1841 41.8626 85.1841H58.4953C59.3702 85.1841 60.0794 85.8942 60.0794 86.7698C60.0794 87.6456 59.3702 88.3556 58.4953 88.3556Z"
       fill="#29C770"
       fill-opacity="0.6"
       stroke="#29C770"
       stroke-width="0.47166"
       id="path11" />
    <path
       d="M45.7789 85.1842H54.579C55.9511 85.1842 57.1168 84.1793 57.3204 82.8209L58.746 73.3069C58.9974 71.6291 57.6994 70.1203 56.0047 70.1203H44.3534C42.6585 70.1203 41.3605 71.6291 41.6119 73.3069L43.0375 82.8209C43.2412 84.1793 44.4068 85.1842 45.7789 85.1842Z"
       fill="#29C770"
       fill-opacity="0.4"
       stroke="#29C770"
       stroke-width="0.47166"
       id="path12" />
    <path
       d="M68.3987 26.1178H31.9651C30.2155 26.1178 28.797 27.5375 28.797 29.2891V79.2379C28.797 80.9893 30.2155 82.4092 31.9651 82.4092H68.3987C70.1484 82.4092 71.5667 80.9893 71.5667 79.2379V29.2891C71.5667 27.5375 70.1484 26.1178 68.3987 26.1178Z"
       fill="#29C770"
       id="path13" />
    <path
       d="M52.0089 44.1631V58.8333H50.2343V46.0256H50.1483L46.5705 48.4039V46.5987L50.2343 44.1631H52.0089Z"
        fill="white"
        class="number"
       id="path14" />
  </g>
  <g
     id="table2">
    <path
       d="M240.265 26.9105H223.632C222.757 26.9105 222.048 27.6206 222.048 28.4962C222.048 29.3719 222.757 30.082 223.632 30.082H240.265C241.14 30.082 241.848 29.3719 241.848 28.4962C241.848 27.6206 241.14 26.9105 240.265 26.9105Z"
       fill="#29C770"
       fill-opacity="0.6"
       stroke="#29C770"
       stroke-width="0.47166"
       id="path15" />
    <path
       d="M227.548 30.082H236.349C237.721 30.082 238.886 31.0868 239.089 32.4452L240.515 41.9592C240.767 43.637 239.469 45.1458 237.774 45.1458H226.122C224.428 45.1458 223.13 43.637 223.382 41.9592L224.807 32.4452C225.01 31.0868 226.176 30.082 227.548 30.082Z"
       fill="#29C770"
       fill-opacity="0.4"
       stroke="#29C770"
       stroke-width="0.47166"
       id="path16" />
    <path
       d="M264.817 26.9105H248.186C247.311 26.9105 246.601 27.6206 246.601 28.4962C246.601 29.3719 247.311 30.082 248.186 30.082H264.817C265.692 30.082 266.402 29.3719 266.402 28.4962C266.402 27.6206 265.692 26.9105 264.817 26.9105Z"
       fill="#29C770"
       fill-opacity="0.6"
       stroke="#29C770"
       stroke-width="0.47166"
       id="path17" />
    <path
       d="M252.102 30.082H260.901C262.273 30.082 263.44 31.0868 263.643 32.4452L265.069 41.9592C265.319 43.637 264.021 45.1458 262.327 45.1458H250.676C248.982 45.1458 247.684 43.637 247.934 41.9592L249.36 32.4452C249.563 31.0868 250.73 30.082 252.102 30.082Z"
       fill="#29C770"
       fill-opacity="0.4"
       stroke="#29C770"
       stroke-width="0.47166"
       id="path18" />
    <path
       d="M248.186 81.6163H264.817C265.692 81.6163 266.402 80.9064 266.402 80.0306C266.402 79.1549 265.692 78.445 264.817 78.445H248.186C247.311 78.445 246.601 79.1549 246.601 80.0306C246.601 80.9064 247.311 81.6163 248.186 81.6163Z"
       fill="#29C770"
       fill-opacity="0.6"
       stroke="#29C770"
       stroke-width="0.47166"
       id="path19" />
    <path
       d="M260.901 78.445H252.102C250.73 78.445 249.563 77.4401 249.36 76.0818L247.934 66.5677C247.684 64.89 248.982 63.3812 250.676 63.3812H262.327C264.021 63.3812 265.319 64.89 265.069 66.5677L263.643 76.0818C263.438 77.4401 262.273 78.445 260.901 78.445Z"
       fill="#29C770"
       fill-opacity="0.4"
       stroke="#29C770"
       stroke-width="0.47166"
       id="path20" />
    <path
       d="M223.632 81.6163H240.265C241.14 81.6163 241.848 80.9064 241.848 80.0306C241.848 79.1549 241.14 78.445 240.265 78.445H223.632C222.757 78.445 222.048 79.1549 222.048 80.0306C222.048 80.9064 222.757 81.6163 223.632 81.6163Z"
       fill="#29C770"
       fill-opacity="0.6"
       stroke="#29C770"
       stroke-width="0.47166"
       id="path21" />
    <path
       d="M236.349 78.445H227.548C226.176 78.445 225.01 77.4401 224.807 76.0818L223.382 66.5677C223.13 64.89 224.428 63.3812 226.122 63.3812H237.774C239.469 63.3812 240.767 64.89 240.515 66.5677L239.089 76.0818C238.886 77.4401 237.721 78.445 236.349 78.445Z"
       fill="#29C770"
       fill-opacity="0.4"
       stroke="#29C770"
       stroke-width="0.47166"
       id="path22" />
    <path
       d="M210.168 45.9385V62.5882C210.168 63.464 210.876 64.1739 211.751 64.1739C212.626 64.1739 213.336 63.464 213.336 62.5882V45.9385C213.336 45.0629 212.626 44.3529 211.751 44.3529C210.876 44.3529 210.168 45.0629 210.168 45.9385Z"
       fill="#29C770"
       fill-opacity="0.6"
       stroke="#29C770"
       stroke-width="0.47166"
       id="path23" />
    <path
       d="M213.336 58.6679V49.859C213.336 48.4855 214.339 47.3186 215.696 47.1149L225.2 45.6878C226.876 45.4361 228.384 46.7355 228.384 48.4319V60.0949C228.384 61.7914 226.876 63.0908 225.2 62.8392L215.696 61.4121C214.339 61.2083 213.336 60.0414 213.336 58.6679Z"
       fill="#29C770"
       fill-opacity="0.4"
       stroke="#29C770"
       stroke-width="0.47166"
       id="path24" />
    <path
       d="M278.283 45.9416V62.5913C278.283 63.4669 277.573 64.1769 276.698 64.1769C275.823 64.1769 275.114 63.4669 275.114 62.5913V45.9416C275.114 45.0658 275.823 44.356 276.698 44.356C277.573 44.356 278.283 45.0658 278.283 45.9416Z"
       fill="#29C770"
       fill-opacity="0.6"
       stroke="#29C770"
       stroke-width="0.47166"
       id="path25" />
    <path
       d="M275.114 58.6708V49.8619C275.114 48.4884 274.11 47.3215 272.753 47.1178L263.249 45.6906C261.573 45.439 260.065 46.7384 260.065 48.4348V60.0979C260.065 61.7943 261.573 63.0937 263.249 62.8421L272.753 61.4151C274.11 61.2112 275.114 60.0445 275.114 58.6708Z"
       fill="#29C770"
       fill-opacity="0.4"
       stroke="#29C770"
       stroke-width="0.47166"
       id="path26" />
    <path
       d="M216.107 36.0282V72.4988C216.107 74.2502 217.526 75.6701 219.276 75.6701H269.175C270.924 75.6701 272.342 74.2502 272.342 72.4988V36.0282C272.342 34.2766 270.924 32.8569 269.175 32.8569H219.276C217.526 32.8569 216.107 34.2766 216.107 36.0282Z"
       fill="#29C770"
       id="path27" />
    <path
       d="M239.969 60.5143V59.225L244.807 53.9241C245.375 53.3033 245.843 52.7637 246.209 52.3053C246.577 51.8421 246.849 51.4075 247.025 51.0016C247.207 50.5909 247.297 50.1611 247.297 49.7123C247.297 49.1964 247.173 48.75 246.925 48.3727C246.683 47.9955 246.349 47.7042 245.924 47.4988C245.499 47.2934 245.022 47.1909 244.493 47.1909C243.929 47.1909 243.439 47.3079 243.019 47.5419C242.604 47.771 242.282 48.0934 242.051 48.5089C241.828 48.9243 241.716 49.4114 241.716 49.9702H240.028C240.028 49.1105 240.224 48.3559 240.621 47.7066C241.017 47.0571 241.556 46.5509 242.238 46.188C242.925 45.8251 243.695 45.6436 244.55 45.6436C245.408 45.6436 246.169 45.8251 246.832 46.188C247.496 46.5509 248.016 47.0404 248.392 47.6565C248.768 48.2724 248.958 48.9577 248.958 49.7123C248.958 50.2519 248.859 50.7795 248.664 51.2953C248.473 51.8063 248.139 52.3769 247.662 53.0073C247.19 53.6328 246.533 54.3969 245.694 55.2995L242.402 58.8237V58.9384H249.215V60.5143H239.969Z"
        fill="white"
        class="number"
       id="path28" />
  </g>
  <g
     id="table3">
    <path
       d="M441.04 26.9105H424.407C423.533 26.9105 422.824 27.6206 422.824 28.4962C422.824 29.3719 423.533 30.082 424.407 30.082H441.04C441.915 30.082 442.624 29.3719 442.624 28.4962C442.624 27.6206 441.915 26.9105 441.04 26.9105Z"
       fill="#29C770"
       fill-opacity="0.6"
       stroke="#29C770"
       stroke-width="0.47166"
       id="path29" />
    <path
       d="M428.323 30.082H437.123C438.496 30.082 439.662 31.0868 439.865 32.4452L441.291 41.9592C441.542 43.637 440.244 45.1458 438.548 45.1458H426.898C425.203 45.1458 423.905 43.637 424.157 41.9592L425.583 32.4452C425.786 31.0868 426.951 30.082 428.323 30.082Z"
       fill="#29C770"
       fill-opacity="0.4"
       stroke="#29C770"
       stroke-width="0.47166"
       id="path30" />
    <path
       d="M465.593 26.9105H448.96C448.085 26.9105 447.376 27.6206 447.376 28.4962C447.376 29.3719 448.085 30.082 448.96 30.082H465.593C466.467 30.082 467.176 29.3719 467.176 28.4962C467.176 27.6206 466.467 26.9105 465.593 26.9105Z"
       fill="#29C770"
       fill-opacity="0.6"
       stroke="#29C770"
       stroke-width="0.47166"
       id="path31" />
    <path
       d="M452.877 30.082H461.677C463.049 30.082 464.214 31.0868 464.417 32.4452L465.843 41.9592C466.095 43.637 464.797 45.1458 463.102 45.1458H451.452C449.756 45.1458 448.458 43.637 448.709 41.9592L450.135 32.4452C450.338 31.0868 451.504 30.082 452.877 30.082Z"
       fill="#29C770"
       fill-opacity="0.4"
       stroke="#29C770"
       stroke-width="0.47166"
       id="path32" />
    <path
       d="M448.96 81.6163H465.593C466.467 81.6163 467.176 80.9064 467.176 80.0306C467.176 79.1549 466.467 78.445 465.593 78.445H448.96C448.085 78.445 447.376 79.1549 447.376 80.0306C447.376 80.9064 448.085 81.6163 448.96 81.6163Z"
       fill="#29C770"
       fill-opacity="0.6"
       stroke="#29C770"
       stroke-width="0.47166"
       id="path33" />
    <path
       d="M461.677 78.445H452.877C451.504 78.445 450.338 77.4401 450.135 76.0818L448.709 66.5677C448.458 64.89 449.756 63.3812 451.452 63.3812H463.102C464.797 63.3812 466.095 64.89 465.843 66.5677L464.417 76.0818C464.214 77.4401 463.049 78.445 461.677 78.445Z"
       fill="#29C770"
       fill-opacity="0.4"
       stroke="#29C770"
       stroke-width="0.47166"
       id="path34" />
    <path
       d="M424.407 81.6163H441.04C441.915 81.6163 442.624 80.9064 442.624 80.0306C442.624 79.1549 441.915 78.445 441.04 78.445H424.407C423.533 78.445 422.824 79.1549 422.824 80.0306C422.824 80.9064 423.533 81.6163 424.407 81.6163Z"
       fill="#29C770"
       fill-opacity="0.6"
       stroke="#29C770"
       stroke-width="0.47166"
       id="path35" />
    <path
       d="M437.123 78.445H428.323C426.951 78.445 425.786 77.4401 425.583 76.0818L424.157 66.5677C423.905 64.89 425.203 63.3812 426.898 63.3812H438.548C440.244 63.3812 441.542 64.89 441.291 66.5677L439.865 76.0818C439.662 77.4401 438.496 78.445 437.123 78.445Z"
       fill="#29C770"
       fill-opacity="0.4"
       stroke="#29C770"
       stroke-width="0.47166"
       id="path36" />
    <path
       d="M410.943 45.9385V62.5882C410.943 63.464 411.652 64.1739 412.527 64.1739C413.402 64.1739 414.11 63.464 414.11 62.5882V45.9385C414.11 45.0629 413.402 44.3529 412.527 44.3529C411.652 44.3529 410.943 45.0629 410.943 45.9385Z"
       fill="#29C770"
       fill-opacity="0.6"
       stroke="#29C770"
       stroke-width="0.47166"
       id="path37" />
    <path
       d="M414.11 58.6679V49.859C414.11 48.4855 415.114 47.3186 416.471 47.1149L425.976 45.6878C427.652 45.4361 429.16 46.7355 429.16 48.4319V60.0949C429.16 61.7914 427.652 63.0908 425.976 62.8392L416.471 61.4121C415.114 61.2083 414.11 60.0414 414.11 58.6679Z"
       fill="#29C770"
       fill-opacity="0.4"
       stroke="#29C770"
       stroke-width="0.47166"
       id="path38" />
    <path
       d="M479.057 45.9416V62.5913C479.057 63.4669 478.348 64.1769 477.473 64.1769C476.598 64.1769 475.89 63.4669 475.89 62.5913V45.9416C475.89 45.0658 476.598 44.356 477.473 44.356C478.348 44.356 479.057 45.0658 479.057 45.9416Z"
       fill="#29C770"
       fill-opacity="0.6"
       stroke="#29C770"
       stroke-width="0.47166"
       id="path39" />
    <path
       d="M475.89 58.6708V49.8619C475.89 48.4884 474.886 47.3215 473.529 47.1178L464.024 45.6906C462.348 45.439 460.84 46.7384 460.84 48.4348V60.0979C460.84 61.7943 462.348 63.0937 464.024 62.8421L473.529 61.4151C474.886 61.2112 475.89 60.0445 475.89 58.6708Z"
       fill="#29C770"
       fill-opacity="0.4"
       stroke="#29C770"
       stroke-width="0.47166"
       id="path40" />
    <path
       d="M416.883 36.0282V72.4988C416.883 74.2502 418.302 75.6701 420.051 75.6701H469.949C471.698 75.6701 473.117 74.2502 473.117 72.4988V36.0282C473.117 34.2766 471.698 32.8569 469.949 32.8569H420.051C418.302 32.8569 416.883 34.2766 416.883 36.0282Z"
       fill="#29C770"
       id="path41" />
    <path
       d="M444.751 60.7148C443.808 60.7148 442.965 60.5524 442.226 60.2277C441.492 59.9031 440.908 59.4517 440.473 58.8738C440.043 58.2914 439.809 57.6156 439.771 56.8468H441.574C441.613 57.3194 441.776 57.7278 442.061 58.0717C442.347 58.4107 442.721 58.6733 443.185 58.8595C443.648 59.0458 444.16 59.1389 444.723 59.1389C445.353 59.1389 445.912 59.0291 446.397 58.8094C446.884 58.5897 447.265 58.2841 447.542 57.8925C447.819 57.501 447.957 57.0473 447.957 56.5316C447.957 55.992 447.825 55.5168 447.558 55.1061C447.291 54.6906 446.899 54.3658 446.384 54.1319C445.868 53.8979 445.238 53.7809 444.495 53.7809H443.321V52.205H444.495C445.076 52.205 445.586 52.0999 446.026 51.8898C446.469 51.6797 446.815 51.3837 447.064 51.0016C447.316 50.6195 447.443 50.1707 447.443 49.655C447.443 49.1583 447.332 48.7261 447.114 48.3585C446.894 47.9907 446.584 47.7042 446.184 47.4988C445.788 47.2934 445.319 47.1909 444.78 47.1909C444.275 47.1909 443.798 47.284 443.349 47.4702C442.906 47.6516 442.543 47.9167 442.261 48.2653C441.981 48.6091 441.828 49.0246 441.804 49.5116H440.087C440.115 48.7429 440.347 48.0695 440.78 47.4916C441.215 46.909 441.783 46.4555 442.483 46.1307C443.19 45.8059 443.966 45.6436 444.809 45.6436C445.715 45.6436 446.493 45.8275 447.143 46.1951C447.791 46.558 448.29 47.0381 448.637 47.635C448.987 48.2319 449.159 48.8765 449.159 49.5689C449.159 50.3951 448.943 51.0994 448.508 51.682C448.08 52.2647 447.495 52.6683 446.755 52.8927V53.0073C447.682 53.1601 448.404 53.5541 448.924 54.1892C449.443 54.8195 449.704 55.6003 449.704 56.5316C449.704 57.329 449.487 58.0453 449.052 58.6805C448.624 59.3109 448.036 59.8074 447.292 60.1705C446.548 60.5334 445.702 60.7148 444.751 60.7148Z"
        fill="white"
        class="number"
       id="path42" />
  </g>
  <g
     id="table4">
    <path
       d="M641.814 26.9105H625.183C624.308 26.9105 623.598 27.6206 623.598 28.4962C623.598 29.3719 624.308 30.082 625.183 30.082H641.814C642.689 30.082 643.399 29.3719 643.399 28.4962C643.399 27.6206 642.689 26.9105 641.814 26.9105Z"
       fill="#29C770"
       fill-opacity="0.6"
       stroke="#29C770"
       stroke-width="0.47166"
       id="path43" />
    <path
       d="M629.099 30.082H637.898C639.27 30.082 640.437 31.0868 640.64 32.4452L642.066 41.9592C642.316 43.637 641.018 45.1458 639.324 45.1458H627.673C625.979 45.1458 624.681 43.637 624.931 41.9592L626.357 32.4452C626.562 31.0868 627.727 30.082 629.099 30.082Z"
       fill="#29C770"
       fill-opacity="0.4"
       stroke="#29C770"
       stroke-width="0.47166"
       id="path44" />
    <path
       d="M666.368 26.9105H649.735C648.86 26.9105 648.152 27.6206 648.152 28.4962C648.152 29.3719 648.86 30.082 649.735 30.082H666.368C667.243 30.082 667.952 29.3719 667.952 28.4962C667.952 27.6206 667.243 26.9105 666.368 26.9105Z"
       fill="#29C770"
       fill-opacity="0.6"
       stroke="#29C770"
       stroke-width="0.47166"
       id="path45" />
    <path
       d="M653.651 30.082H662.452C663.824 30.082 664.99 31.0868 665.193 32.4452L666.618 41.9592C666.87 43.637 665.572 45.1458 663.878 45.1458H652.226C650.531 45.1458 649.233 43.637 649.485 41.9592L650.911 32.4452C651.114 31.0868 652.279 30.082 653.651 30.082Z"
       fill="#29C770"
       fill-opacity="0.4"
       stroke="#29C770"
       stroke-width="0.47166"
       id="path46" />
    <path
       d="M649.735 81.6163H666.368C667.243 81.6163 667.952 80.9064 667.952 80.0306C667.952 79.1549 667.243 78.445 666.368 78.445H649.735C648.86 78.445 648.152 79.1549 648.152 80.0306C648.152 80.9064 648.86 81.6163 649.735 81.6163Z"
       fill="#29C770"
       fill-opacity="0.6"
       stroke="#29C770"
       stroke-width="0.47166"
       id="path47" />
    <path
       d="M662.452 78.445H653.651C652.279 78.445 651.114 77.4401 650.911 76.0818L649.485 66.5677C649.233 64.89 650.531 63.3812 652.226 63.3812H663.878C665.572 63.3812 666.87 64.89 666.618 66.5677L665.193 76.0818C664.99 77.4401 663.824 78.445 662.452 78.445Z"
       fill="#29C770"
       fill-opacity="0.4"
       stroke="#29C770"
       stroke-width="0.47166"
       id="path48" />
    <path
       d="M625.183 81.6163H641.814C642.689 81.6163 643.399 80.9064 643.399 80.0306C643.399 79.1549 642.689 78.445 641.814 78.445H625.183C624.308 78.445 623.598 79.1549 623.598 80.0306C623.598 80.9064 624.308 81.6163 625.183 81.6163Z"
       fill="#29C770"
       fill-opacity="0.6"
       stroke="#29C770"
       stroke-width="0.47166"
       id="path49" />
    <path
       d="M637.898 78.445H629.099C627.727 78.445 626.562 77.4401 626.357 76.0818L624.931 66.5677C624.681 64.89 625.979 63.3812 627.673 63.3812H639.324C641.018 63.3812 642.316 64.89 642.066 66.5677L640.64 76.0818C640.437 77.4401 639.27 78.445 637.898 78.445Z"
       fill="#29C770"
       fill-opacity="0.4"
       stroke="#29C770"
       stroke-width="0.47166"
       id="path50" />
    <path
       d="M611.717 45.9385V62.5882C611.717 63.464 612.427 64.1739 613.302 64.1739C614.177 64.1739 614.886 63.464 614.886 62.5882V45.9385C614.886 45.0629 614.177 44.3529 613.302 44.3529C612.427 44.3529 611.717 45.0629 611.717 45.9385Z"
       fill="#29C770"
       fill-opacity="0.6"
       stroke="#29C770"
       stroke-width="0.47166"
       id="path51" />
    <path
       d="M614.886 58.6679V49.859C614.886 48.4855 615.89 47.3186 617.247 47.1149L626.751 45.6878C628.427 45.4361 629.935 46.7355 629.935 48.4319V60.0949C629.935 61.7914 628.427 63.0908 626.751 62.8392L617.247 61.4121C615.89 61.2083 614.886 60.0414 614.886 58.6679Z"
       fill="#29C770"
       fill-opacity="0.4"
       stroke="#29C770"
       stroke-width="0.47166"
       id="path52" />
    <path
       d="M679.832 45.9416V62.5913C679.832 63.4669 679.124 64.1769 678.249 64.1769C677.374 64.1769 676.664 63.4669 676.664 62.5913V45.9416C676.664 45.0658 677.374 44.356 678.249 44.356C679.124 44.356 679.832 45.0658 679.832 45.9416Z"
       fill="#29C770"
       fill-opacity="0.6"
       stroke="#29C770"
       stroke-width="0.47166"
       id="path53" />
    <path
       d="M676.664 58.6708V49.8619C676.664 48.4884 675.661 47.3215 674.304 47.1178L664.8 45.6906C663.124 45.439 661.616 46.7384 661.616 48.4348V60.0979C661.616 61.7943 663.124 63.0937 664.8 62.8421L674.304 61.4151C675.661 61.2112 676.664 60.0445 676.664 58.6708Z"
       fill="#29C770"
       fill-opacity="0.4"
       stroke="#29C770"
       stroke-width="0.47166"
       id="path54" />
    <path
       d="M617.658 36.0282V72.4988C617.658 74.2502 619.076 75.6701 620.825 75.6701H670.724C672.474 75.6701 673.893 74.2502 673.893 72.4988V36.0282C673.893 34.2766 672.474 32.8569 670.724 32.8569H620.825C619.076 32.8569 617.658 34.2766 617.658 36.0282Z"
       fill="#29C770"
       id="path55" />
    <path
       d="M640.966 57.5057V56.0445L647.406 45.8441H648.466V48.1077H647.75L642.884 55.8152V55.9298H651.557V57.5057H640.966ZM647.865 60.5143V57.0616V56.3812V45.8441H649.552V60.5143H647.865Z"
        fill="white"
        class="number"
       id="path56" />
  </g>
  <g
     id="table5">
    <path
       d="M867.144 50.2993V33.6497C867.144 32.7739 866.434 32.064 865.559 32.064C864.684 32.064 863.975 32.7739 863.975 33.6497V50.2993C863.975 51.1751 864.684 51.885 865.559 51.885C866.434 51.885 867.144 51.1751 867.144 50.2993Z"
       fill="#29C770"
       fill-opacity="0.6"
       stroke="#29C770"
       stroke-width="0.47166"
       id="path57" />
    <path
       d="M863.975 37.57V46.379C863.975 47.7525 862.971 48.9193 861.614 49.1232L852.11 50.5503C850.434 50.8019 848.926 49.5026 848.926 47.806V36.1429C848.926 34.4464 850.434 33.1471 852.11 33.3987L861.614 34.8258C862.971 35.0296 863.975 36.1965 863.975 37.57Z"
       fill="#29C770"
       fill-opacity="0.4"
       stroke="#29C770"
       stroke-width="0.47166"
       id="path58" />
    <path
       d="M867.144 74.8772V58.2277C867.144 57.352 866.434 56.6421 865.559 56.6421C864.684 56.6421 863.975 57.352 863.975 58.2277V74.8772C863.975 75.753 864.684 76.4629 865.559 76.4629C866.434 76.4629 867.144 75.753 867.144 74.8772Z"
       fill="#29C770"
       fill-opacity="0.6"
       stroke="#29C770"
       stroke-width="0.47166"
       id="path59" />
    <path
       d="M863.975 62.148V70.9569C863.975 72.3304 862.971 73.4973 861.614 73.7011L852.11 75.1282C850.434 75.3798 848.926 74.0805 848.926 72.384V60.7209C848.926 59.0245 850.434 57.7251 852.11 57.9768L861.614 59.4039C862.971 59.6076 863.975 60.7745 863.975 62.148Z"
       fill="#29C770"
       fill-opacity="0.4"
       stroke="#29C770"
       stroke-width="0.47166"
       id="path60" />
    <path
       d="M812.493 58.2277V74.8772C812.493 75.753 813.201 76.463 814.076 76.463C814.951 76.463 815.661 75.753 815.661 74.8772V58.2277C815.661 57.352 814.951 56.6421 814.076 56.6421C813.201 56.6421 812.493 57.352 812.493 58.2277Z"
       fill="#29C770"
       fill-opacity="0.6"
       stroke="#29C770"
       stroke-width="0.47166"
       id="path61" />
    <path
       d="M815.661 70.9569V62.148C815.661 60.7745 816.666 59.6076 818.022 59.4039L827.527 57.9768C829.203 57.7251 830.709 59.0245 830.709 60.7211V72.384C830.709 74.0805 829.203 75.3798 827.527 75.1282L818.022 73.7011C816.666 73.4973 815.661 72.3304 815.661 70.9569Z"
       fill="#29C770"
       fill-opacity="0.4"
       stroke="#29C770"
       stroke-width="0.47166"
       id="path62" />
    <path
       d="M812.493 33.6497V50.2993C812.493 51.1751 813.201 51.885 814.076 51.885C814.951 51.885 815.661 51.1751 815.661 50.2993V33.6497C815.661 32.7739 814.951 32.064 814.076 32.064C813.201 32.064 812.493 32.7739 812.493 33.6497Z"
       fill="#29C770"
       fill-opacity="0.6"
       stroke="#29C770"
       stroke-width="0.47166"
       id="path63" />
    <path
       d="M815.661 46.379V37.57C815.661 36.1965 816.666 35.0296 818.022 34.8258L827.527 33.3987C829.203 33.1471 830.709 34.4464 830.709 36.143V47.8061C830.709 49.5026 829.203 50.8019 827.527 50.5503L818.022 49.1232C816.666 48.9194 815.661 47.7525 815.661 46.379Z"
       fill="#29C770"
       fill-opacity="0.4"
       stroke="#29C770"
       stroke-width="0.47166"
       id="path64" />
    <path
       d="M848.135 20.1714H831.502C830.627 20.1714 829.918 20.8813 829.918 21.7571C829.918 22.6329 830.627 23.3427 831.502 23.3427H848.135C849.01 23.3427 849.718 22.6329 849.718 21.7571C849.718 20.8813 849.01 20.1714 848.135 20.1714Z"
       fill="#29C770"
       fill-opacity="0.6"
       stroke="#29C770"
       stroke-width="0.47166"
       id="path65" />
    <path
       d="M835.418 23.3427H844.219C845.591 23.3427 846.756 24.3478 846.959 25.7061L848.385 35.2202C848.637 36.8979 847.339 38.4067 845.644 38.4067H833.992C832.298 38.4067 831 36.8979 831.252 35.2202L832.677 25.7061C832.88 24.3478 834.046 23.3427 835.418 23.3427Z"
       fill="#29C770"
       fill-opacity="0.4"
       stroke="#29C770"
       stroke-width="0.47166"
       id="path66" />
    <path
       d="M848.131 88.3556H831.498C830.624 88.3556 829.915 87.6456 829.915 86.7698C829.915 85.8942 830.624 85.1841 831.498 85.1841H848.131C849.006 85.1841 849.715 85.8942 849.715 86.7698C849.715 87.6456 849.006 88.3556 848.131 88.3556Z"
       fill="#29C770"
       fill-opacity="0.6"
       stroke="#29C770"
       stroke-width="0.47166"
       id="path67" />
    <path
       d="M835.414 85.1842H844.215C845.587 85.1842 846.753 84.1793 846.956 82.8209L848.382 73.3069C848.633 71.6291 847.335 70.1203 845.641 70.1203H833.989C832.294 70.1203 830.996 71.6291 831.248 73.3069L832.674 82.8209C832.877 84.1793 834.042 85.1842 835.414 85.1842Z"
       fill="#29C770"
       fill-opacity="0.4"
       stroke="#29C770"
       stroke-width="0.47166"
       id="path68" />
    <path
       d="M858.036 26.1178H821.601C819.851 26.1178 818.434 27.5375 818.434 29.2891V79.2379C818.434 80.9893 819.851 82.4092 821.601 82.4092H858.036C859.785 82.4092 861.203 80.9893 861.203 79.2379V29.2891C861.203 27.5375 859.785 26.1178 858.036 26.1178Z"
       fill="#29C770"
       id="path69" />
    <path
       d="M839.003 60.7148C838.163 60.7148 837.406 60.5477 836.734 60.2134C836.061 59.8792 835.522 59.4207 835.117 58.838C834.711 58.2554 834.489 57.5918 834.451 56.8468H836.168C836.236 57.5106 836.536 58.0598 837.07 58.4943C837.609 58.9241 838.254 59.1389 839.003 59.1389C839.604 59.1389 840.138 58.9981 840.605 58.7163C841.077 58.4346 841.448 58.0478 841.715 57.556C841.987 57.0593 842.123 56.4982 842.123 55.8725C842.123 55.2327 841.982 54.6621 841.7 54.1606C841.423 53.6543 841.042 53.2556 840.555 52.9643C840.069 52.673 839.514 52.5251 838.887 52.5202C838.439 52.5155 837.979 52.5847 837.507 52.728C837.035 52.8665 836.645 53.0455 836.34 53.2652L834.681 53.0646L835.567 45.8441H843.181V47.42H837.057L836.541 51.7466H836.627C836.927 51.5077 837.304 51.3096 837.757 51.1521C838.21 50.9944 838.682 50.9157 839.174 50.9157C840.071 50.9157 840.87 51.1305 841.572 51.5604C842.278 51.9853 842.832 52.5679 843.231 53.3082C843.638 54.0483 843.839 54.8935 843.839 55.8439C843.839 56.7799 843.629 57.6157 843.209 58.3511C842.795 59.0816 842.222 59.6595 841.493 60.0845C840.763 60.5047 839.933 60.7148 839.003 60.7148Z"
        fill="white"
        class="number"
       id="path70" />
  </g>
  <g
     id="table6">
    <path
       d="M77.5071 172.274V155.624C77.5071 154.748 76.7978 154.039 75.9229 154.039C75.0482 154.039 74.3389 154.748 74.3389 155.624V172.274C74.3389 173.15 75.0482 173.859 75.9229 173.859C76.7978 173.859 77.5071 173.15 77.5071 172.274Z"
       fill="#29C770"
       fill-opacity="0.6"
       stroke="#29C770"
       stroke-width="0.47166"
       id="path71" />
    <path
       d="M74.3388 159.545V168.354C74.3388 169.727 73.335 170.894 71.978 171.097L62.4736 172.525C60.7976 172.777 59.2903 171.477 59.2903 169.781V158.117C59.2903 156.421 60.7976 155.122 62.4736 155.373L71.978 156.8C73.335 157.004 74.3388 158.171 74.3388 159.545Z"
       fill="#29C770"
       fill-opacity="0.4"
       stroke="#29C770"
       stroke-width="0.47166"
       id="path72" />
    <path
       d="M77.5071 196.851V180.201C77.5071 179.326 76.7978 178.616 75.9229 178.616C75.0482 178.616 74.3389 179.326 74.3389 180.201V196.851C74.3389 197.727 75.0482 198.438 75.9229 198.438C76.7978 198.438 77.5071 197.727 77.5071 196.851Z"
       fill="#29C770"
       fill-opacity="0.6"
       stroke="#29C770"
       stroke-width="0.47166"
       id="path73" />
    <path
       d="M74.3388 184.123V192.931C74.3388 194.305 73.335 195.471 71.978 195.676L62.4736 197.104C60.7976 197.354 59.2903 196.055 59.2903 194.359V182.696C59.2903 180.998 60.7976 179.699 62.4736 179.951L71.978 181.378C73.335 181.582 74.3388 182.75 74.3388 184.123Z"
       fill="#29C770"
       fill-opacity="0.4"
       stroke="#29C770"
       stroke-width="0.47166"
       id="path74" />
    <path
       d="M22.8567 180.201V196.851C22.8567 197.727 23.566 198.438 24.4408 198.438C25.3156 198.438 26.025 197.727 26.025 196.851V180.201C26.025 179.326 25.3156 178.616 24.4408 178.616C23.566 178.616 22.8567 179.326 22.8567 180.201Z"
       fill="#29C770"
       fill-opacity="0.6"
       stroke="#29C770"
       stroke-width="0.47166"
       id="path75" />
    <path
       d="M26.025 192.931V184.123C26.025 182.75 27.0288 181.582 28.3858 181.378L37.8902 179.951C39.5662 179.699 41.0735 180.998 41.0735 182.696V194.359C41.0735 196.055 39.5662 197.354 37.8902 197.104L28.3858 195.676C27.0288 195.471 26.025 194.305 26.025 192.931Z"
       fill="#29C770"
       fill-opacity="0.4"
       stroke="#29C770"
       stroke-width="0.47166"
       id="path76" />
    <path
       d="M22.8567 155.624V172.274C22.8567 173.15 23.566 173.859 24.4408 173.859C25.3156 173.859 26.025 173.15 26.025 172.274V155.624C26.025 154.748 25.3156 154.039 24.4408 154.039C23.566 154.039 22.8567 154.748 22.8567 155.624Z"
       fill="#29C770"
       fill-opacity="0.6"
       stroke="#29C770"
       stroke-width="0.47166"
       id="path77" />
    <path
       d="M26.025 168.354V159.545C26.025 158.171 27.0288 157.004 28.3858 156.8L37.8902 155.373C39.5662 155.122 41.0735 156.421 41.0735 158.118V169.781C41.0735 171.477 39.5662 172.777 37.8902 172.525L28.3858 171.097C27.0288 170.894 26.025 169.727 26.025 168.354Z"
       fill="#29C770"
       fill-opacity="0.4"
       stroke="#29C770"
       stroke-width="0.47166"
       id="path78" />
    <path
       d="M58.4982 142.146H41.8654C40.9907 142.146 40.2814 142.856 40.2814 143.732C40.2814 144.607 40.9907 145.317 41.8654 145.317H58.4982C59.3731 145.317 60.0822 144.607 60.0822 143.732C60.0822 142.856 59.3731 142.146 58.4982 142.146Z"
       fill="#29C770"
       fill-opacity="0.6"
       stroke="#29C770"
       stroke-width="0.47166"
       id="path79" />
    <path
       d="M45.7819 145.317H54.5818C55.954 145.317 57.1197 146.322 57.3232 147.681L58.7489 157.195C59.0003 158.872 57.7022 160.381 56.0075 160.381H44.3562C42.6616 160.381 41.3635 158.872 41.6149 157.195L43.0406 147.681C43.2441 146.322 44.4098 145.317 45.7819 145.317Z"
       fill="#29C770"
       fill-opacity="0.4"
       stroke="#29C770"
       stroke-width="0.47166"
       id="path80" />
    <path
       d="M58.4954 210.331H41.8626C40.9877 210.331 40.2786 209.62 40.2786 208.744C40.2786 207.868 40.9877 207.159 41.8626 207.159H58.4954C59.3701 207.159 60.0794 207.868 60.0794 208.744C60.0794 209.62 59.3701 210.331 58.4954 210.331Z"
       fill="#29C770"
       fill-opacity="0.6"
       stroke="#29C770"
       stroke-width="0.47166"
       id="path81" />
    <path
       d="M45.7789 207.159H54.5788C55.9509 207.159 57.1167 206.154 57.3202 204.796L58.7459 195.281C58.9973 193.604 57.6992 192.094 56.0045 192.094H44.3534C42.6585 192.094 41.3605 193.604 41.6119 195.281L43.0375 204.796C43.2411 206.154 44.4068 207.159 45.7789 207.159Z"
       fill="#29C770"
       fill-opacity="0.4"
       stroke="#29C770"
       stroke-width="0.47166"
       id="path82" />
    <path
       d="M68.3987 148.092H31.9651C30.2155 148.092 28.7971 149.512 28.7971 151.264V201.212C28.7971 202.963 30.2155 204.384 31.9651 204.384H68.3987C70.1483 204.384 71.5668 202.963 71.5668 201.212V151.264C71.5668 149.512 70.1483 148.092 68.3987 148.092Z"
       fill="#29C770"
       id="path83" />
    <path
       d="M50.0434 183.424C49.4424 183.415 48.8412 183.299 48.2402 183.081C47.639 182.861 47.0904 182.491 46.5944 181.97C46.0981 181.445 45.6998 180.736 45.3992 179.843C45.0987 178.946 44.9484 177.818 44.9484 176.461C44.9484 175.164 45.0701 174.012 45.3134 173.009C45.5568 172.002 45.9097 171.155 46.3725 170.467C46.8352 169.775 47.3933 169.248 48.0469 168.89C48.7053 168.532 49.4471 168.352 50.2724 168.352C51.0929 168.352 51.8229 168.517 52.4621 168.847C53.1061 169.173 53.6309 169.627 54.0364 170.208C54.442 170.791 54.7043 171.462 54.8235 172.222H53.0776C52.9154 171.561 52.6005 171.015 52.133 170.581C51.6653 170.146 51.0452 169.929 50.2724 169.929C49.1371 169.929 48.2425 170.423 47.589 171.412C46.9401 172.4 46.6133 173.787 46.6086 175.574H46.7232C46.9903 175.167 47.3075 174.821 47.6748 174.535C48.0469 174.244 48.4571 174.019 48.9057 173.861C49.354 173.705 49.8288 173.626 50.3297 173.626C51.1693 173.626 51.9374 173.836 52.6339 174.256C53.3303 174.671 53.8885 175.246 54.3083 175.982C54.7281 176.712 54.938 177.551 54.938 178.497C54.938 179.403 54.7353 180.235 54.3298 180.988C53.9243 181.738 53.3542 182.336 52.6195 182.78C51.8897 183.219 51.0309 183.434 50.0434 183.424ZM50.0434 181.849C50.6445 181.849 51.1836 181.698 51.6606 181.397C52.1424 181.096 52.5218 180.692 52.7985 180.186C53.0799 179.68 53.2207 179.117 53.2207 178.497C53.2207 177.89 53.0846 177.339 52.8128 176.841C52.5456 176.34 52.1758 175.942 51.7036 175.644C51.2361 175.349 50.7018 175.201 50.1006 175.201C49.6474 175.201 49.2252 175.291 48.8341 175.473C48.4429 175.649 48.0995 175.893 47.8036 176.204C47.5126 176.515 47.2837 176.87 47.1166 177.272C46.9497 177.668 46.8662 178.085 46.8662 178.526C46.8662 179.107 47.0022 179.652 47.2741 180.158C47.5509 180.664 47.9277 181.072 48.4048 181.383C48.8865 181.692 49.4328 181.849 50.0434 181.849Z"
        fill="white"
        class="number"
       id="path84" />
  </g>
  <g
     id="table7">
    <path
       d="M240.265 148.885H223.632C222.757 148.885 222.048 149.595 222.048 150.471C222.048 151.347 222.757 152.056 223.632 152.056H240.265C241.14 152.056 241.848 151.347 241.848 150.471C241.848 149.595 241.14 148.885 240.265 148.885Z"
       fill="#29C770"
       fill-opacity="0.6"
       stroke="#29C770"
       stroke-width="0.47166"
       id="path85" />
    <path
       d="M227.548 152.056H236.349C237.721 152.056 238.886 153.061 239.089 154.42L240.515 163.934C240.767 165.611 239.469 167.12 237.774 167.12H226.122C224.428 167.12 223.13 165.611 223.382 163.934L224.807 154.42C225.01 153.061 226.176 152.056 227.548 152.056Z"
       fill="#29C770"
       fill-opacity="0.4"
       stroke="#29C770"
       stroke-width="0.47166"
       id="path86" />
    <path
       d="M264.817 148.885H248.186C247.311 148.885 246.601 149.595 246.601 150.471C246.601 151.347 247.311 152.056 248.186 152.056H264.817C265.692 152.056 266.402 151.347 266.402 150.471C266.402 149.595 265.692 148.885 264.817 148.885Z"
       fill="#29C770"
       fill-opacity="0.6"
       stroke="#29C770"
       stroke-width="0.47166"
       id="path87" />
    <path
       d="M252.102 152.056H260.901C262.273 152.056 263.438 153.061 263.643 154.42L265.069 163.934C265.319 165.611 264.021 167.12 262.327 167.12H250.676C248.982 167.12 247.684 165.611 247.934 163.934L249.36 154.42C249.563 153.061 250.73 152.056 252.102 152.056Z"
       fill="#29C770"
       fill-opacity="0.4"
       stroke="#29C770"
       stroke-width="0.47166"
       id="path88" />
    <path
       d="M248.186 203.59H264.817C265.692 203.59 266.402 202.881 266.402 202.005C266.402 201.129 265.692 200.42 264.817 200.42H248.186C247.311 200.42 246.601 201.129 246.601 202.005C246.601 202.881 247.311 203.59 248.186 203.59Z"
       fill="#29C770"
       fill-opacity="0.6"
       stroke="#29C770"
       stroke-width="0.47166"
       id="path89" />
    <path
       d="M260.901 200.42H252.102C250.73 200.42 249.563 199.415 249.36 198.057L247.934 188.542C247.684 186.865 248.982 185.355 250.676 185.355H262.327C264.021 185.355 265.319 186.865 265.069 188.542L263.643 198.057C263.438 199.415 262.273 200.42 260.901 200.42Z"
       fill="#29C770"
       fill-opacity="0.4"
       stroke="#29C770"
       stroke-width="0.47166"
       id="path90" />
    <path
       d="M223.632 203.59H240.265C241.14 203.59 241.848 202.881 241.848 202.005C241.848 201.129 241.14 200.42 240.265 200.42H223.632C222.757 200.42 222.048 201.129 222.048 202.005C222.048 202.881 222.757 203.59 223.632 203.59Z"
       fill="#29C770"
       fill-opacity="0.6"
       stroke="#29C770"
       stroke-width="0.47166"
       id="path91" />
    <path
       d="M236.349 200.42H227.548C226.176 200.42 225.01 199.415 224.807 198.057L223.382 188.542C223.13 186.865 224.428 185.355 226.122 185.355H237.774C239.469 185.355 240.767 186.865 240.515 188.542L239.089 198.057C238.886 199.415 237.721 200.42 236.349 200.42Z"
       fill="#29C770"
       fill-opacity="0.4"
       stroke="#29C770"
       stroke-width="0.47166"
       id="path92" />
    <path
       d="M210.168 167.913V184.563C210.168 185.439 210.876 186.149 211.751 186.149C212.626 186.149 213.335 185.439 213.335 184.563V167.913C213.335 167.038 212.626 166.328 211.751 166.328C210.876 166.328 210.168 167.038 210.168 167.913Z"
       fill="#29C770"
       fill-opacity="0.6"
       stroke="#29C770"
       stroke-width="0.47166"
       id="path93" />
    <path
       d="M213.335 180.642V171.834C213.335 170.46 214.339 169.294 215.696 169.089L225.2 167.662C226.876 167.411 228.384 168.71 228.384 170.407V182.069C228.384 183.767 226.876 185.066 225.2 184.814L215.696 183.387C214.339 183.183 213.335 182.015 213.335 180.642Z"
       fill="#29C770"
       fill-opacity="0.4"
       stroke="#29C770"
       stroke-width="0.47166"
       id="path94" />
    <path
       d="M278.283 167.916V184.565C278.283 185.441 277.573 186.152 276.698 186.152C275.823 186.152 275.114 185.441 275.114 184.565V167.916C275.114 167.04 275.823 166.331 276.698 166.331C277.573 166.331 278.283 167.04 278.283 167.916Z"
       fill="#29C770"
       fill-opacity="0.6"
       stroke="#29C770"
       stroke-width="0.47166"
       id="path95" />
    <path
       d="M275.114 180.645V171.837C275.114 170.464 274.11 169.295 272.753 169.092L263.249 167.665C261.573 167.414 260.065 168.714 260.065 170.41V182.072C260.065 183.768 261.573 185.068 263.249 184.817L272.753 183.39C274.11 183.185 275.114 182.019 275.114 180.645Z"
       fill="#29C770"
       fill-opacity="0.4"
       stroke="#29C770"
       stroke-width="0.47166"
       id="path96" />
    <path
       d="M216.107 158.003V194.473C216.107 196.224 217.526 197.645 219.276 197.645H269.175C270.923 197.645 272.342 196.224 272.342 194.473V158.003C272.342 156.251 270.923 154.831 269.175 154.831H219.276C217.526 154.831 216.107 156.251 216.107 158.003Z"
       fill="#29C770"
       id="path97" />
    <path
       d="M240.428 183.224L246.983 170.243V170.129H239.427V168.554H248.814V170.215L242.288 183.224H240.428Z"
        fill="white"
        class="number"
       id="path98" />
  </g>
  <g
     id="table8">
    <path
       d="M441.04 148.885H424.407C423.533 148.885 422.824 149.595 422.824 150.471C422.824 151.347 423.533 152.056 424.407 152.056H441.04C441.915 152.056 442.624 151.347 442.624 150.471C442.624 149.595 441.915 148.885 441.04 148.885Z"
       fill="#29C770"
       fill-opacity="0.6"
       stroke="#29C770"
       stroke-width="0.47166"
       id="path99" />
    <path
       d="M428.323 152.056H437.123C438.496 152.056 439.662 153.061 439.865 154.42L441.291 163.934C441.542 165.611 440.244 167.12 438.548 167.12H426.898C425.203 167.12 423.905 165.611 424.157 163.934L425.583 154.42C425.786 153.061 426.951 152.056 428.323 152.056Z"
       fill="#29C770"
       fill-opacity="0.4"
       stroke="#29C770"
       stroke-width="0.47166"
       id="path100" />
    <path
       d="M465.593 148.885H448.96C448.085 148.885 447.376 149.595 447.376 150.471C447.376 151.347 448.085 152.056 448.96 152.056H465.593C466.467 152.056 467.176 151.347 467.176 150.471C467.176 149.595 466.467 148.885 465.593 148.885Z"
       fill="#29C770"
       fill-opacity="0.6"
       stroke="#29C770"
       stroke-width="0.47166"
       id="path101" />
    <path
       d="M452.877 152.056H461.677C463.049 152.056 464.214 153.061 464.417 154.42L465.843 163.934C466.095 165.611 464.797 167.12 463.102 167.12H451.452C449.756 167.12 448.458 165.611 448.709 163.934L450.135 154.42C450.338 153.061 451.504 152.056 452.877 152.056Z"
       fill="#29C770"
       fill-opacity="0.4"
       stroke="#29C770"
       stroke-width="0.47166"
       id="path102" />
    <path
       d="M448.96 203.59H465.593C466.467 203.59 467.176 202.881 467.176 202.005C467.176 201.129 466.467 200.42 465.593 200.42H448.96C448.085 200.42 447.376 201.129 447.376 202.005C447.376 202.881 448.085 203.59 448.96 203.59Z"
       fill="#29C770"
       fill-opacity="0.6"
       stroke="#29C770"
       stroke-width="0.47166"
       id="path103" />
    <path
       d="M461.677 200.42H452.877C451.504 200.42 450.338 199.415 450.135 198.057L448.709 188.542C448.458 186.865 449.756 185.355 451.452 185.355H463.102C464.797 185.355 466.095 186.865 465.843 188.542L464.417 198.057C464.214 199.415 463.049 200.42 461.677 200.42Z"
       fill="#29C770"
       fill-opacity="0.4"
       stroke="#29C770"
       stroke-width="0.47166"
       id="path104" />
    <path
       d="M424.407 203.59H441.04C441.915 203.59 442.624 202.881 442.624 202.005C442.624 201.129 441.915 200.42 441.04 200.42H424.407C423.533 200.42 422.824 201.129 422.824 202.005C422.824 202.881 423.533 203.59 424.407 203.59Z"
       fill="#29C770"
       fill-opacity="0.6"
       stroke="#29C770"
       stroke-width="0.47166"
       id="path105" />
    <path
       d="M437.123 200.42H428.323C426.951 200.42 425.786 199.415 425.583 198.057L424.157 188.542C423.905 186.865 425.203 185.355 426.898 185.355H438.548C440.244 185.355 441.542 186.865 441.291 188.542L439.865 198.057C439.662 199.415 438.496 200.42 437.123 200.42Z"
       fill="#29C770"
       fill-opacity="0.4"
       stroke="#29C770"
       stroke-width="0.47166"
       id="path106" />
    <path
       d="M410.943 167.913V184.563C410.943 185.439 411.652 186.149 412.527 186.149C413.402 186.149 414.11 185.439 414.11 184.563V167.913C414.11 167.038 413.402 166.328 412.527 166.328C411.652 166.328 410.943 167.038 410.943 167.913Z"
       fill="#29C770"
       fill-opacity="0.6"
       stroke="#29C770"
       stroke-width="0.47166"
       id="path107" />
    <path
       d="M414.11 180.642V171.834C414.11 170.46 415.114 169.294 416.471 169.089L425.976 167.662C427.652 167.411 429.16 168.71 429.16 170.407V182.069C429.16 183.767 427.652 185.066 425.976 184.814L416.471 183.387C415.114 183.183 414.11 182.015 414.11 180.642Z"
       fill="#29C770"
       fill-opacity="0.4"
       stroke="#29C770"
       stroke-width="0.47166"
       id="path108" />
    <path
       d="M479.057 167.916V184.565C479.057 185.441 478.348 186.152 477.473 186.152C476.598 186.152 475.89 185.441 475.89 184.565V167.916C475.89 167.04 476.598 166.331 477.473 166.331C478.348 166.331 479.057 167.04 479.057 167.916Z"
       fill="#29C770"
       fill-opacity="0.6"
       stroke="#29C770"
       stroke-width="0.47166"
       id="path109" />
    <path
       d="M475.89 180.645V171.837C475.89 170.464 474.886 169.295 473.529 169.092L464.024 167.665C462.348 167.414 460.84 168.714 460.84 170.41V182.072C460.84 183.768 462.348 185.068 464.024 184.817L473.529 183.39C474.886 183.185 475.89 182.019 475.89 180.645Z"
       fill="#29C770"
       fill-opacity="0.4"
       stroke="#29C770"
       stroke-width="0.47166"
       id="path110" />
    <path
       d="M416.883 158.003V194.473C416.883 196.224 418.302 197.645 420.051 197.645H469.949C471.698 197.645 473.117 196.224 473.117 194.473V158.003C473.117 156.251 471.698 154.831 469.949 154.831H420.051C418.302 154.831 416.883 156.251 416.883 158.003Z"
       fill="#29C770"
       id="path111" />
    <path
       d="M444.495 183.424C443.512 183.424 442.644 183.251 441.89 182.901C441.141 182.548 440.557 182.064 440.137 181.447C439.717 180.827 439.509 180.119 439.514 179.327C439.509 178.705 439.631 178.134 439.878 177.608C440.127 177.078 440.466 176.636 440.894 176.283C441.329 175.925 441.813 175.698 442.347 175.602V175.517C441.647 175.335 441.087 174.94 440.673 174.335C440.258 173.723 440.053 173.029 440.058 172.251C440.053 171.504 440.241 170.839 440.622 170.252C441.005 169.664 441.529 169.201 442.197 168.862C442.871 168.522 443.636 168.352 444.495 168.352C445.344 168.352 446.102 168.522 446.77 168.862C447.438 169.201 447.962 169.664 448.343 170.252C448.731 170.839 448.926 171.504 448.931 172.251C448.926 173.029 448.714 173.723 448.295 174.335C447.878 174.94 447.327 175.335 446.641 175.517V175.602C447.171 175.698 447.648 175.925 448.073 176.283C448.496 176.636 448.835 177.078 449.089 177.608C449.341 178.134 449.47 178.705 449.475 179.327C449.47 180.119 449.255 180.827 448.83 181.447C448.411 182.064 447.826 182.548 447.077 182.901C446.333 183.251 445.472 183.424 444.495 183.424ZM444.495 181.849C445.158 181.849 445.73 181.741 446.212 181.526C446.694 181.311 447.065 181.008 447.327 180.617C447.591 180.225 447.724 179.766 447.729 179.242C447.724 178.687 447.581 178.198 447.299 177.772C447.018 177.347 446.634 177.013 446.147 176.771C445.665 176.527 445.114 176.404 444.495 176.404C443.87 176.404 443.311 176.527 442.82 176.771C442.333 177.013 441.949 177.347 441.668 177.772C441.391 178.198 441.255 178.687 441.26 179.242C441.255 179.766 441.381 180.225 441.64 180.617C441.902 181.008 442.276 181.311 442.763 181.526C443.249 181.741 443.826 181.849 444.495 181.849ZM444.495 174.886C445.018 174.886 445.484 174.78 445.89 174.57C446.3 174.36 446.622 174.068 446.856 173.689C447.089 173.313 447.208 172.871 447.213 172.365C447.208 171.867 447.092 171.435 446.862 171.067C446.634 170.696 446.317 170.408 445.912 170.208C445.505 170.003 445.034 169.901 444.495 169.901C443.945 169.901 443.467 170.003 443.055 170.208C442.646 170.408 442.328 170.696 442.105 171.067C441.88 171.435 441.771 171.867 441.776 172.365C441.771 172.871 441.882 173.313 442.112 173.689C442.345 174.068 442.668 174.36 443.077 174.57C443.487 174.78 443.961 174.886 444.495 174.886Z"
        fill="white"
        class="number"
       id="path112" />
  </g>
  <g
     id="table9">
    <path
       d="M641.814 148.885H625.183C624.308 148.885 623.598 149.595 623.598 150.471C623.598 151.347 624.308 152.056 625.183 152.056H641.814C642.689 152.056 643.399 151.347 643.399 150.471C643.399 149.595 642.689 148.885 641.814 148.885Z"
       fill="#29C770"
       fill-opacity="0.6"
       stroke="#29C770"
       stroke-width="0.47166"
       id="path113" />
    <path
       d="M629.099 152.056H637.898C639.27 152.056 640.437 153.061 640.64 154.42L642.066 163.934C642.316 165.611 641.018 167.12 639.324 167.12H627.673C625.979 167.12 624.681 165.611 624.931 163.934L626.357 154.42C626.562 153.061 627.727 152.056 629.099 152.056Z"
       fill="#29C770"
       fill-opacity="0.4"
       stroke="#29C770"
       stroke-width="0.47166"
       id="path114" />
    <path
       d="M666.368 148.885H649.735C648.86 148.885 648.152 149.595 648.152 150.471C648.152 151.347 648.86 152.056 649.735 152.056H666.368C667.243 152.056 667.952 151.347 667.952 150.471C667.952 149.595 667.243 148.885 666.368 148.885Z"
       fill="#29C770"
       fill-opacity="0.6"
       stroke="#29C770"
       stroke-width="0.47166"
       id="path115" />
    <path
       d="M653.651 152.056H662.452C663.824 152.056 664.99 153.061 665.193 154.42L666.618 163.934C666.87 165.611 665.572 167.12 663.878 167.12H652.226C650.531 167.12 649.233 165.611 649.485 163.934L650.911 154.42C651.114 153.061 652.279 152.056 653.651 152.056Z"
       fill="#29C770"
       fill-opacity="0.4"
       stroke="#29C770"
       stroke-width="0.47166"
       id="path116" />
    <path
       d="M649.735 203.59H666.368C667.243 203.59 667.952 202.881 667.952 202.005C667.952 201.129 667.243 200.42 666.368 200.42H649.735C648.86 200.42 648.152 201.129 648.152 202.005C648.152 202.881 648.86 203.59 649.735 203.59Z"
       fill="#29C770"
       fill-opacity="0.6"
       stroke="#29C770"
       stroke-width="0.47166"
       id="path117" />
    <path
       d="M662.452 200.42H653.651C652.279 200.42 651.114 199.415 650.911 198.057L649.485 188.542C649.233 186.865 650.531 185.355 652.226 185.355H663.878C665.572 185.355 666.87 186.865 666.618 188.542L665.193 198.057C664.99 199.415 663.824 200.42 662.452 200.42Z"
       fill="#29C770"
       fill-opacity="0.4"
       stroke="#29C770"
       stroke-width="0.47166"
       id="path118" />
    <path
       d="M625.183 203.59H641.814C642.689 203.59 643.399 202.881 643.399 202.005C643.399 201.129 642.689 200.42 641.814 200.42H625.183C624.308 200.42 623.598 201.129 623.598 202.005C623.598 202.881 624.308 203.59 625.183 203.59Z"
       fill="#29C770"
       fill-opacity="0.6"
       stroke="#29C770"
       stroke-width="0.47166"
       id="path119" />
    <path
       d="M637.898 200.42H629.099C627.727 200.42 626.562 199.415 626.357 198.057L624.931 188.542C624.681 186.865 625.979 185.355 627.673 185.355H639.324C641.018 185.355 642.316 186.865 642.066 188.542L640.64 198.057C640.437 199.415 639.27 200.42 637.898 200.42Z"
       fill="#29C770"
       fill-opacity="0.4"
       stroke="#29C770"
       stroke-width="0.47166"
       id="path120" />
    <path
       d="M611.717 167.913V184.563C611.717 185.439 612.427 186.149 613.302 186.149C614.177 186.149 614.886 185.439 614.886 184.563V167.913C614.886 167.038 614.177 166.328 613.302 166.328C612.427 166.328 611.717 167.038 611.717 167.913Z"
       fill="#29C770"
       fill-opacity="0.6"
       stroke="#29C770"
       stroke-width="0.47166"
       id="path121" />
    <path
       d="M614.886 180.642V171.834C614.886 170.46 615.89 169.294 617.247 169.089L626.751 167.662C628.427 167.411 629.935 168.71 629.935 170.407V182.069C629.935 183.767 628.427 185.066 626.751 184.814L617.247 183.387C615.89 183.183 614.886 182.015 614.886 180.642Z"
       fill="#29C770"
       fill-opacity="0.4"
       stroke="#29C770"
       stroke-width="0.47166"
       id="path122" />
    <path
       d="M679.832 167.916V184.565C679.832 185.441 679.124 186.152 678.249 186.152C677.374 186.152 676.665 185.441 676.665 184.565V167.916C676.665 167.04 677.374 166.331 678.249 166.331C679.124 166.331 679.832 167.04 679.832 167.916Z"
       fill="#29C770"
       fill-opacity="0.6"
       stroke="#29C770"
       stroke-width="0.47166"
       id="path123" />
    <path
       d="M676.665 180.645V171.837C676.665 170.464 675.661 169.295 674.304 169.092L664.8 167.665C663.124 167.414 661.616 168.714 661.616 170.41V182.072C661.616 183.768 663.124 185.068 664.8 184.817L674.304 183.39C675.661 183.185 676.665 182.019 676.665 180.645Z"
       fill="#29C770"
       fill-opacity="0.4"
       stroke="#29C770"
       stroke-width="0.47166"
       id="path124" />
    <path
       d="M617.658 158.003V194.473C617.658 196.224 619.077 197.645 620.825 197.645H670.724C672.474 197.645 673.893 196.224 673.893 194.473V158.003C673.893 156.251 672.474 154.831 670.724 154.831H620.825C619.077 154.831 617.658 156.251 617.658 158.003Z"
       fill="#29C770"
       id="path125" />
    <path
       d="M645.975 168.352C646.577 168.357 647.178 168.472 647.779 168.697C648.38 168.921 648.928 169.294 649.425 169.815C649.92 170.331 650.318 171.035 650.619 171.928C650.919 172.82 651.07 173.94 651.07 175.286C651.07 176.591 650.946 177.749 650.697 178.761C650.454 179.769 650.101 180.618 649.64 181.311C649.181 182.003 648.624 182.53 647.964 182.888C647.31 183.246 646.572 183.424 645.745 183.424C644.926 183.424 644.194 183.262 643.549 182.938C642.911 182.609 642.385 182.151 641.975 181.57C641.569 180.981 641.309 180.301 641.195 179.527H642.941C643.099 180.201 643.411 180.758 643.878 181.197C644.35 181.632 644.973 181.849 645.745 181.849C646.877 181.849 647.769 181.355 648.422 180.366C649.08 179.378 649.409 177.981 649.409 176.176H649.295C649.028 176.576 648.711 176.922 648.343 177.214C647.977 177.505 647.569 177.73 647.121 177.887C646.672 178.045 646.195 178.124 645.688 178.124C644.849 178.124 644.08 177.915 643.378 177.5C642.681 177.08 642.123 176.505 641.703 175.774C641.289 175.039 641.08 174.199 641.08 173.252C641.08 172.355 641.28 171.533 641.682 170.788C642.086 170.038 642.656 169.442 643.384 168.998C644.12 168.554 644.983 168.339 645.975 168.352ZM645.975 169.929C645.374 169.929 644.832 170.079 644.35 170.38C643.873 170.677 643.495 171.077 643.213 171.583C642.936 172.086 642.798 172.642 642.798 173.252C642.798 173.864 642.931 174.421 643.198 174.922C643.47 175.419 643.841 175.814 644.308 176.11C644.78 176.402 645.317 176.547 645.918 176.547C646.372 176.547 646.793 176.46 647.185 176.283C647.576 176.102 647.917 175.854 648.207 175.545C648.504 175.229 648.734 174.874 648.902 174.478C649.069 174.076 649.153 173.659 649.153 173.224C649.153 172.651 649.013 172.114 648.738 171.612C648.466 171.111 648.088 170.706 647.606 170.395C647.129 170.084 646.585 169.929 645.975 169.929Z"
        fill="white"
        class="number"
       id="path126" />
  </g>
  <g
     id="table10">
    <path
       d="M867.144 172.274V155.624C867.144 154.748 866.434 154.039 865.559 154.039C864.684 154.039 863.975 154.748 863.975 155.624V172.274C863.975 173.15 864.684 173.859 865.559 173.859C866.434 173.859 867.144 173.15 867.144 172.274Z"
       fill="#29C770"
       fill-opacity="0.6"
       stroke="#29C770"
       stroke-width="0.47166"
       id="path127" />
    <path
       d="M863.975 159.545V168.354C863.975 169.727 862.971 170.894 861.614 171.097L852.11 172.525C850.434 172.777 848.927 171.477 848.927 169.781V158.117C848.927 156.421 850.434 155.122 852.11 155.373L861.614 156.8C862.971 157.004 863.975 158.171 863.975 159.545Z"
       fill="#29C770"
       fill-opacity="0.4"
       stroke="#29C770"
       stroke-width="0.47166"
       id="path128" />
    <path
       d="M867.144 196.851V180.201C867.144 179.326 866.434 178.616 865.559 178.616C864.684 178.616 863.975 179.326 863.975 180.201V196.851C863.975 197.727 864.684 198.438 865.559 198.438C866.434 198.438 867.144 197.727 867.144 196.851Z"
       fill="#29C770"
       fill-opacity="0.6"
       stroke="#29C770"
       stroke-width="0.47166"
       id="path129" />
    <path
       d="M863.975 184.123V192.931C863.975 194.305 862.971 195.471 861.614 195.676L852.11 197.104C850.434 197.354 848.927 196.055 848.927 194.359V182.696C848.927 180.998 850.434 179.699 852.11 179.951L861.614 181.378C862.971 181.582 863.975 182.75 863.975 184.123Z"
       fill="#29C770"
       fill-opacity="0.4"
       stroke="#29C770"
       stroke-width="0.47166"
       id="path130" />
    <path
       d="M812.493 180.201V196.851C812.493 197.727 813.203 198.438 814.076 198.438C814.951 198.438 815.661 197.727 815.661 196.851V180.201C815.661 179.326 814.951 178.616 814.076 178.616C813.203 178.616 812.493 179.326 812.493 180.201Z"
       fill="#29C770"
       fill-opacity="0.6"
       stroke="#29C770"
       stroke-width="0.47166"
       id="path131" />
    <path
       d="M815.661 192.931V184.123C815.661 182.75 816.666 181.582 818.022 181.378L827.527 179.951C829.203 179.699 830.709 180.998 830.709 182.696V194.359C830.709 196.055 829.203 197.354 827.527 197.104L818.022 195.676C816.666 195.471 815.661 194.305 815.661 192.931Z"
       fill="#29C770"
       fill-opacity="0.4"
       stroke="#29C770"
       stroke-width="0.47166"
       id="path132" />
    <path
       d="M812.493 155.624V172.274C812.493 173.15 813.203 173.859 814.076 173.859C814.951 173.859 815.661 173.15 815.661 172.274V155.624C815.661 154.748 814.951 154.039 814.076 154.039C813.203 154.039 812.493 154.748 812.493 155.624Z"
       fill="#29C770"
       fill-opacity="0.6"
       stroke="#29C770"
       stroke-width="0.47166"
       id="path133" />
    <path
       d="M815.661 168.354V159.545C815.661 158.171 816.666 157.004 818.022 156.8L827.527 155.373C829.203 155.122 830.709 156.421 830.709 158.118V169.781C830.709 171.477 829.203 172.777 827.527 172.525L818.022 171.097C816.666 170.894 815.661 169.727 815.661 168.354Z"
       fill="#29C770"
       fill-opacity="0.4"
       stroke="#29C770"
       stroke-width="0.47166"
       id="path134" />
    <path
       d="M848.135 142.146H831.502C830.627 142.146 829.918 142.856 829.918 143.732C829.918 144.607 830.627 145.317 831.502 145.317H848.135C849.01 145.317 849.718 144.607 849.718 143.732C849.718 142.856 849.01 142.146 848.135 142.146Z"
       fill="#29C770"
       fill-opacity="0.6"
       stroke="#29C770"
       stroke-width="0.47166"
       id="path135" />
    <path
       d="M835.418 145.317H844.219C845.591 145.317 846.756 146.322 846.959 147.681L848.385 157.195C848.637 158.872 847.339 160.381 845.644 160.381H833.992C832.298 160.381 831 158.872 831.252 157.195L832.677 147.681C832.88 146.322 834.046 145.317 835.418 145.317Z"
       fill="#29C770"
       fill-opacity="0.4"
       stroke="#29C770"
       stroke-width="0.47166"
       id="path136" />
    <path
       d="M848.131 210.331H831.498C830.624 210.331 829.915 209.62 829.915 208.744C829.915 207.868 830.624 207.159 831.498 207.159H848.131C849.006 207.159 849.715 207.868 849.715 208.744C849.715 209.62 849.006 210.331 848.131 210.331Z"
       fill="#29C770"
       fill-opacity="0.6"
       stroke="#29C770"
       stroke-width="0.47166"
       id="path137" />
    <path
       d="M835.414 207.159H844.215C845.587 207.159 846.753 206.154 846.956 204.796L848.382 195.281C848.633 193.604 847.335 192.094 845.641 192.094H833.99C832.294 192.094 830.996 193.604 831.248 195.281L832.674 204.796C832.877 206.154 834.042 207.159 835.414 207.159Z"
       fill="#29C770"
       fill-opacity="0.4"
       stroke="#29C770"
       stroke-width="0.47166"
       id="path138" />
    <path
       d="M858.036 148.092H821.601C819.851 148.092 818.434 149.512 818.434 151.264V201.212C818.434 202.963 819.851 204.384 821.601 204.384H858.036C859.785 204.384 861.203 202.963 861.203 201.212V151.264C861.203 149.512 859.785 148.092 858.036 148.092Z"
       fill="#29C770"
       id="path139" />
    <path
       d="M834.538 168.554V183.224H832.763V170.417H832.677L829.099 172.793V170.99L832.763 168.554H834.538ZM843.532 183.424C842.454 183.424 841.535 183.131 840.778 182.543C840.019 181.951 839.44 181.094 839.038 179.971C838.637 178.845 838.437 177.483 838.437 175.888C838.437 174.303 838.637 172.95 839.038 171.827C839.443 170.701 840.026 169.84 840.785 169.248C841.547 168.652 842.464 168.352 843.532 168.352C844.6 168.352 845.515 168.652 846.272 169.248C847.036 169.84 847.618 170.701 848.019 171.827C848.424 172.95 848.627 174.303 848.627 175.888C848.627 177.483 848.427 178.845 848.026 179.971C847.626 181.094 847.045 181.951 846.288 182.543C845.529 183.131 844.61 183.424 843.532 183.424ZM843.532 181.849C844.6 181.849 845.431 181.333 846.022 180.301C846.613 179.27 846.909 177.799 846.909 175.888C846.909 174.619 846.775 173.536 846.502 172.644C846.235 171.751 845.848 171.071 845.342 170.602C844.842 170.134 844.239 169.901 843.532 169.901C842.472 169.901 841.646 170.423 841.048 171.469C840.452 172.509 840.155 173.984 840.155 175.888C840.155 177.159 840.288 178.238 840.555 179.126C840.822 180.015 841.206 180.691 841.707 181.153C842.214 181.617 842.822 181.849 843.532 181.849Z"
        fill="white"
        class="number"
       id="path140" />
  </g>
  <g
     id="table11">
    <path
       d="M77.5069 294.249V277.599C77.5069 276.723 76.7978 276.012 75.9229 276.012C75.048 276.012 74.3389 276.723 74.3389 277.599V294.249C74.3389 295.125 75.048 295.834 75.9229 295.834C76.7978 295.834 77.5069 295.125 77.5069 294.249Z"
       fill="#29C770"
       fill-opacity="0.6"
       stroke="#29C770"
       stroke-width="0.47166"
       id="path141" />
    <path
       d="M74.3388 281.519V290.327C74.3388 291.702 73.335 292.869 71.978 293.072L62.4736 294.499C60.7976 294.752 59.2903 293.452 59.2903 291.754V280.092C59.2903 278.396 60.7976 277.097 62.4736 277.347L71.978 278.774C73.335 278.979 74.3388 280.146 74.3388 281.519Z"
       fill="#29C770"
       fill-opacity="0.4"
       stroke="#29C770"
       stroke-width="0.47166"
       id="path142" />
    <path
       d="M77.5069 318.826V302.176C77.5069 301.301 76.7978 300.591 75.9229 300.591C75.048 300.591 74.3389 301.301 74.3389 302.176V318.826C74.3389 319.702 75.048 320.411 75.9229 320.411C76.7978 320.411 77.5069 319.702 77.5069 318.826Z"
       fill="#29C770"
       fill-opacity="0.6"
       stroke="#29C770"
       stroke-width="0.47166"
       id="path143" />
    <path
       d="M74.3388 306.096V314.906C74.3388 316.28 73.335 317.446 71.978 317.65L62.4736 319.077C60.7976 319.329 59.2903 318.029 59.2903 316.333V304.669C59.2903 302.973 60.7976 301.674 62.4736 301.926L71.978 303.353C73.335 303.556 74.3388 304.723 74.3388 306.096Z"
       fill="#29C770"
       fill-opacity="0.4"
       stroke="#29C770"
       stroke-width="0.47166"
       id="path144" />
    <path
       d="M22.8567 302.176V318.826C22.8567 319.702 23.5659 320.411 24.4408 320.411C25.3156 320.411 26.0248 319.702 26.0248 318.826V302.176C26.0248 301.301 25.3156 300.591 24.4408 300.591C23.5659 300.591 22.8567 301.301 22.8567 302.176Z"
       fill="#29C770"
       fill-opacity="0.6"
       stroke="#29C770"
       stroke-width="0.47166"
       id="path145" />
    <path
       d="M26.0248 314.906V306.096C26.0248 304.723 27.0288 303.556 28.3858 303.353L37.8902 301.926C39.5662 301.674 41.0735 302.973 41.0735 304.669V316.333C41.0735 318.029 39.5662 319.329 37.8902 319.077L28.3858 317.65C27.0288 317.446 26.0248 316.28 26.0248 314.906Z"
       fill="#29C770"
       fill-opacity="0.4"
       stroke="#29C770"
       stroke-width="0.47166"
       id="path146" />
    <path
       d="M22.8567 277.599V294.249C22.8567 295.125 23.5659 295.834 24.4408 295.834C25.3156 295.834 26.0248 295.125 26.0248 294.249V277.599C26.0248 276.723 25.3156 276.012 24.4408 276.012C23.5659 276.012 22.8567 276.723 22.8567 277.599Z"
       fill="#29C770"
       fill-opacity="0.6"
       stroke="#29C770"
       stroke-width="0.47166"
       id="path147" />
    <path
       d="M26.0248 290.327V281.519C26.0248 280.146 27.0288 278.979 28.3858 278.774L37.8902 277.347C39.5662 277.097 41.0735 278.396 41.0735 280.092V291.754C41.0735 293.452 39.5662 294.752 37.8902 294.499L28.3858 293.072C27.0288 292.869 26.0248 291.702 26.0248 290.327Z"
       fill="#29C770"
       fill-opacity="0.4"
       stroke="#29C770"
       stroke-width="0.47166"
       id="path148" />
    <path
       d="M58.4982 264.121H41.8654C40.9905 264.121 40.2814 264.831 40.2814 265.706C40.2814 266.582 40.9905 267.292 41.8654 267.292H58.4982C59.3731 267.292 60.0822 266.582 60.0822 265.706C60.0822 264.831 59.3731 264.121 58.4982 264.121Z"
       fill="#29C770"
       fill-opacity="0.6"
       stroke="#29C770"
       stroke-width="0.47166"
       id="path149" />
    <path
       d="M45.7818 267.292H54.5817C55.954 267.292 57.1195 268.297 57.3232 269.655L58.7487 279.169C59.0001 280.847 57.7021 282.356 56.0074 282.356H44.3563C42.6614 282.356 41.3633 280.847 41.6147 279.169L43.0404 269.655C43.2439 268.297 44.4097 267.292 45.7818 267.292Z"
       fill="#29C770"
       fill-opacity="0.4"
       stroke="#29C770"
       stroke-width="0.47166"
       id="path150" />
    <path
       d="M58.4952 332.304H41.8626C40.9877 332.304 40.2786 331.595 40.2786 330.719C40.2786 329.843 40.9877 329.134 41.8626 329.134H58.4952C59.3701 329.134 60.0794 329.843 60.0794 330.719C60.0794 331.595 59.3701 332.304 58.4952 332.304Z"
       fill="#29C770"
       fill-opacity="0.6"
       stroke="#29C770"
       stroke-width="0.47166"
       id="path151" />
    <path
       d="M45.7789 329.134H54.5788C55.9509 329.134 57.1167 328.129 57.3202 326.77L58.7459 317.256C58.9973 315.579 57.6992 314.069 56.0045 314.069H44.3532C42.6585 314.069 41.3605 315.579 41.6119 317.256L43.0375 326.77C43.2411 328.129 44.4068 329.134 45.7789 329.134Z"
       fill="#29C770"
       fill-opacity="0.4"
       stroke="#29C770"
       stroke-width="0.47166"
       id="path152" />
    <path
       d="M68.3985 270.067H31.9651C30.2153 270.067 28.7969 271.487 28.7969 273.239V323.187C28.7969 324.938 30.2153 326.359 31.9651 326.359H68.3985C70.1483 326.359 71.5668 324.938 71.5668 323.187V273.239C71.5668 271.487 70.1483 270.067 68.3985 270.067Z"
       fill="#29C770"
       id="path153" />
    <path
       d="M46.9712 289.583V304.252H45.1966V291.445H45.1106L41.5328 293.822V292.018L45.1966 289.583H46.9712ZM56.3382 289.583V304.252H54.5636V291.445H54.4777L50.8998 293.822V292.018L54.5636 289.583H56.3382Z"
        fill="white"
        class="number"
       id="path154" />
  </g>
  <g
     id="table12">
    <path
       d="M240.265 270.86H223.632C222.757 270.86 222.048 271.57 222.048 272.445C222.048 273.321 222.757 274.031 223.632 274.031H240.265C241.14 274.031 241.848 273.321 241.848 272.445C241.848 271.57 241.14 270.86 240.265 270.86Z"
       fill="#29C770"
       fill-opacity="0.6"
       stroke="#29C770"
       stroke-width="0.47166"
       id="path155" />
    <path
       d="M227.548 274.031H236.349C237.721 274.031 238.886 275.036 239.089 276.394L240.515 285.908C240.767 287.586 239.469 289.095 237.774 289.095H226.122C224.428 289.095 223.13 287.586 223.382 285.908L224.807 276.394C225.01 275.036 226.176 274.031 227.548 274.031Z"
       fill="#29C770"
       fill-opacity="0.4"
       stroke="#29C770"
       stroke-width="0.47166"
       id="path156" />
    <path
       d="M264.817 270.86H248.184C247.311 270.86 246.601 271.57 246.601 272.445C246.601 273.321 247.311 274.031 248.184 274.031H264.817C265.692 274.031 266.402 273.321 266.402 272.445C266.402 271.57 265.692 270.86 264.817 270.86Z"
       fill="#29C770"
       fill-opacity="0.6"
       stroke="#29C770"
       stroke-width="0.47166"
       id="path157" />
    <path
       d="M252.102 274.031H260.901C262.273 274.031 263.438 275.036 263.643 276.394L265.069 285.908C265.319 287.586 264.021 289.095 262.327 289.095H250.676C248.982 289.095 247.684 287.586 247.934 285.908L249.36 276.394C249.563 275.036 250.73 274.031 252.102 274.031Z"
       fill="#29C770"
       fill-opacity="0.4"
       stroke="#29C770"
       stroke-width="0.47166"
       id="path158" />
    <path
       d="M248.186 325.565H264.817C265.692 325.565 266.402 324.856 266.402 323.98C266.402 323.104 265.692 322.395 264.817 322.395H248.186C247.311 322.395 246.601 323.104 246.601 323.98C246.601 324.856 247.311 325.565 248.186 325.565Z"
       fill="#29C770"
       fill-opacity="0.6"
       stroke="#29C770"
       stroke-width="0.47166"
       id="path159" />
    <path
       d="M260.901 322.395H252.102C250.73 322.395 249.563 321.39 249.36 320.031L247.934 310.517C247.684 308.84 248.982 307.33 250.676 307.33H262.327C264.021 307.33 265.319 308.84 265.069 310.517L263.643 320.031C263.438 321.39 262.273 322.395 260.901 322.395Z"
       fill="#29C770"
       fill-opacity="0.4"
       stroke="#29C770"
       stroke-width="0.47166"
       id="path160" />
    <path
       d="M223.632 325.565H240.265C241.14 325.565 241.848 324.856 241.848 323.98C241.848 323.104 241.14 322.395 240.265 322.395H223.632C222.757 322.395 222.048 323.104 222.048 323.98C222.048 324.856 222.757 325.565 223.632 325.565Z"
       fill="#29C770"
       fill-opacity="0.6"
       stroke="#29C770"
       stroke-width="0.47166"
       id="path161" />
    <path
       d="M236.349 322.395H227.548C226.176 322.395 225.01 321.39 224.807 320.031L223.382 310.517C223.13 308.84 224.428 307.33 226.122 307.33H237.774C239.469 307.33 240.767 308.84 240.515 310.517L239.089 320.031C238.886 321.39 237.721 322.395 236.349 322.395Z"
       fill="#29C770"
       fill-opacity="0.4"
       stroke="#29C770"
       stroke-width="0.47166"
       id="path162" />
    <path
       d="M210.168 289.889V306.537C210.168 307.412 210.876 308.124 211.751 308.124C212.626 308.124 213.335 307.412 213.335 306.537V289.889C213.335 289.013 212.626 288.302 211.751 288.302C210.876 288.302 210.168 289.013 210.168 289.889Z"
       fill="#29C770"
       fill-opacity="0.6"
       stroke="#29C770"
       stroke-width="0.47166"
       id="path163" />
    <path
       d="M213.335 302.617V293.809C213.335 292.435 214.339 291.267 215.696 291.064L225.2 289.636C226.876 289.386 228.384 290.685 228.384 292.381V304.044C228.384 305.74 226.876 307.039 225.2 306.789L215.696 305.362C214.339 305.157 213.335 303.99 213.335 302.617Z"
       fill="#29C770"
       fill-opacity="0.4"
       stroke="#29C770"
       stroke-width="0.47166"
       id="path164" />
    <path
       d="M278.283 289.89V306.54C278.283 307.416 277.573 308.125 276.698 308.125C275.823 308.125 275.114 307.416 275.114 306.54V289.89C275.114 289.015 275.823 288.305 276.698 288.305C277.573 288.305 278.283 289.015 278.283 289.89Z"
       fill="#29C770"
       fill-opacity="0.6"
       stroke="#29C770"
       stroke-width="0.47166"
       id="path165" />
    <path
       d="M275.114 302.62V293.81C275.114 292.437 274.11 291.27 272.753 291.067L263.249 289.64C261.573 289.388 260.065 290.687 260.065 292.383V304.047C260.065 305.743 261.573 307.043 263.249 306.791L272.753 305.363C274.11 305.16 275.114 303.993 275.114 302.62Z"
       fill="#29C770"
       fill-opacity="0.4"
       stroke="#29C770"
       stroke-width="0.47166"
       id="path166" />
    <path
       d="M216.107 279.978V316.448C216.107 318.199 217.526 319.62 219.276 319.62H269.173C270.923 319.62 272.342 318.199 272.342 316.448V279.978C272.342 278.226 270.923 276.806 269.173 276.806H219.276C217.526 276.806 216.107 278.226 216.107 279.978Z"
       fill="#29C770"
       id="path167" />
    <path
       d="M240.085 289.583V304.252H238.31V291.445H238.224L234.646 293.822V292.018L238.31 289.583H240.085ZM244.3 304.252V302.963L249.136 297.663C249.704 297.041 250.172 296.501 250.538 296.043C250.906 295.58 251.178 295.145 251.354 294.74C251.536 294.33 251.627 293.899 251.627 293.451C251.627 292.935 251.502 292.487 251.255 292.111C251.012 291.734 250.678 291.442 250.253 291.237C249.828 291.032 249.351 290.929 248.822 290.929C248.258 290.929 247.768 291.045 247.348 291.28C246.933 291.509 246.611 291.832 246.382 292.247C246.157 292.662 246.045 293.15 246.045 293.708H244.357C244.357 292.849 244.555 292.094 244.95 291.445C245.346 290.795 245.885 290.289 246.567 289.926C247.254 289.563 248.025 289.381 248.879 289.381C249.737 289.381 250.498 289.563 251.161 289.926C251.825 290.289 252.345 290.778 252.721 291.395C253.099 292.01 253.287 292.696 253.287 293.451C253.287 293.99 253.19 294.518 252.993 295.034C252.802 295.545 252.469 296.115 251.991 296.745C251.519 297.371 250.864 298.135 250.025 299.038L246.731 302.561V302.676H253.544V304.252H244.3Z"
        fill="white"
        class="number"
       id="path168" />
  </g>
  <g
     id="table13">
    <path
       d="M441.04 270.86H424.407C423.533 270.86 422.824 271.57 422.824 272.445C422.824 273.321 423.533 274.031 424.407 274.031H441.04C441.915 274.031 442.624 273.321 442.624 272.445C442.624 271.57 441.915 270.86 441.04 270.86Z"
       fill="#29C770"
       fill-opacity="0.6"
       stroke="#29C770"
       stroke-width="0.47166"
       id="path169" />
    <path
       d="M428.323 274.031H437.123C438.496 274.031 439.662 275.036 439.865 276.394L441.291 285.908C441.542 287.586 440.244 289.095 438.548 289.095H426.898C425.203 289.095 423.905 287.586 424.157 285.908L425.583 276.394C425.786 275.036 426.951 274.031 428.323 274.031Z"
       fill="#29C770"
       fill-opacity="0.4"
       stroke="#29C770"
       stroke-width="0.47166"
       id="path170" />
    <path
       d="M465.593 270.86H448.96C448.085 270.86 447.376 271.57 447.376 272.445C447.376 273.321 448.085 274.031 448.96 274.031H465.593C466.467 274.031 467.176 273.321 467.176 272.445C467.176 271.57 466.467 270.86 465.593 270.86Z"
       fill="#29C770"
       fill-opacity="0.6"
       stroke="#29C770"
       stroke-width="0.47166"
       id="path171" />
    <path
       d="M452.876 274.031H461.677C463.049 274.031 464.214 275.036 464.417 276.394L465.843 285.908C466.095 287.586 464.797 289.095 463.102 289.095H451.452C449.756 289.095 448.458 287.586 448.709 285.908L450.135 276.394C450.338 275.036 451.504 274.031 452.876 274.031Z"
       fill="#29C770"
       fill-opacity="0.4"
       stroke="#29C770"
       stroke-width="0.47166"
       id="path172" />
    <path
       d="M448.96 325.565H465.593C466.467 325.565 467.176 324.856 467.176 323.98C467.176 323.104 466.467 322.395 465.593 322.395H448.96C448.085 322.395 447.376 323.104 447.376 323.98C447.376 324.856 448.085 325.565 448.96 325.565Z"
       fill="#29C770"
       fill-opacity="0.6"
       stroke="#29C770"
       stroke-width="0.47166"
       id="path173" />
    <path
       d="M461.677 322.395H452.876C451.504 322.395 450.338 321.39 450.135 320.031L448.709 310.517C448.458 308.84 449.756 307.33 451.452 307.33H463.102C464.797 307.33 466.095 308.84 465.843 310.517L464.417 320.031C464.214 321.39 463.049 322.395 461.677 322.395Z"
       fill="#29C770"
       fill-opacity="0.4"
       stroke="#29C770"
       stroke-width="0.47166"
       id="path174" />
    <path
       d="M424.407 325.565H441.04C441.915 325.565 442.624 324.856 442.624 323.98C442.624 323.104 441.915 322.395 441.04 322.395H424.407C423.533 322.395 422.824 323.104 422.824 323.98C422.824 324.856 423.533 325.565 424.407 325.565Z"
       fill="#29C770"
       fill-opacity="0.6"
       stroke="#29C770"
       stroke-width="0.47166"
       id="path175" />
    <path
       d="M437.123 322.395H428.323C426.951 322.395 425.786 321.39 425.583 320.031L424.157 310.517C423.905 308.84 425.203 307.33 426.898 307.33H438.548C440.244 307.33 441.542 308.84 441.291 310.517L439.865 320.031C439.662 321.39 438.496 322.395 437.123 322.395Z"
       fill="#29C770"
       fill-opacity="0.4"
       stroke="#29C770"
       stroke-width="0.47166"
       id="path176" />
    <path
       d="M410.943 289.889V306.537C410.943 307.412 411.652 308.124 412.527 308.124C413.402 308.124 414.11 307.412 414.11 306.537V289.889C414.11 289.013 413.402 288.302 412.527 288.302C411.652 288.302 410.943 289.013 410.943 289.889Z"
       fill="#29C770"
       fill-opacity="0.6"
       stroke="#29C770"
       stroke-width="0.47166"
       id="path177" />
    <path
       d="M414.11 302.617V293.809C414.11 292.435 415.114 291.267 416.471 291.064L425.976 289.636C427.652 289.386 429.16 290.685 429.16 292.381V304.044C429.16 305.74 427.652 307.039 425.976 306.789L416.471 305.362C415.114 305.157 414.11 303.99 414.11 302.617Z"
       fill="#29C770"
       fill-opacity="0.4"
       stroke="#29C770"
       stroke-width="0.47166"
       id="path178" />
    <path
       d="M479.057 289.89V306.54C479.057 307.416 478.348 308.125 477.473 308.125C476.598 308.125 475.89 307.416 475.89 306.54V289.89C475.89 289.015 476.598 288.305 477.473 288.305C478.348 288.305 479.057 289.015 479.057 289.89Z"
       fill="#29C770"
       fill-opacity="0.6"
       stroke="#29C770"
       stroke-width="0.47166"
       id="path179" />
    <path
       d="M475.89 302.62V293.81C475.89 292.437 474.886 291.27 473.529 291.067L464.024 289.64C462.348 289.388 460.84 290.687 460.84 292.383V304.047C460.84 305.743 462.348 307.043 464.024 306.791L473.529 305.363C474.886 305.16 475.89 303.993 475.89 302.62Z"
       fill="#29C770"
       fill-opacity="0.4"
       stroke="#29C770"
       stroke-width="0.47166"
       id="path180" />
    <path
       d="M416.883 279.978V316.448C416.883 318.199 418.302 319.62 420.051 319.62H469.949C471.698 319.62 473.117 318.199 473.117 316.448V279.978C473.117 278.226 471.698 276.806 469.949 276.806H420.051C418.302 276.806 416.883 278.226 416.883 279.978Z"
       fill="#29C770"
       id="path181" />
    <path
       d="M439.915 289.583V304.252H438.14V291.445H438.055L434.476 293.822V292.018L438.14 289.583H439.915ZM449.081 304.452C448.137 304.452 447.294 304.291 446.555 303.967C445.821 303.641 445.237 303.19 444.802 302.612C444.372 302.03 444.139 301.354 444.1 300.585H445.903C445.942 301.057 446.105 301.465 446.39 301.81C446.678 302.149 447.052 302.412 447.514 302.598C447.977 302.783 448.489 302.877 449.052 302.877C449.682 302.877 450.241 302.766 450.728 302.548C451.213 302.328 451.596 302.022 451.871 301.63C452.149 301.238 452.286 300.786 452.286 300.27C452.286 299.731 452.154 299.255 451.887 298.845C451.62 298.43 451.228 298.103 450.713 297.87C450.197 297.636 449.568 297.518 448.824 297.518H447.65V295.943H448.824C449.406 295.943 449.917 295.838 450.355 295.627C450.798 295.417 451.144 295.121 451.393 294.74C451.645 294.358 451.772 293.909 451.772 293.393C451.772 292.896 451.662 292.464 451.443 292.096C451.223 291.729 450.913 291.442 450.513 291.237C450.117 291.032 449.648 290.929 449.109 290.929C448.604 290.929 448.127 291.022 447.678 291.208C447.235 291.39 446.872 291.655 446.59 292.003C446.31 292.348 446.157 292.763 446.133 293.251H444.416C444.444 292.481 444.676 291.808 445.109 291.23C445.544 290.647 446.112 290.193 446.814 289.868C447.519 289.544 448.295 289.381 449.138 289.381C450.044 289.381 450.822 289.566 451.472 289.934C452.12 290.295 452.619 290.776 452.966 291.373C453.316 291.97 453.489 292.615 453.489 293.308C453.489 294.133 453.272 294.837 452.839 295.421C452.409 296.002 451.824 296.406 451.086 296.631V296.745C452.011 296.898 452.733 297.292 453.254 297.927C453.772 298.557 454.033 299.339 454.033 300.27C454.033 301.067 453.816 301.783 453.381 302.418C452.953 303.049 452.365 303.546 451.621 303.908C450.877 304.271 450.031 304.452 449.081 304.452Z"
        fill="white"
        class="number"
       id="path182" />
  </g>
  <g
     id="table14">
    <path
       d="M641.814 270.86H625.183C624.308 270.86 623.598 271.57 623.598 272.445C623.598 273.321 624.308 274.031 625.183 274.031H641.814C642.689 274.031 643.399 273.321 643.399 272.445C643.399 271.57 642.689 270.86 641.814 270.86Z"
       fill="#29C770"
       fill-opacity="0.6"
       stroke="#29C770"
       stroke-width="0.47166"
       id="path183" />
    <path
       d="M629.099 274.031H637.898C639.27 274.031 640.437 275.036 640.64 276.394L642.066 285.908C642.316 287.586 641.018 289.095 639.324 289.095H627.673C625.979 289.095 624.681 287.586 624.931 285.908L626.357 276.394C626.562 275.036 627.727 274.031 629.099 274.031Z"
       fill="#29C770"
       fill-opacity="0.4"
       stroke="#29C770"
       stroke-width="0.47166"
       id="path184" />
    <path
       d="M666.368 270.86H649.735C648.86 270.86 648.152 271.57 648.152 272.445C648.152 273.321 648.86 274.031 649.735 274.031H666.368C667.243 274.031 667.952 273.321 667.952 272.445C667.952 271.57 667.243 270.86 666.368 270.86Z"
       fill="#29C770"
       fill-opacity="0.6"
       stroke="#29C770"
       stroke-width="0.47166"
       id="path185" />
    <path
       d="M653.651 274.031H662.452C663.824 274.031 664.99 275.036 665.193 276.394L666.618 285.908C666.87 287.586 665.572 289.095 663.878 289.095H652.226C650.531 289.095 649.233 287.586 649.485 285.908L650.911 276.394C651.114 275.036 652.279 274.031 653.651 274.031Z"
       fill="#29C770"
       fill-opacity="0.4"
       stroke="#29C770"
       stroke-width="0.47166"
       id="path186" />
    <path
       d="M649.735 325.565H666.368C667.243 325.565 667.952 324.856 667.952 323.98C667.952 323.104 667.243 322.395 666.368 322.395H649.735C648.86 322.395 648.152 323.104 648.152 323.98C648.152 324.856 648.86 325.565 649.735 325.565Z"
       fill="#29C770"
       fill-opacity="0.6"
       stroke="#29C770"
       stroke-width="0.47166"
       id="path187" />
    <path
       d="M662.452 322.395H653.651C652.279 322.395 651.114 321.39 650.911 320.031L649.485 310.517C649.233 308.84 650.531 307.33 652.226 307.33H663.878C665.572 307.33 666.87 308.84 666.618 310.517L665.193 320.031C664.99 321.39 663.824 322.395 662.452 322.395Z"
       fill="#29C770"
       fill-opacity="0.4"
       stroke="#29C770"
       stroke-width="0.47166"
       id="path188" />
    <path
       d="M625.183 325.565H641.814C642.689 325.565 643.399 324.856 643.399 323.98C643.399 323.104 642.689 322.395 641.814 322.395H625.183C624.308 322.395 623.598 323.104 623.598 323.98C623.598 324.856 624.308 325.565 625.183 325.565Z"
       fill="#29C770"
       fill-opacity="0.6"
       stroke="#29C770"
       stroke-width="0.47166"
       id="path189" />
    <path
       d="M637.898 322.395H629.099C627.727 322.395 626.562 321.39 626.357 320.031L624.931 310.517C624.681 308.84 625.979 307.33 627.673 307.33H639.324C641.018 307.33 642.316 308.84 642.066 310.517L640.64 320.031C640.437 321.39 639.27 322.395 637.898 322.395Z"
       fill="#29C770"
       fill-opacity="0.4"
       stroke="#29C770"
       stroke-width="0.47166"
       id="path190" />
    <path
       d="M611.717 289.889V306.537C611.717 307.412 612.427 308.124 613.302 308.124C614.177 308.124 614.886 307.412 614.886 306.537V289.889C614.886 289.013 614.177 288.302 613.302 288.302C612.427 288.302 611.717 289.013 611.717 289.889Z"
       fill="#29C770"
       fill-opacity="0.6"
       stroke="#29C770"
       stroke-width="0.47166"
       id="path191" />
    <path
       d="M614.886 302.617V293.809C614.886 292.435 615.89 291.267 617.247 291.064L626.751 289.636C628.427 289.386 629.935 290.685 629.935 292.381V304.044C629.935 305.74 628.427 307.039 626.751 306.789L617.247 305.362C615.89 305.157 614.886 303.99 614.886 302.617Z"
       fill="#29C770"
       fill-opacity="0.4"
       stroke="#29C770"
       stroke-width="0.47166"
       id="path192" />
    <path
       d="M679.832 289.89V306.54C679.832 307.416 679.124 308.125 678.249 308.125C677.374 308.125 676.665 307.416 676.665 306.54V289.89C676.665 289.015 677.374 288.305 678.249 288.305C679.124 288.305 679.832 289.015 679.832 289.89Z"
       fill="#29C770"
       fill-opacity="0.6"
       stroke="#29C770"
       stroke-width="0.47166"
       id="path193" />
    <path
       d="M676.665 302.62V293.81C676.665 292.437 675.661 291.27 674.304 291.067L664.8 289.64C663.124 289.388 661.616 290.687 661.616 292.383V304.047C661.616 305.743 663.124 307.043 664.8 306.791L674.304 305.363C675.661 305.16 676.665 303.993 676.665 302.62Z"
       fill="#29C770"
       fill-opacity="0.4"
       stroke="#29C770"
       stroke-width="0.47166"
       id="path194" />
    <path
       d="M617.658 279.978V316.448C617.658 318.199 619.077 319.62 620.825 319.62H670.724C672.474 319.62 673.893 318.199 673.893 316.448V279.978C673.893 278.226 672.474 276.806 670.724 276.806H620.825C619.077 276.806 617.658 278.226 617.658 279.978Z"
       fill="#29C770"
       id="path195" />
    <path
       d="M641.425 289.583V304.252H639.65V291.445H639.564L635.986 293.822V292.018L639.65 289.583H641.425ZM645.295 301.243V299.783L651.735 289.583H652.795V291.845H652.079L647.213 299.554V299.668H655.886V301.243H645.295ZM652.194 304.252V300.8V300.119V289.583H653.883V304.252H652.194Z"
        fill="white"
        class="number"
       id="path196" />
  </g>
  <g
     id="table15">
    <path
       d="M867.144 294.249V277.599C867.144 276.723 866.434 276.012 865.559 276.012C864.684 276.012 863.975 276.723 863.975 277.599V294.249C863.975 295.125 864.684 295.834 865.559 295.834C866.434 295.834 867.144 295.125 867.144 294.249Z"
       fill="#29C770"
       fill-opacity="0.6"
       stroke="#29C770"
       stroke-width="0.47166"
       id="path197" />
    <path
       d="M863.975 281.519V290.327C863.975 291.702 862.971 292.869 861.614 293.072L852.11 294.499C850.434 294.752 848.927 293.452 848.927 291.754V280.092C848.927 278.396 850.434 277.097 852.11 277.347L861.614 278.774C862.971 278.979 863.975 280.146 863.975 281.519Z"
       fill="#29C770"
       fill-opacity="0.4"
       stroke="#29C770"
       stroke-width="0.47166"
       id="path198" />
    <path
       d="M867.144 318.826V302.176C867.144 301.301 866.434 300.591 865.559 300.591C864.684 300.591 863.975 301.301 863.975 302.176V318.826C863.975 319.702 864.684 320.411 865.559 320.411C866.434 320.411 867.144 319.702 867.144 318.826Z"
       fill="#29C770"
       fill-opacity="0.6"
       stroke="#29C770"
       stroke-width="0.47166"
       id="path199" />
    <path
       d="M863.975 306.096V314.906C863.975 316.28 862.971 317.446 861.614 317.65L852.11 319.077C850.434 319.329 848.927 318.029 848.927 316.333V304.669C848.927 302.973 850.434 301.674 852.11 301.926L861.614 303.353C862.971 303.556 863.975 304.723 863.975 306.096Z"
       fill="#29C770"
       fill-opacity="0.4"
       stroke="#29C770"
       stroke-width="0.47166"
       id="path200" />
    <path
       d="M812.493 302.176V318.826C812.493 319.702 813.203 320.411 814.076 320.411C814.951 320.411 815.661 319.702 815.661 318.826V302.176C815.661 301.301 814.951 300.591 814.076 300.591C813.203 300.591 812.493 301.301 812.493 302.176Z"
       fill="#29C770"
       fill-opacity="0.6"
       stroke="#29C770"
       stroke-width="0.47166"
       id="path201" />
    <path
       d="M815.661 314.906V306.096C815.661 304.723 816.666 303.556 818.022 303.353L827.527 301.926C829.203 301.674 830.709 302.973 830.709 304.669V316.333C830.709 318.029 829.203 319.329 827.527 319.077L818.022 317.65C816.666 317.446 815.661 316.28 815.661 314.906Z"
       fill="#29C770"
       fill-opacity="0.4"
       stroke="#29C770"
       stroke-width="0.47166"
       id="path202" />
    <path
       d="M812.493 277.599V294.249C812.493 295.125 813.203 295.834 814.076 295.834C814.951 295.834 815.661 295.125 815.661 294.249V277.599C815.661 276.723 814.951 276.012 814.076 276.012C813.203 276.012 812.493 276.723 812.493 277.599Z"
       fill="#29C770"
       fill-opacity="0.6"
       stroke="#29C770"
       stroke-width="0.47166"
       id="path203" />
    <path
       d="M815.661 290.327V281.519C815.661 280.146 816.666 278.979 818.022 278.774L827.527 277.347C829.203 277.097 830.709 278.396 830.709 280.092V291.754C830.709 293.452 829.203 294.752 827.527 294.499L818.022 293.072C816.666 292.869 815.661 291.702 815.661 290.327Z"
       fill="#29C770"
       fill-opacity="0.4"
       stroke="#29C770"
       stroke-width="0.47166"
       id="path204" />
    <path
       d="M848.135 264.121H831.502C830.627 264.121 829.918 264.831 829.918 265.706C829.918 266.582 830.627 267.292 831.502 267.292H848.135C849.01 267.292 849.718 266.582 849.718 265.706C849.718 264.831 849.01 264.121 848.135 264.121Z"
       fill="#29C770"
       fill-opacity="0.6"
       stroke="#29C770"
       stroke-width="0.47166"
       id="path205" />
    <path
       d="M835.418 267.292H844.219C845.591 267.292 846.756 268.297 846.959 269.655L848.385 279.169C848.637 280.847 847.339 282.356 845.644 282.356H833.992C832.298 282.356 831 280.847 831.252 279.169L832.677 269.655C832.88 268.297 834.046 267.292 835.418 267.292Z"
       fill="#29C770"
       fill-opacity="0.4"
       stroke="#29C770"
       stroke-width="0.47166"
       id="path206" />
    <path
       d="M848.131 332.304H831.498C830.624 332.304 829.915 331.595 829.915 330.719C829.915 329.843 830.624 329.134 831.498 329.134H848.131C849.006 329.134 849.715 329.843 849.715 330.719C849.715 331.595 849.006 332.304 848.131 332.304Z"
       fill="#29C770"
       fill-opacity="0.6"
       stroke="#29C770"
       stroke-width="0.47166"
       id="path207" />
    <path
       d="M835.414 329.134H844.215C845.587 329.134 846.753 328.129 846.956 326.77L848.382 317.256C848.633 315.579 847.335 314.069 845.641 314.069H833.99C832.294 314.069 830.996 315.579 831.248 317.256L832.674 326.77C832.877 328.129 834.042 329.134 835.414 329.134Z"
       fill="#29C770"
       fill-opacity="0.4"
       stroke="#29C770"
       stroke-width="0.47166"
       id="path208" />
    <path
       d="M858.036 270.067H821.601C819.851 270.067 818.434 271.487 818.434 273.239V323.187C818.434 324.938 819.851 326.359 821.601 326.359H858.036C859.785 326.359 861.203 324.938 861.203 323.187V273.239C861.203 271.487 859.785 270.067 858.036 270.067Z"
       fill="#29C770"
       id="path209" />
    <path
       d="M836.217 289.583V304.252H834.442V291.445H834.357L830.778 293.822V292.018L834.442 289.583H836.217ZM845.011 304.452C844.172 304.452 843.416 304.286 842.743 303.951C842.069 303.617 841.53 303.158 841.126 302.576C840.719 301.993 840.498 301.329 840.461 300.584H842.177C842.244 301.248 842.545 301.798 843.079 302.232C843.618 302.662 844.262 302.877 845.011 302.877C845.613 302.877 846.146 302.736 846.613 302.454C847.087 302.173 847.456 301.786 847.723 301.294C847.995 300.798 848.131 300.237 848.131 299.611C848.131 298.971 847.99 298.399 847.708 297.898C847.433 297.392 847.05 296.994 846.565 296.703C846.078 296.411 845.522 296.263 844.897 296.258C844.449 296.253 843.987 296.323 843.515 296.466C843.043 296.604 842.654 296.784 842.35 297.004L840.689 296.802L841.576 289.583H849.189V291.158H843.065L842.55 295.484H842.635C842.936 295.246 843.312 295.047 843.765 294.889C844.219 294.733 844.691 294.654 845.183 294.654C846.079 294.654 846.879 294.869 847.581 295.298C848.286 295.723 848.84 296.306 849.24 297.046C849.646 297.786 849.848 298.631 849.848 299.583C849.848 300.517 849.638 301.354 849.218 302.089C848.803 302.82 848.23 303.397 847.502 303.822C846.771 304.242 845.942 304.452 845.011 304.452Z"
        fill="white"
        class="number"
       id="path210" />
  </g>
</svg>
